<?xml version="1.0" encoding="UTF-8"?> <svg xmlns="http://www.w3.org/2000/svg" xmlns:xlink="http://www.w3.org/1999/xlink" version="1.1" id="Layer_1" x="0px" y="0px" width="776.9px" height="204.6px" viewBox="0 0 776.9 204.6" style="enable-background:new 0 0 776.9 204.6;" xml:space="preserve"> <style type="text/css"> .st0{fill:#FFFFFF;} .st1{fill:#E3A756;} .st2{fill:#E9BCB8;} .st3{fill:#B9D1BC;} </style> <g> <g> <path class="st0" d="M290.5,30.4v23.2c-5.8,4.2-12.6,6.3-20.3,6.3c-4.7,0-9-0.7-12.9-2.2c-3.8-1.5-7.1-3.5-9.8-6.2 c-2.7-2.6-4.8-5.8-6.3-9.5c-1.5-3.7-2.2-7.7-2.2-12.1c0-4.4,0.7-8.5,2.1-12.1c1.4-3.7,3.4-6.8,6.1-9.5c2.6-2.6,5.8-4.7,9.5-6.1 c3.7-1.4,7.9-2.2,12.5-2.2c2.4,0,4.5,0.2,6.6,0.5c2,0.4,3.9,0.9,5.6,1.5c1.7,0.7,3.3,1.4,4.8,2.4s2.8,2,4,3.1l-2.7,4.4 c-0.4,0.7-1,1.1-1.7,1.3c-0.7,0.2-1.4,0-2.2-0.5c-0.8-0.5-1.6-0.9-2.5-1.5c-0.9-0.5-1.9-1-3-1.4s-2.5-0.8-3.9-1.1 c-1.5-0.3-3.3-0.4-5.3-0.4c-3.1,0-5.9,0.5-8.4,1.5c-2.5,1-4.6,2.5-6.4,4.4c-1.8,1.9-3.1,4.2-4.1,6.9c-0.9,2.7-1.4,5.7-1.4,9 c0,3.5,0.5,6.6,1.5,9.4c1,2.8,2.4,5.1,4.3,7c1.8,1.9,4.1,3.4,6.7,4.4c2.6,1,5.5,1.5,8.8,1.5c2.4,0,4.6-0.3,6.4-0.8 c1.9-0.5,3.7-1.2,5.5-2.2V37.6h-8.2c-0.6,0-1.1-0.2-1.5-0.5c-0.4-0.3-0.5-0.8-0.5-1.3v-5.4H290.5z"></path> <path class="st0" d="M335.6,51.2v8h-33.8V0.7h9.5v50.6H335.6z"></path> <path class="st0" d="M396.4,29.9c0,4.3-0.7,8.3-2.1,12c-1.4,3.7-3.4,6.8-6,9.5c-2.6,2.6-5.6,4.7-9.2,6.2c-3.6,1.5-7.6,2.2-12,2.2 c-4.4,0-8.3-0.7-11.9-2.2c-3.6-1.5-6.7-3.6-9.2-6.2c-2.6-2.6-4.6-5.8-6-9.5c-1.4-3.7-2.1-7.7-2.1-12c0-4.3,0.7-8.3,2.1-12 c1.4-3.7,3.4-6.8,6-9.5c2.6-2.7,5.7-4.7,9.2-6.2c3.6-1.5,7.6-2.2,11.9-2.2c4.4,0,8.4,0.7,12,2.2c3.6,1.5,6.7,3.6,9.2,6.2 c2.6,2.7,4.5,5.8,6,9.5C395.7,21.6,396.4,25.6,396.4,29.9z M386.7,29.9c0-3.4-0.5-6.4-1.4-9.1c-0.9-2.7-2.2-5-3.9-6.8 s-3.7-3.3-6.2-4.3c-2.4-1-5.1-1.5-8.1-1.5c-3,0-5.7,0.5-8.1,1.5c-2.4,1-4.5,2.4-6.2,4.3s-3,4.1-3.9,6.8c-0.9,2.7-1.4,5.7-1.4,9.1 c0,3.4,0.5,6.4,1.4,9.1c0.9,2.7,2.2,5,3.9,6.8c1.7,1.9,3.8,3.3,6.2,4.3c2.4,1,5.1,1.5,8.1,1.5c3,0,5.7-0.5,8.1-1.5 c2.4-1,4.5-2.4,6.2-4.3c1.7-1.9,3-4.1,3.9-6.8S386.7,33.3,386.7,29.9z"></path> <path class="st0" d="M426.3,0.7c3.7,0,6.9,0.4,9.6,1.1c2.7,0.7,4.8,1.7,6.5,3.1c1.7,1.3,3,2.9,3.8,4.9c0.8,1.9,1.2,4.1,1.2,6.4 c0,1.4-0.2,2.7-0.6,4c-0.4,1.3-1.1,2.5-2,3.6c-0.9,1.1-2,2.1-3.3,3s-2.9,1.6-4.7,2.2c8.3,1.8,12.4,6.2,12.4,13.2 c0,2.5-0.5,4.8-1.4,6.9c-0.9,2.1-2.3,3.9-4.1,5.4c-1.8,1.5-4,2.7-6.6,3.5c-2.6,0.8-5.6,1.3-8.9,1.3h-21.5V0.7H426.3z M416.3,8.1 v18.3h9.5c4.1,0,7.1-0.8,9.1-2.4c2-1.6,3-3.8,3-6.8c0-3.2-0.9-5.6-2.8-7s-4.8-2.2-8.8-2.2H416.3z M428.1,51.7c2.1,0,4-0.3,5.4-0.8 c1.5-0.5,2.7-1.2,3.6-2.1c0.9-0.9,1.6-1.9,2-3.1c0.4-1.2,0.6-2.4,0.6-3.8c0-2.8-0.9-4.9-2.8-6.5s-4.9-2.4-8.9-2.4h-11.7v18.6 H428.1z"></path> <path class="st0" d="M508,59.2h-7.4c-0.8,0-1.5-0.2-2-0.6c-0.5-0.4-0.9-0.9-1.2-1.6l-4.9-12.9h-25.2L462.5,57 c-0.2,0.5-0.6,1-1.1,1.5c-0.5,0.5-1.2,0.7-2,0.7h-7.4l23.2-58.5h9.6L508,59.2z M490,37.2l-8-21.4c-0.7-1.7-1.3-3.8-2-6.3 c-0.3,1.3-0.6,2.4-1,3.5c-0.4,1.1-0.7,2-1,2.8l-8,21.3H490z"></path> <path class="st0" d="M548.6,51.2v8h-33.8V0.7h9.5v50.6H548.6z"></path> <path class="st0" d="M252.1,142.3h-9.6V83.8h9.6V142.3z"></path> <path class="st0" d="M314.5,83.8v58.5h-4.8c-0.7,0-1.4-0.1-1.9-0.4c-0.5-0.3-1-0.7-1.5-1.3l-32.2-41.3c0.1,0.8,0.1,1.6,0.2,2.3 s0.1,1.5,0.1,2.1v38.5H266V83.8h5c0.4,0,0.8,0,1,0.1c0.3,0,0.5,0.1,0.8,0.2c0.2,0.1,0.5,0.3,0.7,0.5c0.2,0.2,0.4,0.5,0.7,0.8 l32.2,41.3c-0.1-0.8-0.1-1.7-0.2-2.5c0-0.8-0.1-1.6-0.1-2.3V83.8H314.5z"></path> <path class="st0" d="M338,91.4v18.7h22.9v7.7H338v24.4h-9.6V83.8h36.5v7.7H338z"></path> <path class="st0" d="M408.2,134.3v8h-33.8V83.8h9.5v50.6H408.2z"></path> <path class="st0" d="M437.6,134.6c2.2,0,4.3-0.4,6-1.1c1.8-0.8,3.3-1.8,4.5-3.2c1.2-1.4,2.2-3,2.8-4.9c0.7-1.9,1-4,1-6.4V83.8h9.5 V119c0,3.4-0.5,6.6-1.6,9.6c-1.1,2.9-2.7,5.5-4.7,7.6c-2.1,2.1-4.6,3.8-7.5,5c-2.9,1.2-6.3,1.8-9.9,1.8c-3.7,0-7-0.6-9.9-1.8 c-2.9-1.2-5.4-2.9-7.5-5s-3.6-4.7-4.7-7.6c-1.1-2.9-1.6-6.1-1.6-9.6V83.8h9.5V119c0,2.3,0.3,4.5,1,6.4c0.7,1.9,1.6,3.6,2.8,4.9 c1.2,1.4,2.7,2.4,4.5,3.2C433.4,134.2,435.4,134.6,437.6,134.6z"></path> <path class="st0" d="M511.2,134.6l0,7.7h-36.5V83.8h36.5v7.7h-27v17.6h21.5v7.4h-21.5v18.1H511.2z"></path> <path class="st0" d="M569.9,83.8v58.5h-4.8c-0.7,0-1.4-0.1-1.9-0.4c-0.5-0.3-1-0.7-1.5-1.3l-32.2-41.3c0.1,0.8,0.1,1.6,0.2,2.3 s0.1,1.5,0.1,2.1v38.5h-8.4V83.8h5c0.4,0,0.8,0,1,0.1c0.3,0,0.5,0.1,0.8,0.2c0.2,0.1,0.5,0.3,0.7,0.5c0.2,0.2,0.4,0.5,0.7,0.8 l32.2,41.3c-0.1-0.8-0.1-1.7-0.2-2.5c0-0.8-0.1-1.6-0.1-2.3V83.8H569.9z"></path> <path class="st0" d="M624.5,129.2c0.5,0,1,0.2,1.3,0.6l3.8,4.1c-2.4,2.9-5.3,5.1-8.8,6.6c-3.5,1.6-7.6,2.3-12.4,2.3 c-4.3,0-8.2-0.7-11.6-2.2c-3.5-1.5-6.4-3.5-8.8-6.2c-2.4-2.6-4.3-5.8-5.6-9.5c-1.3-3.7-2-7.7-2-12.1c0-4.4,0.7-8.4,2.1-12.1 c1.4-3.7,3.4-6.8,5.9-9.5s5.6-4.7,9.1-6.2c3.5-1.5,7.4-2.2,11.7-2.2c4.2,0,8,0.7,11.2,2.1c3.2,1.4,6.1,3.2,8.4,5.5l-3.1,4.4 c-0.2,0.3-0.5,0.6-0.8,0.8c-0.3,0.2-0.7,0.3-1.2,0.3c-0.5,0-1.2-0.3-1.9-0.8c-0.7-0.5-1.6-1.1-2.6-1.7c-1.1-0.6-2.4-1.2-4-1.7 c-1.6-0.5-3.6-0.8-6-0.8c-2.8,0-5.4,0.5-7.7,1.5s-4.3,2.4-6,4.3c-1.7,1.9-3,4.1-3.9,6.8c-0.9,2.7-1.4,5.7-1.4,9.1 c0,3.4,0.5,6.5,1.5,9.2c1,2.7,2.3,5,4,6.8c1.7,1.9,3.7,3.3,6,4.2s4.8,1.5,7.4,1.5c1.6,0,3.1-0.1,4.4-0.3c1.3-0.2,2.5-0.5,3.6-0.9 c1.1-0.4,2.1-0.9,3.1-1.5c1-0.6,1.9-1.3,2.9-2.2C623.5,129.5,624,129.2,624.5,129.2z"></path> <path class="st0" d="M674.5,134.6l0,7.7h-36.5V83.8h36.5v7.7h-27v17.6H669v7.4h-21.5v18.1H674.5z"></path> <path class="st0" d="M729.3,142.3h-8.5c-1.7,0-2.9-0.7-3.7-2l-13.7-19.7c-0.5-0.7-1-1.2-1.5-1.5c-0.5-0.3-1.4-0.4-2.4-0.4h-5.3 v23.6h-9.5V83.8H702c3.8,0,7.2,0.4,9.9,1.2c2.8,0.8,5.1,1.9,6.9,3.4c1.8,1.5,3.1,3.2,4,5.2s1.3,4.3,1.3,6.8c0,2-0.3,3.9-0.9,5.7 c-0.6,1.8-1.5,3.4-2.6,4.8c-1.2,1.4-2.6,2.7-4.2,3.7c-1.7,1.1-3.6,1.9-5.7,2.5c1.2,0.7,2.2,1.7,3,3L729.3,142.3z M701.7,111.8 c2.2,0,4.1-0.3,5.7-0.8c1.6-0.5,3-1.3,4.1-2.2c1.1-0.9,1.9-2.1,2.4-3.4c0.5-1.3,0.8-2.8,0.8-4.4c0-3.2-1.1-5.6-3.2-7.3 c-2.1-1.7-5.3-2.5-9.6-2.5h-7.7v20.6H701.7z"></path> <path class="st1" d="M280.2,166.5v37.7h-5.4v-25.9c0-0.4,0-0.9,0-1.4c0-0.5,0.1-1,0.1-1.5l-12.1,22.4c-0.5,0.9-1.2,1.4-2.2,1.4 h-0.9c-1,0-1.7-0.5-2.2-1.4l-12.3-22.5c0.1,0.5,0.1,1,0.1,1.5s0,1,0,1.4v25.9h-5.4v-37.7h4.6c0.5,0,1,0,1.3,0.1 c0.3,0.1,0.6,0.4,0.8,0.9l12.1,21.9c0.3,0.5,0.5,1,0.7,1.6c0.2,0.5,0.4,1.1,0.6,1.6c0.2-0.6,0.4-1.1,0.7-1.7 c0.2-0.5,0.5-1.1,0.7-1.6l11.9-21.9c0.2-0.5,0.5-0.8,0.8-0.9c0.3-0.1,0.7-0.1,1.3-0.1H280.2z"></path> <path class="st1" d="M320.8,204.2H316c-0.5,0-1-0.1-1.3-0.4c-0.3-0.3-0.6-0.6-0.8-1l-3.1-8.3h-16.2l-3.1,8.3 c-0.1,0.3-0.4,0.7-0.7,1c-0.3,0.3-0.8,0.4-1.3,0.4h-4.7l15-37.7h6.2L320.8,204.2z M309.2,190l-5.2-13.8c-0.4-1.1-0.8-2.4-1.3-4.1 c-0.2,0.8-0.4,1.6-0.6,2.3c-0.2,0.7-0.4,1.3-0.6,1.8l-5.2,13.8H309.2z"></path> <path class="st1" d="M353.9,204.2h-5.5c-1.1,0-1.9-0.4-2.4-1.3l-8.8-12.7c-0.3-0.4-0.6-0.8-1-0.9c-0.3-0.2-0.9-0.3-1.6-0.3h-3.4 v15.2h-6.1v-37.7h11.1c2.5,0,4.6,0.3,6.4,0.8c1.8,0.5,3.3,1.2,4.4,2.2s2,2.1,2.6,3.4c0.6,1.3,0.8,2.8,0.8,4.4 c0,1.3-0.2,2.5-0.6,3.7c-0.4,1.1-1,2.2-1.7,3.1c-0.7,0.9-1.7,1.7-2.7,2.4c-1.1,0.7-2.3,1.2-3.7,1.6c0.8,0.5,1.4,1.1,1.9,1.9 L353.9,204.2z M336.1,184.5c1.4,0,2.6-0.2,3.7-0.5c1-0.3,1.9-0.8,2.6-1.4s1.2-1.3,1.6-2.2c0.3-0.8,0.5-1.8,0.5-2.8 c0-2.1-0.7-3.6-2-4.7c-1.4-1.1-3.4-1.6-6.2-1.6h-5v13.3H336.1z"></path> <path class="st1" d="M364.6,182.6h1.8c0.7,0,1.2-0.1,1.6-0.3c0.4-0.2,0.8-0.5,1.1-0.9l11.4-13.6c0.4-0.5,0.8-0.9,1.2-1.1 c0.4-0.2,1-0.3,1.6-0.3h5.2l-13.5,15.9c-0.4,0.5-0.7,0.8-1.1,1.1c-0.3,0.3-0.7,0.6-1.1,0.7c0.5,0.2,1,0.5,1.4,0.8 c0.4,0.3,0.8,0.8,1.2,1.3l14,17.8h-5.3c-0.4,0-0.7,0-1-0.1c-0.3-0.1-0.5-0.1-0.7-0.2c-0.2-0.1-0.4-0.2-0.5-0.4s-0.3-0.3-0.4-0.5 l-11.8-14.4c-0.2-0.2-0.3-0.4-0.5-0.6c-0.2-0.2-0.4-0.3-0.6-0.4s-0.5-0.2-0.8-0.2c-0.3,0-0.6-0.1-1-0.1h-2.3v16.9h-6.1v-37.7h6.1 V182.6z"></path> <path class="st1" d="M417.3,199.2l0,5h-23.5v-37.7h23.5v5h-17.4v11.4h13.9v4.8h-13.9v11.7H417.3z"></path> <path class="st1" d="M449.9,171.6h-11.8v32.6h-6.1v-32.6h-11.8v-5.1h29.7V171.6z"></path> <path class="st1" d="M461.3,204.2h-6.2v-37.7h6.2V204.2z"></path> <path class="st1" d="M501.5,166.5v37.7h-3.1c-0.5,0-0.9-0.1-1.2-0.2s-0.6-0.4-0.9-0.8l-20.7-26.6c0.1,0.5,0.1,1,0.1,1.5 c0,0.5,0,1,0,1.4v24.8h-5.4v-37.7h3.2c0.3,0,0.5,0,0.7,0s0.4,0.1,0.5,0.1c0.2,0.1,0.3,0.2,0.4,0.3c0.1,0.1,0.3,0.3,0.4,0.5 l20.8,26.6c-0.1-0.5-0.1-1.1-0.1-1.6c0-0.5,0-1,0-1.5v-24.6H501.5z"></path> <path class="st1" d="M541.4,185.6v14.9c-3.8,2.7-8.1,4.1-13.1,4.1c-3.1,0-5.8-0.5-8.3-1.4c-2.5-1-4.6-2.3-6.3-4 c-1.7-1.7-3.1-3.7-4-6.1c-0.9-2.4-1.4-5-1.4-7.8c0-2.8,0.5-5.5,1.4-7.8c0.9-2.4,2.2-4.4,3.9-6.1c1.7-1.7,3.7-3,6.1-4 c2.4-0.9,5.1-1.4,8.1-1.4c1.5,0,2.9,0.1,4.2,0.4c1.3,0.2,2.5,0.6,3.6,1c1.1,0.4,2.1,0.9,3.1,1.5s1.8,1.3,2.6,2l-1.8,2.8 c-0.3,0.4-0.6,0.7-1.1,0.8c-0.4,0.1-0.9,0-1.4-0.3c-0.5-0.3-1-0.6-1.6-0.9c-0.6-0.3-1.2-0.6-2-0.9c-0.7-0.3-1.6-0.5-2.5-0.7 c-1-0.2-2.1-0.3-3.4-0.3c-2,0-3.8,0.3-5.4,1c-1.6,0.7-3,1.6-4.1,2.8c-1.1,1.2-2,2.7-2.6,4.4c-0.6,1.7-0.9,3.7-0.9,5.8 c0,2.3,0.3,4.3,1,6s1.6,3.3,2.8,4.5s2.6,2.2,4.3,2.8c1.7,0.6,3.6,1,5.6,1c1.6,0,2.9-0.2,4.2-0.5s2.4-0.8,3.6-1.4v-7.5h-5.3 c-0.4,0-0.7-0.1-0.9-0.3c-0.2-0.2-0.3-0.5-0.3-0.9v-3.5H541.4z"></path> <path class="st1" d="M591.5,204.2h-4.7c-0.5,0-1-0.1-1.3-0.4c-0.3-0.3-0.6-0.6-0.8-1l-3.1-8.3h-16.2l-3.1,8.3 c-0.1,0.3-0.4,0.7-0.7,1c-0.3,0.3-0.8,0.4-1.3,0.4h-4.7l15-37.7h6.2L591.5,204.2z M579.9,190l-5.2-13.8c-0.4-1.1-0.8-2.4-1.3-4.1 c-0.2,0.8-0.4,1.6-0.6,2.3c-0.2,0.7-0.4,1.3-0.6,1.8L567,190H579.9z"></path> <path class="st1" d="M643.1,166.5l-11.7,37.7h-5.5l-8.9-27.1c-0.1-0.3-0.2-0.6-0.3-1c-0.1-0.3-0.2-0.7-0.3-1.1 c-0.1,0.4-0.2,0.8-0.3,1.1c-0.1,0.3-0.2,0.7-0.3,1l-8.9,27.1h-5.5l-11.7-37.7h5.1c0.5,0,1,0.1,1.3,0.4s0.6,0.6,0.7,1l7.1,24.2 c0.1,0.5,0.3,1.1,0.4,1.7c0.1,0.6,0.2,1.2,0.4,1.9c0.1-0.7,0.3-1.3,0.4-1.9c0.1-0.6,0.3-1.2,0.5-1.7l8.1-24.2 c0.1-0.3,0.4-0.7,0.7-1s0.8-0.4,1.3-0.4h1.8c0.5,0,1,0.1,1.3,0.4c0.3,0.3,0.6,0.6,0.8,1l8.1,24.2c0.2,0.5,0.3,1.1,0.5,1.6 c0.1,0.6,0.3,1.2,0.4,1.8c0.1-0.6,0.2-1.3,0.4-1.8c0.1-0.6,0.2-1.1,0.4-1.6l7-24.2c0.1-0.4,0.3-0.7,0.7-1s0.8-0.4,1.3-0.4H643.1z"></path> <path class="st1" d="M677.4,204.2h-4.7c-0.5,0-1-0.1-1.3-0.4c-0.3-0.3-0.6-0.6-0.8-1l-3.1-8.3h-16.2l-3.1,8.3 c-0.1,0.3-0.4,0.7-0.7,1c-0.3,0.3-0.8,0.4-1.3,0.4h-4.7l15-37.7h6.2L677.4,204.2z M665.8,190l-5.2-13.8c-0.4-1.1-0.8-2.4-1.3-4.1 c-0.2,0.8-0.4,1.6-0.6,2.3c-0.2,0.7-0.4,1.3-0.6,1.8l-5.2,13.8H665.8z"></path> <path class="st1" d="M710.5,204.2H705c-1.1,0-1.9-0.4-2.4-1.3l-8.8-12.7c-0.3-0.4-0.6-0.8-1-0.9c-0.3-0.2-0.9-0.3-1.6-0.3h-3.4 v15.2h-6.1v-37.7h11.1c2.5,0,4.6,0.3,6.4,0.8s3.3,1.2,4.4,2.2c1.2,0.9,2,2.1,2.6,3.4c0.5,1.3,0.8,2.8,0.8,4.4 c0,1.3-0.2,2.5-0.6,3.7c-0.4,1.1-1,2.2-1.7,3.1s-1.7,1.7-2.7,2.4c-1.1,0.7-2.3,1.2-3.7,1.6c0.8,0.5,1.4,1.1,1.9,1.9L710.5,204.2z M692.7,184.5c1.4,0,2.6-0.2,3.7-0.5s1.9-0.8,2.6-1.4c0.7-0.6,1.2-1.3,1.6-2.2c0.3-0.8,0.5-1.8,0.5-2.8c0-2.1-0.7-3.6-2-4.7 s-3.4-1.6-6.2-1.6h-5v13.3H692.7z"></path> <path class="st1" d="M748.2,185.3c0,2.8-0.5,5.3-1.4,7.7c-0.9,2.3-2.2,4.3-3.8,6c-1.7,1.7-3.6,2.9-5.9,3.9s-4.9,1.4-7.7,1.4h-14.3 v-37.7h14.3c2.8,0,5.4,0.5,7.7,1.4s4.3,2.2,5.9,3.9c1.7,1.7,2.9,3.6,3.8,6C747.7,180,748.2,182.5,748.2,185.3z M741.9,185.3 c0-2.2-0.3-4.1-0.9-5.8c-0.6-1.7-1.4-3.2-2.5-4.4s-2.4-2.1-4-2.7c-1.6-0.6-3.3-1-5.2-1h-8.1v27.8h8.1c1.9,0,3.7-0.3,5.2-0.9 s2.9-1.5,4-2.7s1.9-2.7,2.5-4.4C741.6,189.5,741.9,187.5,741.9,185.3z"></path> <path class="st1" d="M774.6,172.9c-0.2,0.3-0.4,0.5-0.6,0.7c-0.2,0.1-0.5,0.2-0.8,0.2c-0.3,0-0.7-0.1-1.1-0.4s-0.9-0.6-1.5-0.9 c-0.6-0.3-1.3-0.7-2.1-0.9c-0.8-0.3-1.8-0.4-2.9-0.4c-1,0-2,0.1-2.8,0.4c-0.8,0.3-1.5,0.6-2,1.1s-0.9,1-1.2,1.7 c-0.3,0.6-0.4,1.3-0.4,2.1c0,1,0.3,1.8,0.8,2.4c0.5,0.6,1.2,1.2,2,1.6c0.8,0.5,1.8,0.9,2.8,1.2s2.2,0.7,3.3,1.1 c1.1,0.4,2.2,0.8,3.3,1.3s2,1.1,2.8,1.9c0.8,0.8,1.5,1.7,2,2.8c0.5,1.1,0.8,2.4,0.8,4c0,1.7-0.3,3.2-0.9,4.7 c-0.6,1.5-1.4,2.7-2.5,3.8s-2.4,2-4,2.6c-1.6,0.6-3.4,0.9-5.5,0.9c-1.2,0-2.4-0.1-3.5-0.4c-1.1-0.2-2.2-0.6-3.3-1s-2-0.9-2.9-1.6 c-0.9-0.6-1.7-1.3-2.4-2l1.8-2.9c0.2-0.2,0.4-0.4,0.6-0.6c0.2-0.1,0.5-0.2,0.8-0.2c0.4,0,0.8,0.2,1.3,0.6c0.5,0.4,1.1,0.8,1.8,1.2 c0.7,0.4,1.5,0.9,2.5,1.2c1,0.4,2.1,0.6,3.5,0.6c2.2,0,3.9-0.5,5.1-1.6c1.2-1.1,1.8-2.6,1.8-4.5c0-1.1-0.3-1.9-0.8-2.6 c-0.5-0.7-1.2-1.2-2-1.7c-0.8-0.5-1.8-0.8-2.8-1.2c-1.1-0.3-2.1-0.7-3.2-1c-1.1-0.4-2.2-0.8-3.2-1.3c-1.1-0.5-2-1.1-2.8-1.9 c-0.8-0.8-1.5-1.7-2-2.9c-0.5-1.1-0.8-2.6-0.8-4.3c0-1.4,0.3-2.7,0.8-4c0.5-1.3,1.3-2.4,2.3-3.4c1-1,2.3-1.8,3.8-2.4 c1.5-0.6,3.2-0.9,5.1-0.9c2.2,0,4.2,0.3,6,1c1.8,0.7,3.4,1.7,4.7,2.9L774.6,172.9z"></path> </g> <g> <path class="st1" d="M104.6,7.4c4.3,0,8.2,2.4,10.1,6.3l23.4,47.5c0.8,1.5,2.2,2.6,3.9,2.8l52.4,7.6c4.3,0.6,7.7,3.6,9.1,7.7 c1.3,4.1,0.2,8.5-2.8,11.5l-37.9,37c-1.2,1.2-1.8,2.9-1.5,4.6l9,52.2c0.6,3.3-0.3,6.6-2.5,9.1c-2.2,2.6-5.3,4-8.6,4 c-1.8,0-3.6-0.5-5.2-1.3L107,171.7c-0.8-0.4-1.6-0.6-2.4-0.6c-0.8,0-1.7,0.2-2.4,0.6l-46.9,24.6c-1.6,0.9-3.4,1.3-5.2,1.3 c-3.3,0-6.5-1.5-8.6-4c-2.1-2.5-3-5.9-2.5-9.1l9-52.2c0.3-1.7-0.3-3.4-1.5-4.6l-37.9-37c-3.1-3-4.2-7.4-2.8-11.5 c1.3-4.1,4.8-7,9.1-7.7L67.2,64c1.7-0.2,3.1-1.3,3.9-2.8l23.4-47.5C96.4,9.8,100.3,7.4,104.6,7.4 M104.6,2.3 c-6.3,0-11.9,3.5-14.7,9.2L66.5,58.9l-52.4,7.6C7.8,67.4,2.8,71.7,0.8,77.7S0.5,90.1,5,94.5l37.9,37l-9,52.2 c-0.8,4.8,0.5,9.6,3.6,13.3c3.1,3.7,7.7,5.9,12.6,5.9c2.6,0,5.3-0.7,7.6-1.9l46.9-24.6l46.9,24.6c2.4,1.2,5,1.9,7.6,1.9 c4.8,0,9.4-2.1,12.6-5.9c3.1-3.7,4.4-8.6,3.6-13.3l-9-52.2l37.9-37c4.5-4.4,6.1-10.8,4.2-16.8c-1.9-6-7-10.3-13.3-11.2l-52.4-7.6 l-23.4-47.5C116.5,5.8,110.9,2.3,104.6,2.3L104.6,2.3z"></path> <path class="st2" d="M105.8,19.3L105.8,19.3L105.8,19.3 M104.6,21.6l24.3,49.2c1.3,2.7,3.9,4.5,6.8,4.9l54.3,7.9L150.7,122 c-2.1,2.1-3.1,5.1-2.6,8l9.3,54.1l-48.6-25.5c-1.3-0.7-2.7-1-4.2-1c-1.5,0-2.9,0.4-4.2,1L51.9,184l9.3-54.1c0.5-2.9-0.5-5.9-2.6-8 L19.2,83.7l54.3-7.9c2.9-0.4,5.5-2.3,6.8-4.9L104.6,21.6 M104.6,14.8c-1.4,0-2.8,0.7-3.5,2.2L75.7,68.5c-0.6,1.1-1.6,1.9-2.9,2.1 l-56.9,8.3c-3.2,0.5-4.4,4.4-2.1,6.6l41.2,40.1c0.9,0.9,1.3,2.2,1.1,3.4l-9.7,56.7c-0.4,2.5,1.6,4.5,3.8,4.5 c0.6,0,1.2-0.1,1.8-0.5l50.9-26.8c0.6-0.3,1.2-0.4,1.8-0.4c0.6,0,1.2,0.1,1.8,0.4l50.9,26.8c0.6,0.3,1.2,0.5,1.8,0.5 c2.2,0,4.2-2,3.8-4.5l-9.7-56.7c-0.2-1.3,0.2-2.5,1.1-3.4l41.2-40.1c2.3-2.2,1-6.1-2.1-6.6l-56.9-8.3c-1.3-0.2-2.3-1-2.9-2.1 L108.1,17C107.4,15.5,106,14.8,104.6,14.8L104.6,14.8z"></path> <path class="st3" d="M108.1,42.9L108.1,42.9L108.1,42.9 M104.6,50l16.5,33.5c0.9,1.9,2.8,3.2,4.9,3.5l37,5.4l-26.8,26.1 c-1.5,1.5-2.2,3.6-1.8,5.7l6.3,36.8l-33.1-17.4c-0.9-0.5-2-0.7-3-0.7c-1,0-2.1,0.3-3,0.7l-33.1,17.4l6.3-36.8 c0.4-2.1-0.3-4.2-1.9-5.7L46.2,92.4l37-5.4c2.1-0.3,3.9-1.6,4.9-3.5L104.6,50 M104.6,39.9c-0.5,0-0.9,0.2-1.1,0.7l-20,40.6 c-0.2,0.4-0.5,0.6-1,0.7l-44.8,6.5c-1,0.2-1.5,1.4-0.7,2.2l32.4,31.6c0.3,0.3,0.4,0.7,0.4,1.1L62.1,168c-0.1,0.8,0.5,1.5,1.3,1.5 c0.2,0,0.4,0,0.6-0.1l40.1-21.1c0.2-0.1,0.4-0.1,0.6-0.1c0.2,0,0.4,0,0.6,0.1l40.1,21.1c0.2,0.1,0.4,0.1,0.6,0.1 c0.7,0,1.4-0.7,1.3-1.5l-7.7-44.6c-0.1-0.4,0.1-0.8,0.4-1.1l32.4-31.6c0.8-0.7,0.3-2-0.7-2.2l-44.8-6.5c-0.4-0.1-0.8-0.3-1-0.7 l-20-40.6C105.5,40.2,105.1,39.9,104.6,39.9L104.6,39.9z"></path> </g> </g> </svg> 