<?xml version="1.0" encoding="UTF-8"?> <svg xmlns="http://www.w3.org/2000/svg" xmlns:xlink="http://www.w3.org/1999/xlink" id="Layer_1" viewBox="0 0 836.32 267.44"><defs><style>.cls-1{fill:url(#linear-gradient);}.cls-2{fill:#fff;}</style><linearGradient id="linear-gradient" x1="92.18" y1="265.68" x2="92.18" y2="0" gradientUnits="userSpaceOnUse"><stop offset="0" stop-color="#ff820f"></stop><stop offset="1" stop-color="#ffbe0f"></stop></linearGradient></defs><path class="cls-1" d="M124.82,0V.37c0,14.8,1.21,29.57,3.62,44.17l7.23,43.83c1.51,8.97-3.19,17.62-11.31,21.3l-7.32-43.7c-2.01,.69-3.22,2.72-2.87,4.81l4.44,26.54c1.38,8.24-3.69,16.2-11.75,18.42h0l-7.35-43.79c-2.01,.69-3.22,2.72-2.87,4.81l4.23,25.19c1.43,8.5-3.42,16.81-11.52,19.75h0s-7.36-43.77-7.36-43.77c-2.01,.69-3.22,2.72-2.87,4.82l4.29,25.52c1.42,8.43-3.48,16.65-11.58,19.41l-12.32-72.9c-1.81,3.37-2.45,7.25-1.81,11.03l.75,4.44-3.78,7.03c-2.5,4.6-6.96,7.71-12.29,8.45-3.56,.49-7.18-.34-10.33-2.05l-.15-.08,11.35-20.9c8.36-15.39,12.73-32.62,12.73-50.13V0h0C25.06,0,0,25.06,0,55.98v209.7H55.92v-12.81c0-17.51-4.38-34.74-12.73-50.13l-11.35-20.9,.15-.08c3.16-1.71,6.77-2.54,10.33-2.05,5.33,.74,9.79,3.85,12.3,8.45l14.69,27.13c.63-3.76-.01-7.62-1.83-10.98l-5.23-9.66,9.53-56.89h0c7.34,4.89,12.15,16.01,10.68,24.71l-3.4,20.23c-.35,2.09,.86,4.13,2.87,4.81l7.36-43.77h0c8.1,2.86,12.97,11.12,11.55,19.59l-4.26,25.36c-.35,2.09,.86,4.13,2.87,4.81h0s7.35-43.78,7.35-43.78h.01c8.06,2.31,13.1,10.29,11.72,18.56l-4.42,26.41c-.35,2.09,.86,4.12,2.87,4.81h0s7.32-43.7,7.32-43.7c8.12,3.68,12.82,12.34,11.31,21.3l-7.23,43.86c-2.41,14.59-3.61,29.35-3.61,44.14v.59h59.6V0h-59.54Z"></path><g><path class="cls-2" d="M268.22,69.87h55.85v51.03h18.96V.24h-.35c-10.28,0-18.62,8.33-18.62,18.62V52.29h-55.85V.24h-.35c-10.28,0-18.62,8.33-18.62,18.62V120.9h18.96v-51.03Z"></path><path class="cls-2" d="M404.6,29.54c-10.34,0-21.2,4.14-30.34,11.55-8.97,7.41-15.17,20.17-15.17,35.17,0,19.82,11.03,34.82,25,41.54,7.06,3.28,14.48,4.83,22.24,4.83,15.51,0,27.41-4.65,35.85-14.13l-10.52-10c-7.06,5.51-15.34,8.27-24.82,8.27-15,0-26.72-8.44-29.48-23.79h70.85c4.14-37.92-23.27-53.44-43.61-53.44Zm-27.06,39.65c2.76-15,14.65-23.62,27.06-23.62,6.38,0,12.24,2.07,17.59,6.21,5.34,4.14,8.45,10,9.31,17.41h-53.95Z"></path><path class="cls-2" d="M481.2,.24c-10.28,0-18.62,8.33-18.62,18.62V120.9h18.62V.24Z"></path><path class="cls-2" d="M519.16,.24c-10.28,0-18.62,8.33-18.62,18.62V120.9h18.62V.24Z"></path><path class="cls-2" d="M595.9,119.69c10.86-3.96,20.69-10.86,26.38-23.1,5.69-12.24,5.69-28.44,0-40.68-5.69-12.41-15.52-19.31-26.38-23.27-10.51-4.14-21.03-4.14-31.89,0-10.51,3.96-20.51,10.86-26.2,23.27-5.69,12.24-5.69,28.44,0,40.68,5.69,12.24,15.69,19.14,26.2,23.1,10.86,3.96,21.38,3.96,31.89,0Zm-35.68-21.55c-5.69-5.34-8.62-12.58-8.62-21.89s2.93-16.72,8.62-22.06c5.86-5.35,12.41-8.1,19.82-8.1s13.97,2.76,19.65,8.1c5.86,5.34,8.79,12.58,8.79,22.06s-2.93,16.55-8.79,21.89c-5.69,5.35-12.24,7.93-19.65,7.93s-13.96-2.59-19.82-7.93Z"></path><path class="cls-2" d="M289.77,145.05h-40.51v120.66h18.96v-42.06h21.54c13.45,0,24.13-3.45,31.89-10.52,7.76-7.07,11.72-16.55,11.72-28.27s-3.96-21.37-11.9-28.79c-7.76-7.41-18.44-11.03-31.72-11.03Zm-.86,62.05h-20.69v-44.47h20.69c15.86,0,25.51,7.58,25.51,22.24s-9.65,22.24-25.51,22.24Z"></path><path class="cls-2" d="M416.33,190.73h-1.04c-4.14-8.45-15.52-16.38-29.82-16.38-10.35,0-21.03,3.97-29.82,11.38-8.79,7.41-14.65,20.17-14.65,35.16s5.86,27.76,14.65,35.17c8.79,7.41,19.48,11.38,29.82,11.38,14.3,0,25.68-7.93,29.82-16.37h1.04v14.65h18.62v-89.64h-18.62v14.65Zm-8.28,52.23c-5.69,5.35-12.41,7.93-20.17,7.93s-14.3-2.59-20.17-7.93c-5.69-5.34-8.62-12.58-8.62-22.06s2.93-16.72,8.62-22.07c5.86-5.34,12.58-7.93,20.17-7.93s14.48,2.59,20.17,7.93c5.86,5.35,8.79,12.59,8.79,22.07s-2.93,16.72-8.79,22.06Z"></path><path class="cls-2" d="M544.51,153.15c-10.28,0-18.62,8.33-18.62,18.62v4.31h-12.44s-2.93,0-5.35,0c-16.03,0-30.94,8.97-34.91,22.93v-22.93h-18.62v89.64h18.62v-42.23c1.03-9.31,4.66-16.72,10.69-22.41,6.03-5.69,13.89-9.47,24.74-9.47,2.06,0,4.86,0,4.86,0h12.41v54.3c0,15.34,8.27,20.86,22.06,20.86,6.03,0,11.2-1.03,15.51-3.28v-15.34c-3.73,1.36-7.14,2.04-10.36,2.06-4.73,.03-8.6-3.71-8.6-8.45v-50.16h18.96v-15.52h-18.96v-22.93Z"></path><path class="cls-2" d="M627.88,174.35c-19.65,0-28.96,15.17-30.86,20.34v-18.62h-18.62v89.64h18.62v-53.61c.51-4.66,3.1-9.48,7.41-14.13,4.48-4.83,10.17-7.24,17.07-7.24,12.41,0,21.37,8.1,21.37,24.14v50.85h18.62v-51.88c0-12.93-3.28-22.76-9.83-29.48-6.55-6.73-14.48-10-23.79-10Z"></path><path class="cls-2" d="M720.49,174.35c-10.34,0-21.2,4.14-30.33,11.55-8.97,7.41-15.17,20.17-15.17,35.17,0,19.82,11.03,34.82,25,41.54,7.06,3.28,14.48,4.83,22.24,4.83,15.51,0,27.41-4.65,35.85-14.13l-10.52-10c-7.06,5.51-15.34,8.27-24.82,8.27-15,0-26.72-8.44-29.48-23.79h70.85c4.14-37.92-23.27-53.44-43.61-53.44Zm-27.06,39.65c2.76-15,14.65-23.61,27.06-23.61,6.38,0,12.24,2.06,17.59,6.21,5.34,4.14,8.45,10,9.31,17.41h-53.95Z"></path><path class="cls-2" d="M830.97,174.7c-16.03,0-28.27,10.34-32.23,24.31v-22.93h-18.62v89.64h18.62v-42.23c1.03-9.31,4.66-16.72,10.69-22.41,6.03-5.69,13.45-8.62,22.06-8.62,2.07,0,3.62,.17,4.83,.35v-17.76c-1.21-.17-2.93-.34-5.35-.34Z"></path></g></svg> 