<?xml version="1.0" encoding="UTF-8"?> <svg xmlns="http://www.w3.org/2000/svg" xmlns:xlink="http://www.w3.org/1999/xlink" version="1.1" id="Layer_1" x="0px" y="0px" width="1000px" height="1101px" viewBox="0 0 1000 1101" style="enable-background:new 0 0 1000 1101;" xml:space="preserve"> <style type="text/css"> .st0{fill:#EB3F43;} .st1{clip-path:url(#SVGID_00000165229826791417883470000005572378776594669475_);fill:#47423E;} .st2{fill:#47423E;} .st3{clip-path:url(#SVGID_00000097468370655568755490000003286478763215771565_);fill:#47423E;} .st4{clip-path:url(#SVGID_00000116193749759860125620000013806341876628817047_);fill:#47423E;} .st5{clip-path:url(#SVGID_00000093870726403202933610000002643748728922004908_);fill:#47423E;} .st6{clip-path:url(#SVGID_00000002378133911560422540000009458890662745226415_);fill:#47423E;} .st7{clip-path:url(#SVGID_00000134944381784594838130000003887570447361639855_);fill:#47423E;} .st8{clip-path:url(#SVGID_00000134944381784594838130000003887570447361639855_);fill:#096980;} .st9{clip-path:url(#SVGID_00000134944381784594838130000003887570447361639855_);fill:#143C64;} .st10{clip-path:url(#SVGID_00000076586152995021268730000012742693715803019691_);} .st11{clip-path:url(#SVGID_00000083803939672617113110000015814671501303997074_);} .st12{clip-path:url(#SVGID_00000168835920315566682380000012389498667867951287_);} .st13{clip-path:url(#SVGID_00000163760896142629325760000012349959776867120786_);} .st14{fill:#0658BD;} .st15{fill-rule:evenodd;clip-rule:evenodd;fill:#EE3124;} .st16{fill:none;stroke:#FF5451;stroke-width:11.6722;stroke-linecap:round;stroke-linejoin:round;stroke-miterlimit:10;} .st17{fill:none;stroke:url(#SVGID_00000183940691551293017800000009180392329628912012_);stroke-width:11.6722;stroke-linecap:round;stroke-linejoin:round;stroke-miterlimit:10;} .st18{fill:none;stroke:url(#SVGID_00000110445951284368125420000011982860279517928603_);stroke-width:11.6722;stroke-linecap:round;stroke-linejoin:round;stroke-miterlimit:10;} .st19{fill:none;stroke:url(#SVGID_00000107558755798904521980000006813281136993256097_);stroke-width:11.6722;stroke-linecap:round;stroke-linejoin:round;stroke-miterlimit:10;} .st20{fill:#2E2F30;} .st21{fill:#380F47;} .st22{fill:url(#SVGID_00000088855825341805973690000016742932243020969857_);} .st23{fill:url(#SVGID_00000176759638655891655100000001840071975541247629_);} .st24{fill:url(#SVGID_00000140704214040602946840000011890628500447040939_);} .st25{clip-path:url(#SVGID_00000052103864767771499210000014054677491909075885_);} .st26{fill:#7ACBE0;} .st27{fill:#72D1E2;} .st28{fill:#68D7E3;} .st29{fill:#5FDEE5;} .st30{fill:#81C6DF;} .st31{fill:#8ABDDC;} .st32{fill:#92B8DB;} .st33{fill:#9AB2D9;} .st34{fill:#A3ACD8;} .st35{fill:#AAA6D6;} .st36{fill:#B2A0D4;} .st37{fill:#BA9AD2;} .st38{fill:#C295D1;} .st39{fill:#CA8ECF;} .st40{fill:#D289CE;} .st41{fill:#DB81CB;} .st42{fill:#DF7ECB;} .st43{fill:#E778C9;} .st44{fill:#EF72C7;} .st45{fill:#F76DC6;} .st46{fill:#FC68C5;} .st47{fill:#FF66C4;} .st48{fill:#FFFFFF;} .st49{fill:#1D1D1B;} .st50{fill-rule:evenodd;clip-rule:evenodd;} .st51{fill:#A9B4BD;} .st52{fill:#F5333F;} .st53{fill:#FF98D7;} .st54{fill:#FF0006;} .st55{fill:#0057F2;} .st56{fill:#FFCA00;} .st57{clip-path:url(#SVGID_00000032639429790603284050000009151176144636510891_);fill:none;} .st58{clip-path:url(#SVGID_00000158714829099723857680000002446370105356836244_);fill:#FF0006;} .st59{fill:#FDFDFE;} .st60{fill:#01CDCF;} .st61{fill:#101327;} .st62{fill:#1C6E85;} .st63{fill:#051D49;} .st64{fill:url(#XMLID_00000062154414822870996950000000580770426110513561_);} .st65{fill-rule:evenodd;clip-rule:evenodd;fill:#E4002B;} .st66{fill-rule:evenodd;clip-rule:evenodd;fill:#BF2824;} </style> <g> <path class="st0" d="M143.8,79.2c0,22.9-11.5,41-28.9,41c-17,0-29.1-17.3-29.1-41.3c0-22.9,11.5-41,28.9-41 C131.6,37.9,143.8,55.3,143.8,79.2 M162.8,78.6c0-25.8-19.7-46.2-47.9-46.2c-26,0-48.1,18.6-48.1,47.2c0,25.8,19.7,46.2,47.9,46.2 C140.7,125.8,162.8,107.2,162.8,78.6 M204.7,87.9c0,9.1-4.1,16.8-10.6,16.8c-6.2,0-11.1-6.9-11.1-17.3c0-8.9,4.1-16.8,10.7-16.8 C199.8,70.6,204.7,77.4,204.7,87.9 M248.8,52.3c0-6.5-5.8-11.3-16.6-11.3c-14.8,0-26.1,9.6-26.1,24.2c0,1.2,0.1,2.1,0.1,3 c-3.4-1.4-7.5-2.3-12-2.3c-11.6,0-25.6,7.1-25.6,22.5c0,7.1,4,13.7,11,17.6c-10.4,1.4-16.3,7-16.3,15.7c0,8.8,7,15.1,20.1,13.6 l18.9-2.3c9.4-1.2,12.6,2.2,12.6,7.1c0,8.5-8,15.4-20.8,15.4c-10.2,0-14-3.6-14-8.8c0-0.8,0.1-1.8,0.1-2.6c0-3.1-1.9-5.3-5-5.4 c-3.6,0-5.8,2.6-5.8,6.3c0,8.5,8.2,16.2,24.9,16.2c18.8,0,30.7-12.2,30.7-26.1c0-11.1-8.9-17.2-21.2-15.7l-21.6,2.7 c-7.1,0.9-9.3-1.4-9.3-5c0-4.3,4.7-7.6,20.8-7.6h0.3c11.8,0,25.6-7.1,25.6-22.5c0-4.9-1.8-9.4-5.2-13.1c-1.2-2.3-1.6-4.7-1.6-8 c0-11.4,7.8-17.9,15.8-17.9c3.4,0,4.4,0.5,4.4,2.8c0,0.6-0.1,1.2-0.1,1.9c0,4,3.4,7.8,8.2,7.8C245.6,60.5,248.8,56.6,248.8,52.3 M288.9,120.3l-6.3-0.6c-0.9-0.1-1.6-0.8-1.6-1.9V28.1l-22.8,5.8v2.7l6.5,2.1c1,0.4,1.4,1.2,1.4,2.2v76.4c0,1.4-1.2,2.5-2.8,2.5 l-5.8,0.1l-6.1-0.1c-1.7,0-2.8-1-2.8-2.5V65.6l-22.8,5.8v2.7l6.5,2.1c1,0.4,1.4,1.2,1.4,2.2v39.2c0,1.2-0.6,1.8-1.6,1.9l-5.3,0.6 v4.1h30.2h1.2h30.8V120.3z M407,71.8v-4h-22.1v3.9l5.2,1c1.8,0.4,2.3,1.8,1.2,4.7l-11.9,28.7c-0.5,1.2-1.2,1.2-1.6,0l-11.1-28.7 c-1.2-3-0.5-4.3,1.3-4.7l5.2-1v-3.9h-26h-2.3h-17.7v3.9l5.2,1c1.8,0.4,2.5,1.8,1.3,4.7L322,107.7c-0.5,1.2-1.2,1.2-1.6,0 l-11.6-30.3c-1-3-0.5-4.3,1.3-4.7l5.2-1v-3.9H286v4l2.8,0.6c1.9,0.4,3.1,1.4,3.9,3.2l19.8,48.7h8.9l19.8-48.7 c1-2.6,2.2-3.6,4.3-3.6h0.8c1.7,0,3,0.6,4,3.1l20.7,50.5l-5.6,13.2c-3.6,8.8-6.3,10.4-9.7,10.4c-1.4,0-3-0.3-4.5-0.3 c-4,0-6.5,2.8-6.5,6c0,3.5,2.8,6,7.4,6c6.5,0,12.8-5.2,18.1-17.6l28.2-66.1c1.3-3,3-4.3,5.7-4.8L407,71.8z"></path> </g> <g> <g> <defs> <rect id="SVGID_1_" x="477.8" y="48.7" width="516.8" height="91.9"></rect> </defs> <clipPath id="SVGID_00000163769311880546891710000011033282614958062011_"> <use xlink:href="#SVGID_1_" style="overflow:visible;"></use> </clipPath> <path style="clip-path:url(#SVGID_00000163769311880546891710000011033282614958062011_);fill:#47423E;" d="M622,128.8h6.7 c0.8,0,1.3-0.5,1.3-1.3v-0.4c0-0.8-0.5-1.3-1.3-1.3H622V128.8z M622,136.4h-2.6v-12.8h9.2c2.3,0,3.8,1.5,3.8,3.8 c0,2.2-1.5,3.7-3.8,3.7H622V136.4z"></path> </g> <path class="st2" d="M662.2,131.5l-2.3-5.6h-0.3l-2.3,5.6H662.2z M652.6,136.4l5.3-12.8h3.8l5.3,12.8h-2.8l-1-2.6h-6.8l-1,2.6 H652.6z"></path> <g> <defs> <rect id="SVGID_00000026849833357448330140000011592781987313810095_" x="477.8" y="48.7" width="516.8" height="91.9"></rect> </defs> <clipPath id="SVGID_00000111149299754007154270000006024681110899665307_"> <use xlink:href="#SVGID_00000026849833357448330140000011592781987313810095_" style="overflow:visible;"></use> </clipPath> <path style="clip-path:url(#SVGID_00000111149299754007154270000006024681110899665307_);fill:#47423E;" d="M699,128.8 c0.8,0,1.3-0.5,1.3-1.3v-0.4c0-0.8-0.5-1.3-1.3-1.3h-6.7v2.9H699z M689.8,123.6h9.2c2.3,0,3.8,1.5,3.8,3.8c0,2-1.3,3.5-3.4,3.7 c0.2,0.2,0.4,0.4,0.5,0.6l2.9,4.7H700l-3.3-5.3h-4.4v5.3h-2.6V123.6z"></path> </g> <polygon class="st2" points="725.3,123.6 738.1,123.6 738.1,125.9 733,125.9 733,136.4 730.4,136.4 730.4,125.9 725.3,125.9 "></polygon> <polygon class="st2" points="763.8,127.6 763.8,136.4 761.2,136.4 761.2,123.6 763.6,123.6 771.5,132.4 771.5,123.6 774.1,123.6 774.1,136.4 771.8,136.4 "></polygon> <polygon class="st2" points="800.7,125.9 800.7,128.8 808.1,128.8 808.1,131.1 800.7,131.1 800.7,134.1 810.7,134.1 810.7,136.4 798.1,136.4 798.1,123.6 810.7,123.6 810.7,125.9 "></polygon> <g> <defs> <rect id="SVGID_00000067195251377722417910000000250664472710520460_" x="477.8" y="48.7" width="516.8" height="91.9"></rect> </defs> <clipPath id="SVGID_00000060744323039360404870000002721250796952179334_"> <use xlink:href="#SVGID_00000067195251377722417910000000250664472710520460_" style="overflow:visible;"></use> </clipPath> <path style="clip-path:url(#SVGID_00000060744323039360404870000002721250796952179334_);fill:#47423E;" d="M843.6,128.8 c0.8,0,1.3-0.5,1.3-1.3v-0.4c0-0.8-0.5-1.3-1.3-1.3h-6.7v2.9H843.6z M834.3,123.6h9.2c2.3,0,3.8,1.5,3.8,3.8c0,2-1.3,3.5-3.4,3.7 c0.2,0.2,0.4,0.4,0.5,0.6l2.9,4.7h-2.9l-3.3-5.3h-4.4v5.3h-2.6V123.6z"></path> <path style="clip-path:url(#SVGID_00000060744323039360404870000002721250796952179334_);fill:#47423E;" d="M880,132.5 c0-1-1.1-1.5-3.7-1.5c-4,0-5.8-1.1-5.8-3.7c0-2.6,2-4,5.9-4c3.5,0,5.9,1.6,5.9,4.1h-2.6c0-1.1-1.3-1.8-3.3-1.8 c-2.2,0-3.3,0.6-3.3,1.7c0,1,1,1.4,3.5,1.4c4.2,0,6,1.2,6,3.8c0,2.7-2.2,4.2-6.1,4.2c-3.7,0-6.1-1.6-6.1-4.1h2.6 c0,1.1,1.4,1.8,3.6,1.8C878.8,134.3,880,133.7,880,132.5"></path> <path style="clip-path:url(#SVGID_00000060744323039360404870000002721250796952179334_);fill:#47423E;" d="M893.9,126.2 c0.2,0,0.5-0.1,0.5-0.4c0-0.4-0.3-0.4-0.5-0.4h-0.8v0.9H893.9z M892.6,124.9h1.5c0.5,0,0.9,0.3,0.9,0.8c0,0.4-0.2,0.7-0.6,0.8 l0.7,1.1h-0.6l-0.6-1.1h-0.6v1.1h-0.5V124.9z"></path> <path style="clip-path:url(#SVGID_00000060744323039360404870000002721250796952179334_);fill:#47423E;" d="M896.8,126.2h-0.2 c0,1.6-1.3,2.9-2.9,2.9c-1.6,0-2.9-1.3-2.9-2.9c0-1.6,1.3-2.9,2.9-2.9c1.6,0,2.9,1.3,2.9,2.9H896.8h0.2c0-1.8-1.5-3.3-3.3-3.3 c-1.8,0-3.3,1.5-3.3,3.3c0,1.8,1.5,3.3,3.3,3.3c1.8,0,3.3-1.5,3.3-3.3H896.8z"></path> </g> <path class="st2" d="M632.4,86h14.3l-7.2-18.1L632.4,86z M649.2,92.3H630l-3.7,9.3h-7.5l17.3-42.9h6.6l17.8,42.9h-7.6L649.2,92.3z"></path> <g> <defs> <rect id="SVGID_00000087377887821463034500000000321054861596363434_" x="477.8" y="48.7" width="516.8" height="91.9"></rect> </defs> <clipPath id="SVGID_00000163780518063332904330000010181073213236427667_"> <use xlink:href="#SVGID_00000087377887821463034500000000321054861596363434_" style="overflow:visible;"></use> </clipPath> <path style="clip-path:url(#SVGID_00000163780518063332904330000010181073213236427667_);fill:#47423E;" d="M661.1,85.1 c0-9.9,7.5-17.3,17.4-17.3c8.2,0,14.6,5,16.4,12.6h-6.7c-1.7-3.8-5.4-6.1-9.7-6.1c-6,0-10.4,4.7-10.4,10.9 c0,6.1,4.5,10.9,10.4,10.9c4.3,0,7.8-2.3,9.7-6.4h6.9c-1.8,7.7-8.3,12.9-16.5,12.9C668.6,102.5,661.1,95,661.1,85.1"></path> <path style="clip-path:url(#SVGID_00000163780518063332904330000010181073213236427667_);fill:#47423E;" d="M697.6,85.1 c0-9.9,7.5-17.3,17.4-17.3c8.2,0,14.6,5,16.4,12.6h-6.8c-1.7-3.8-5.4-6.1-9.7-6.1c-6,0-10.4,4.7-10.4,10.9 c0,6.1,4.5,10.9,10.4,10.9c4.3,0,7.8-2.3,9.7-6.4h6.9c-1.8,7.7-8.3,12.9-16.5,12.9C705.1,102.5,697.6,95,697.6,85.1"></path> <path style="clip-path:url(#SVGID_00000163780518063332904330000010181073213236427667_);fill:#47423E;" d="M741.1,81.9h20 c-1.2-5-5-8-10.1-8C745.9,73.9,742.2,77,741.1,81.9 M767.9,85.2c0,0.7-0.1,1.5-0.1,2.2h-26.9c0.9,5.4,4.7,8.7,10.1,8.7 c4,0,7.2-1.8,8.9-4.9h7.2c-2.6,7-8.7,11.2-16.1,11.2c-9.7,0-17-7.5-17-17.4c0-9.9,7.3-17.4,17-17.4 C761.2,67.8,767.9,75.6,767.9,85.2L767.9,85.2z"></path> </g> <rect x="773.4" y="56.7" class="st2" width="6.8" height="45"></rect> <g> <defs> <rect id="SVGID_00000016056373947079415560000017869414430306019005_" x="477.8" y="48.7" width="516.8" height="91.9"></rect> </defs> <clipPath id="SVGID_00000178184760816058709100000016536136989941689778_"> <use xlink:href="#SVGID_00000016056373947079415560000017869414430306019005_" style="overflow:visible;"></use> </clipPath> <path style="clip-path:url(#SVGID_00000178184760816058709100000016536136989941689778_);fill:#47423E;" d="M792.8,81.9h20 c-1.2-5-5-8-10.1-8C797.7,73.9,794,77,792.8,81.9 M819.6,87.4h-26.9c0.9,5.4,4.7,8.7,10.1,8.7c4,0,7.2-1.8,8.9-4.9h7.2 c-2.6,7-8.7,11.2-16.1,11.2c-9.7,0-17-7.5-17-17.4c0-9.9,7.3-17.4,17-17.4c10.1,0,16.9,7.8,16.9,17.5 C819.7,86,819.7,86.7,819.6,87.4"></path> <path style="clip-path:url(#SVGID_00000178184760816058709100000016536136989941689778_);fill:#47423E;" d="M844.1,68.4v6.4h-3.6 c-5.6,0-8.4,3.2-8.4,9.2v17.7h-6.8V68.6h4.6l1.2,4.5c2.4-3.1,5.6-4.7,10.1-4.7H844.1z"></path> <path style="clip-path:url(#SVGID_00000178184760816058709100000016536136989941689778_);fill:#47423E;" d="M872.9,85.1 c0-6.2-4.6-10.9-10.8-10.9c-6.2,0-10.9,4.7-10.9,10.9c0,6.2,4.6,10.9,10.9,10.9C868.4,96,872.9,91.4,872.9,85.1 M879.7,68.5v33.1 h-5.5l-0.7-4c-3,3-7.2,4.9-12,4.9c-9.9,0-17.3-7.5-17.3-17.4c0-10,7.4-17.4,17.3-17.4c4.9,0,9.1,1.8,12.1,4.9l0.8-4.1H879.7z"></path> <path style="clip-path:url(#SVGID_00000178184760816058709100000016536136989941689778_);fill:#47423E;" d="M906.3,95.5v6.2h-5.1 c-7.3,0-11.7-4.5-11.7-11.8V74.4h-5.9v-1.3l11.5-12.2h1.2v7.7h9.9v5.8h-9.8v15c0,4,2.2,6.2,6.2,6.2H906.3z"></path> </g> <path class="st2" d="M911.2,68.6h6.8v33.1h-6.8V68.6z M911.1,56.4h7v7h-7V56.4z"></path> <g> <defs> <rect id="SVGID_00000139983805146540120510000005540633789934439310_" x="477.8" y="48.7" width="516.8" height="91.9"></rect> </defs> <clipPath id="SVGID_00000006687971363417074050000017453599450021456825_"> <use xlink:href="#SVGID_00000139983805146540120510000005540633789934439310_" style="overflow:visible;"></use> </clipPath> <path style="clip-path:url(#SVGID_00000006687971363417074050000017453599450021456825_);fill:#47423E;" d="M952,85.1 c0-6.3-4.5-10.9-10.8-10.9c-6.3,0-10.8,4.5-10.8,10.9c0,6.3,4.5,10.9,10.8,10.9C947.5,96,952,91.5,952,85.1 M941.2,102.5 c-10.1,0-17.7-7.4-17.7-17.4c0-10,7.6-17.4,17.7-17.4c10.1,0,17.7,7.4,17.7,17.4C959,95.1,951.4,102.5,941.2,102.5L941.2,102.5z"></path> <path style="clip-path:url(#SVGID_00000006687971363417074050000017453599450021456825_);fill:#47423E;" d="M994.6,81.7v20h-6.8 V83.1c0-6-2.6-9.2-7.6-9.2c-5.2,0-8.9,4.2-8.9,10v17.7h-6.8V68.6h4.8l1.3,4.6c2.5-3.3,6.6-5.4,11.5-5.4 C989.8,67.8,994.6,73.6,994.6,81.7"></path> <path style="clip-path:url(#SVGID_00000006687971363417074050000017453599450021456825_);fill:#096980;" d="M482.4,132.1 l67.1-66.8l39.8,39.5c5.8-5.5,6-14.6,0.4-20.3l-32-32.5c-4.4-4.4-11.5-4.4-15.9,0L483,108.5C476.3,114.9,476.1,125.4,482.4,132.1"></path> <path style="clip-path:url(#SVGID_00000006687971363417074050000017453599450021456825_);fill:#143C64;" d="M586.1,108.3l-2.6-2.6 c-4.4-4.4-11.6-4.4-16.1,0l-17.7,17.7l-26-25.7l-3.6,3.6c-3.9,3.9-3.9,10.2,0,14.1l21.6,21.7c4.3,4.3,11.3,4.3,15.6,0L586.1,108.3 z"></path> <path style="clip-path:url(#SVGID_00000006687971363417074050000017453599450021456825_);fill:#143C64;" d="M568.2,137.2 c0.2,0,0.5-0.1,0.5-0.4c0-0.4-0.3-0.4-0.5-0.4h-0.8v0.9H568.2z M566.9,135.9h1.5c0.5,0,0.9,0.3,0.9,0.8c0,0.4-0.2,0.7-0.6,0.8 l0.7,1.1h-0.6l-0.6-1.1h-0.6v1.1h-0.5V135.9z"></path> <path style="clip-path:url(#SVGID_00000006687971363417074050000017453599450021456825_);fill:#143C64;" d="M571,137.3h-0.2 c0,1.6-1.3,2.9-2.9,2.9c-1.6,0-2.9-1.3-2.9-2.9c0-1.6,1.3-2.9,2.9-2.9c1.6,0,2.9,1.3,2.9,2.9H571h0.2c0-1.8-1.5-3.3-3.3-3.3 c-1.8,0-3.3,1.5-3.3,3.3c0,1.8,1.5,3.3,3.3,3.3c1.8,0,3.3-1.5,3.3-3.3H571z"></path> </g> <g> <defs> <path id="SVGID_00000174585769680263858040000017516587618008665499_" d="M589.7,84.5c0.3,0.3,0.5,0.6,0.8,0.9 c-0.3-0.4-0.6-0.7-1-1.1L560.6,55L589.7,84.5z"></path> </defs> <clipPath id="SVGID_00000137854443296804516310000016592782819463169699_"> <use xlink:href="#SVGID_00000174585769680263858040000017516587618008665499_" style="overflow:visible;"></use> </clipPath> <g style="clip-path:url(#SVGID_00000137854443296804516310000016592782819463169699_);"> <defs> <rect id="SVGID_00000063630026711575285390000010418584433400380829_" x="559.1" y="54.2" width="32.5" height="32.5"></rect> </defs> <clipPath id="SVGID_00000119825066718483311090000012774491497814582442_"> <use xlink:href="#SVGID_00000063630026711575285390000010418584433400380829_" style="overflow:visible;"></use> </clipPath> <g style="clip-path:url(#SVGID_00000119825066718483311090000012774491497814582442_);"> <image style="overflow:visible;" width="37" height="37" transform="matrix(0.8777 0 0 -0.8777 559.1328 86.6367)"> </image> </g> </g> </g> <g> <defs> <path id="SVGID_00000007387292824526770710000015391650751799020700_" d="M549.5,65.3l39.8,39.5l0.5-0.5c5-5.3,5.2-13.4,0.7-18.9 c-0.2-0.3-0.5-0.6-0.8-0.9L560.6,55l-0.2-0.2L549.5,65.3z"></path> </defs> <clipPath id="SVGID_00000027599812277906960290000001999790599639757185_"> <use xlink:href="#SVGID_00000007387292824526770710000015391650751799020700_" style="overflow:visible;"></use> </clipPath> <g style="clip-path:url(#SVGID_00000027599812277906960290000001999790599639757185_);"> <defs> <rect id="SVGID_00000078742498078346128520000016509284279851761588_" x="548.6" y="53.3" width="46.5" height="52.7"></rect> </defs> <clipPath id="SVGID_00000117660010489761249250000003725500485484159112_"> <use xlink:href="#SVGID_00000078742498078346128520000016509284279851761588_" style="overflow:visible;"></use> </clipPath> <g style="clip-path:url(#SVGID_00000117660010489761249250000003725500485484159112_);"> <image style="overflow:visible;" width="53" height="60" transform="matrix(0.8777 0 0 -0.8777 548.6006 105.9463)"> </image> </g> </g> </g> <g> <defs> <path id="SVGID_00000152947499931952129030000001242861007228865160_" d="M520.1,101.4C520.1,101.4,520.2,101.4,520.1,101.4 l0.3-0.3C520.3,101.2,520.2,101.3,520.1,101.4"></path> </defs> <clipPath id="SVGID_00000127739388110177177420000008669590094527697310_"> <use xlink:href="#SVGID_00000152947499931952129030000001242861007228865160_" style="overflow:visible;"></use> </clipPath> <g style="clip-path:url(#SVGID_00000127739388110177177420000008669590094527697310_);"> <defs> <rect id="SVGID_00000159457713524992259870000016184631622226951815_" x="518.8" y="99.8" width="2.6" height="2.6"></rect> </defs> <clipPath id="SVGID_00000101063440279590434140000011080703572136757427_"> <use xlink:href="#SVGID_00000159457713524992259870000016184631622226951815_" style="overflow:visible;"></use> </clipPath> <g style="clip-path:url(#SVGID_00000101063440279590434140000011080703572136757427_);"> <image style="overflow:visible;" width="3" height="3" transform="matrix(0.8777 0 0 -0.8777 518.7587 102.4351)"> </image> </g> </g> </g> <g> <defs> <path id="SVGID_00000119083811394423481850000013199623780917070208_" d="M520.5,101.1C520.5,101.1,520.5,101.1,520.5,101.1 l-0.3,0.3c0,0,0,0-0.1,0.1c-3.7,3.9-3.8,10.1,0.1,14l18.7,18.8l10.9-10.7l-26-25.7L520.5,101.1z"></path> </defs> <clipPath id="SVGID_00000178885540697527803710000004761828476425763004_"> <use xlink:href="#SVGID_00000119083811394423481850000013199623780917070208_" style="overflow:visible;"></use> </clipPath> <g style="clip-path:url(#SVGID_00000178885540697527803710000004761828476425763004_);"> <defs> <rect id="SVGID_00000038392168891947537450000016494887166089503896_" x="516.1" y="96.3" width="35.1" height="39.5"></rect> </defs> <clipPath id="SVGID_00000132769680850559999270000006768211464064517800_"> <use xlink:href="#SVGID_00000038392168891947537450000016494887166089503896_" style="overflow:visible;"></use> </clipPath> <g transform="matrix(1 0 0 1 0 0)" style="clip-path:url(#SVGID_00000132769680850559999270000006768211464064517800_);"> <image style="overflow:visible;" width="40" height="45" transform="matrix(0.8777 0 0 -0.8777 516.1254 135.7885)"> </image> </g> </g> </g> </g> <g> <g> <path class="st14" d="M24,273.5c142,0,283.9,0,425.8,0c0,27.3,0,54.5,0,81.8c-0.5,0-1,0-1.5,0c-140.9,0-281.9,0-422.8,0 c-0.2,0-0.4,0-0.6,0c-0.7,0.1-1-0.2-0.9-0.9c0-0.2,0-0.4,0-0.6c0-26.3,0-52.6,0-79C24,274.5,24,274.1,24,273.5z M29,350.4 c0.5,0,1,0,1.4,0c137.6,0,275.3,0,412.9,0c1.7,0,1.5,0.2,1.5-1.5c0-22.8,0-45.7,0-68.5c0-1.9,0-1.9-1.9-1.9 c-137.4,0-274.8,0-412.2,0c-0.3,0-0.6,0-0.8,0c-0.3,0-0.6,0-0.9,0.1C29,302.5,29,326.4,29,350.4z"></path> <path class="st14" d="M41.4,257.7c-9.5,0-17.3-7.8-17.3-17.3c0.1-9.3,7.5-17.2,17.4-17.2c9.9,0.1,17.2,8,17.2,17.2 C58.8,250,51,257.7,41.4,257.7z M52.9,245.4c1.9-3.3,1.8-9.9-2.8-14.1c-4.7-4.2-11.2-4.6-16.2-0.9c-4.9,3.6-6.4,10.2-3.8,15.6 c2.7,5.6,9,7.7,12.5,6.9c-2.3-3.8-2.1-7.1,0.7-9.3c1.3-1,2.7-1.5,4.3-1.4C49.9,242.3,51.6,243.4,52.9,245.4z"></path> <path class="st14" d="M98.4,240.5c0,9.5-7.7,17.2-17.2,17.2c-9.6,0-17.3-7.7-17.3-17.5c0-9.3,7.9-17.1,17.3-17 C91.5,223.3,98.5,231.8,98.4,240.5z M92.6,245.5c2.4-5.3,0.8-11.4-3.9-15.1c-4.5-3.5-11-3.4-15.4,0.2c-4.6,3.7-6,9.9-3.6,15.2 c2.4,5.3,8.3,7.9,12.6,7.1c-1.1-1.5-1.9-3.2-1.6-5.1c0.2-1.9,1.1-3.5,2.7-4.6c1.2-0.8,2.6-1.2,4.1-1.1 C89.8,242.4,91.4,243.6,92.6,245.5z"></path> <path class="st14" d="M49.7,328c-0.7,2.1-0.7,2.1-2.9,2.1c-1,0-2,0-3,0c-0.1,0-0.1-0.1-0.3-0.1c0-11.4,0-22.9,0-34.4 c2.2,0,4.4,0,6.7,0c0,4,0,8,0,12.2c0.3-0.2,0.5-0.3,0.6-0.4c2.5-2.2,5.4-2.6,8.5-1.6c2.5,0.7,4,2.6,4.9,4.9 c1.1,2.7,1.3,5.5,1.1,8.3c-0.2,2.4-0.7,4.6-1.8,6.8c-1.1,2-2.6,3.7-4.9,4.4c-3,0.9-5.9,0.6-8.3-1.7 C50.1,328.3,49.9,328.1,49.7,328z M50.3,318.4c0,1.4,0,2.7,0,4.1c0,0.3,0.1,0.7,0.3,1c2,2.6,5.8,2.1,7-1c0.2-0.4,0.3-0.8,0.4-1.2 c0.5-2,0.4-4.1,0.2-6.2c-0.1-0.7-0.3-1.4-0.6-2.1c-0.7-1.8-2.1-2.5-4-2.1c-1.8,0.3-3.3,2-3.3,3.6 C50.3,315.8,50.3,317.1,50.3,318.4z"></path> <path class="st14" d="M358.3,328c-0.8,2.1-0.8,2.1-3,2.1c-1,0-2.1,0-3.2,0c0-11.5,0-22.9,0-34.4c2.2,0,4.4,0,6.7,0c0,4,0,8,0,12.2 c0.3-0.2,0.5-0.3,0.7-0.5c2.5-2.5,7.2-2.5,9.6-1.1c1.8,1.1,3.1,2.6,3.7,4.5c1.8,5.1,1.6,10.1-0.8,15c-1,2.1-2.7,3.7-5,4.4 c-3,0.9-5.8,0.6-8.2-1.7C358.6,328.3,358.5,328.1,358.3,328z M358.8,318.5c0,1.3,0,2.6,0,3.9c0,0.4,0.1,0.8,0.3,1.1 c1.1,1.3,2.6,1.8,4.3,1.5c1.5-0.2,2.3-1.3,2.7-2.6c1-3,1-6.1,0.2-9.2c-0.6-2-2-2.8-4.1-2.4c-1.8,0.3-3.4,2-3.4,3.8 C358.8,315.9,358.8,317.2,358.8,318.5z"></path> <path class="st14" d="M224.8,330.1c-1.6,0-3.2,0-4.7,0c-0.5,0-0.8-0.3-1-0.7c-0.2-0.5-0.4-1.1-0.7-1.9c-0.3,0.4-0.5,0.7-0.8,1 c-2.6,2.7-8.2,2.7-10.8,0.4c-1.6-1.4-2.6-3.1-3.1-5.1c-1-4.3-0.9-8.5,0.7-12.6c1-2.5,2.6-4.5,5.3-5.4c2.7-0.9,5.3-0.7,7.6,1 c0.2,0.2,0.4,0.3,0.8,0.5c0-4,0-7.8,0-11.7c2.3,0,4.5,0,6.7,0C224.8,307,224.8,318.5,224.8,330.1z M218.1,317.5c0-1.3,0-2.6,0-3.9 c0-0.3,0-0.8-0.2-1c-1.1-1.3-2.4-1.9-4.1-1.7c-1.5,0.1-2.4,1.1-2.9,2.4c-1.2,3.2-1.2,6.4-0.2,9.6c0.6,1.9,2,2.6,3.9,2.2 c2-0.3,3.5-2.1,3.5-4.1C218.1,319.8,218.1,318.7,218.1,317.5z"></path> <path class="st14" d="M405.2,338.1c0.8-1.6,1.5-3.2,2.2-4.7c1.3,0.2,2.4,0.5,3.6,0.6c1.7,0.1,2.8-0.7,3.5-2.2 c0.2-0.4,0.3-0.8,0.1-1.4c-2.5-7.1-5-14.2-7.5-21.3c-0.4-1-0.7-2-1.1-3.2c0.5,0,0.9-0.1,1.3-0.1c1.7,0,3.4,0,5.2,0 c0.5,0,0.8,0.1,1,0.6c1.3,5.2,2.7,10.5,4.1,15.7c0.1,0.4,0.2,0.8,0.3,1.1c1.4-5.3,2.9-10.8,4.3-16.2c0.3-1.3,0.3-1.3,1.7-1.3 c1.8,0,3.6,0,5.5,0c-0.1,0.3-0.1,0.6-0.2,0.8c-2.7,8-5.3,16-8,24c-0.5,1.5-1.2,3-1.9,4.4c-1.9,3.7-5.1,5.2-9.7,4.7 C407.9,339.6,406.4,339.1,405.2,338.1z"></path> <path class="st14" d="M402.6,318c-0.1,3.2-0.8,6.1-2.8,8.6c-1.9,2.4-4.4,3.7-7.4,3.9c-1.7,0.1-3.3,0.1-5-0.4 c-3.4-1-5.7-3.2-6.8-6.5c-1.3-3.7-1.3-7.3,0-11c1.7-4.7,5.8-7.4,10.4-7.3c2.5,0,4.8,0.4,6.8,1.8c2.5,1.7,3.8,4.2,4.3,7.2 C402.5,315.5,402.5,316.8,402.6,318z M386.7,317.9c0.1,0,0.1,0,0.2,0c0,0.7,0,1.5,0.1,2.1c0.2,1.1,0.5,2.2,1,3.2 c1.4,2.5,4.7,2.6,6.3,0.2c0.7-1.1,1-2.3,1.2-3.6c0.3-2.4,0.2-4.7-0.9-6.9c-0.6-1.2-1.5-1.9-2.9-2.1c-2-0.2-3.6,0.7-4.2,2.9 C387,315.1,386.9,316.5,386.7,317.9z"></path> <path class="st14" d="M142.3,330.6c-4.9,0.2-10.3-2.7-11.1-10.2c-0.4-3-0.1-6,1.2-8.8c2-4.1,5.2-6.2,9.8-6.3c1.3,0,2.7,0.1,4,0.4 c3.2,0.8,5.4,2.9,6.6,6c1.3,3.5,1.5,7.2,0.4,10.8C151.5,328.4,146.9,330.8,142.3,330.6z M146.8,318.1c0-2.2-0.2-3.6-0.8-4.8 c-0.6-1.2-1.4-2.2-2.9-2.4c-2.2-0.3-3.8,0.8-4.5,3.1c-0.7,2.2-0.7,4.5-0.4,6.7c0.2,1.1,0.5,2.2,1.2,3.1c0.6,0.8,1.3,1.2,2.3,1.3 c1.9,0.2,3.3-0.5,4.1-2.3C146.7,321.2,146.9,319.6,146.8,318.1z"></path> <path class="st14" d="M243,330.6c-1.4,0.1-2.9-0.2-4.3-0.7c-2.6-1-4.6-2.8-5.6-5.4c-1.7-4.2-1.8-8.6,0.1-12.8 c1.9-4.2,5.2-6.3,9.8-6.3c1.3,0,2.6,0.1,3.8,0.4c3.6,0.9,5.9,3.3,7.1,6.8c1,3.2,1.1,6.4,0.3,9.7 C252.6,327.8,248.2,330.8,243,330.6z M247.6,318.3c0-2.1-0.2-3.7-1-5.3c-0.8-1.6-2.2-2.3-3.9-2.1c-1.8,0.2-2.7,1.5-3.2,3 c-0.8,2.2-0.7,4.5-0.4,6.7c0.1,1.1,0.5,2.2,1.2,3.1c0.6,0.8,1.4,1.3,2.4,1.4c2,0.2,3.4-0.6,4.2-2.6 C247.4,321,247.6,319.5,247.6,318.3z"></path> <path class="st14" d="M312,325.1c0.2,1.2,0.5,2.5,0.7,3.7c0,0.2-0.2,0.6-0.4,0.8c-2,1.3-6.5,1.5-7.9-1.3c0-0.1-0.1-0.2-0.2-0.3 c-0.1,0.1-0.3,0.2-0.4,0.3c-2.7,2.6-6,2.8-9.4,1.9c-2.5-0.7-4-2.5-4.4-5c-0.5-2.8,0.3-5.2,2.7-6.9c2.5-1.7,5.2-2,8.1-1.6 c0.7,0.1,1.5,0.3,2.3,0.4c0.1-1.8,0-3.5-0.8-5c-1-1.9-3.7-1.8-4.8-0.8c-0.4,0.3-0.5,0.9-0.7,1.5c-0.1,0.3,0,0.7,0,1.1 c-1.6,0.3-3.1,0.6-4.7,0.9c-0.5,0.1-0.7-0.1-0.8-0.5c-0.7-2.4-0.4-5.2,2.1-7.1c1.2-0.8,2.4-1.3,3.9-1.5c2.1-0.3,4.1-0.4,6.2,0.2 c3.1,0.8,4.9,2.9,5.5,6c0.3,1.5,0.5,3,0.5,4.5c0.1,2,0,4.1,0,6.1c0,0.2,0,0.5,0,0.7C309.7,325,310,325.3,312,325.1z M303.3,322.5 c0-0.5,0-0.9,0-1.3c0-0.2-0.2-0.6-0.4-0.6c-1.8-0.5-3.6-0.7-5.3,0.4c-1,0.6-1.3,1.6-1.1,2.7c0.2,1.1,0.7,1.8,1.8,2.1 c1.3,0.4,2.6,0.1,3.7-0.7C303,324.5,303.6,323.6,303.3,322.5z"></path> <path class="st14" d="M181.6,330c-2.3,0-4.4,0-6.7,0c0-0.4-0.1-0.7-0.1-1.1c0-4,0-8,0-12c0-1.1-0.1-2.2-0.2-3.2 c-0.3-2.5-2.1-3.2-4.1-2.6c-1.7,0.5-2.9,2.1-2.9,3.9c0,4.6,0,9.1,0,13.7c0,0.4,0,0.8,0,1.2c-2.3,0-4.5,0-6.8,0c0-8,0-16,0-24.1 c1.1,0,2.3,0,3.4,0c0.7,0,1.7-0.2,2.2,0.2c0.5,0.4,0.5,1.3,0.8,2.1c0,0,0,0.1,0.1,0.2c0.5-0.5,1-0.9,1.5-1.3 c2.8-2,5.8-2.2,8.8-0.8c2.1,0.9,3,2.9,3.4,4.9c0.3,1.5,0.5,3,0.5,4.5c0.1,4.6,0,9.2,0,13.8C181.6,329.5,181.6,329.7,181.6,330z"></path> <path class="st14" d="M324.7,330c-2.3,0-4.5,0-6.7,0c0-8,0-16,0-24.2c1.1,0,2.3,0,3.4,0c2.4,0,2.4,0,3,2.4c0.4-0.4,0.7-0.8,1-1.1 c1.7-1.8,3.9-2.1,6.2-1.7c1.4,0.3,2.4,1.2,2.9,2.6c0.8,2,0.7,4.1,0.3,6.1c-0.1,0.5-0.4,0.5-0.8,0.5c-1.5-0.1-3-0.2-4.7-0.4 c0-0.5,0-1,0-1.5c0-0.7-0.3-1.3-1-1.5c-0.7-0.3-1.4-0.1-2,0.5c-1.1,1.2-1.7,2.5-1.7,4.1c0,4.3,0,8.6,0,12.9 C324.7,329.1,324.7,329.5,324.7,330z"></path> <path class="st14" d="M94.1,330c-2.3,0-4.4,0-6.6,0c0-11.5,0-22.9,0-34.4c2.2,0,4.4,0,6.6,0C94.1,307.1,94.1,318.5,94.1,330z"></path> <path class="st14" d="M102.4,330c0-11.5,0-22.9,0-34.4c2.2,0,4.3,0,6.6,0c0,11.4,0,22.8,0,34.4C106.9,330,104.7,330,102.4,330z"></path> <path class="st14" d="M261.7,295.6c2.2,0,4.4,0,6.6,0c0,11.5,0,22.9,0,34.4c-2.2,0-4.3,0-6.6,0 C261.7,318.6,261.7,307.1,261.7,295.6z"></path> <path class="st14" d="M283.3,330c-2.2,0-4.3,0-6.6,0c0-11.5,0-22.9,0-34.4c2.2,0,4.3,0,6.6,0C283.3,307,283.3,318.5,283.3,330z"></path> <path class="st14" d="M79.1,330c-2.2,0-4.3,0-6.6,0c0-8,0-16,0-24.1c2.2,0,4.3,0,6.6,0C79.1,313.9,79.1,321.9,79.1,330z"></path> <path class="st14" d="M117.3,330c0-8,0-16,0-24c2.2,0,4.4,0,6.6,0c0,8,0,16,0,24C121.8,330,119.6,330,117.3,330z"></path> <path class="st14" d="M191.9,338.9c-0.8-1-1.7-2-2.5-3c0.5-0.6,1.3-1.5,1.9-2.4c0.6-0.9,1-2,1-3.2c-0.2,0-0.3-0.1-0.5-0.1 c-1.7-0.3-2.6-1.2-2.8-2.8c-0.2-1.6,0.6-3,2.1-3.7c3-1.4,5.9,0.4,6,3.8c0.2,4.2-1.3,7.7-4.4,10.6 C192.5,338.4,192.2,338.6,191.9,338.9z"></path> <path class="st14" d="M338.9,338.9c-0.9-1-1.8-1.8-2.7-2.8c1.7-1.5,3.1-3.3,3.3-5.7c-0.2,0-0.4-0.1-0.5-0.1 c-1.6-0.3-2.5-1.1-2.7-2.6c-0.3-1.5,0.3-2.8,1.5-3.6c2.5-1.7,5.7-0.5,6.4,2.5c0.4,1.8,0.2,3.6-0.3,5.3 C343,334.7,341.3,337,338.9,338.9z"></path> <path class="st14" d="M120.7,295.5c2.6,0,4.2,1.6,4,3.8c-0.2,1.9-1.9,3.3-4.1,3.3c-2-0.1-3.4-1-3.8-2.6c-0.6-2.2,0.9-4.3,3.2-4.5 C120.2,295.5,120.5,295.5,120.7,295.5z"></path> <path class="st14" d="M75.7,295.6c3.1-0.1,4.9,2.2,3.9,4.9c-0.6,1.5-2.1,2.2-4,2.2c-0.2,0-0.5-0.1-0.7-0.1c-1.9-0.3-3.1-1.7-3-3.6 c0.1-1.8,1.4-3.2,3.3-3.4C75.3,295.5,75.6,295.6,75.7,295.6z"></path> </g> </g> <path class="st15" d="M823.3,320.9h-25.4v49h-30.4v-35.6l-18.3,27.3l-18.9-27.3v35.6H700v-63.1c-9.7,8.5-22.3,13.6-36.2,13.6 c-30.5,0-55.4-25.1-55.4-55.9c0-30.8,24.9-55.9,55.4-55.9c30.5,0,55.4,25.1,55.4,55.9c0,6.5-1.2,12.8-3.2,18.6h0.3l0,0h18.3 l14.6,25.9l14-25.9h34.5v-31.8h26.4c26.3,0,39.9,16,39.9,33.7l0,1C864,306.1,849.8,320.9,823.3,320.9z M663.8,245.8 c-10.2,0-18.6,8.4-18.6,18.8c0,10.3,8.3,18.8,18.6,18.8c10.3,0,18.6-8.4,18.6-18.8C682.4,254.2,674.1,245.8,663.8,245.8z M840.5,285.8c0-8.5-6.6-12.3-14.5-12.3h-4.4v24.7h4.5c7.8,0,14.4-3.7,14.4-12.2V285.8z"></path> <g> <g> <path d="M281.8,434.4c14.8,14,29.6,28.1,44.3,42.2c0,21.1,0,42.2,0,63.4c-2.1,0-4.1,0-6.3,0c0,17,0,33.9,0,50.8c-20,0-39.9,0-60,0 c0,15.1,0,30.2,0,45.3c-22.7,0-45.2,0-67.9,0c-14.7-14-29.6-28.1-44.3-42.2c0-53.2,0-106.3,0-159.5 C192.4,434.4,237.1,434.4,281.8,434.4z M199.1,481.4c22.2,0,44.2,0,66.4,0c0-10.3,0-20.5,0-30.8c-33.9,0-67.7,0-101.5,0 c0,42.3,0,84.6,0,126.9c11.7,0,23.4,0,35.1,0c0-15.1,0-30.1,0-45.3c20.1,0,40,0,60,0c0-9.8,0-19.4,0-29.2c-20.1,0-40,0-60,0 C199.1,495.8,199.1,488.7,199.1,481.4z"></path> <path d="M192.7,487.4c-2.7,0-5.3,0-8,0c0,2.5,0,5,0,7.5c2.6,0,5.3,0,8,0c0,2.1,0,4,0,6c-7.2,0-14.4,0-21.6,0c0-2,0-3.9,0-6 c2.7,0,5.3,0,8,0c0-2.6,0-5,0-7.6c-2.6,0-5.3,0-8,0c0-2.1,0-4,0-6c7.2,0,14.3,0,21.6,0C192.7,483.4,192.7,485.3,192.7,487.4z"></path> <path d="M185,535.5c2.7,0,5.1,0,7.7,0c0,2,0,4,0,6c-7.2,0-14.3,0-21.6,0c0-5.7,0-11.4,0-17.2c1.7,0,3.4,0,5.3,0 c0,3.7,0,7.4,0,11.1c1.2,0,2.3,0,3.6,0c0-3.3,0-6.6,0-10c1.7,0,3.3,0,5.1,0C185,528.7,185,532,185,535.5z"></path> <path d="M176.4,553c0,3.8,0,7.4,0,11.1c1.2,0,2.3,0,3.5,0c0-3.3,0-6.6,0-10c1.7,0,3.3,0,5.1,0c0,3.3,0,6.7,0,10.1 c2.6,0,5.1,0,7.7,0c0,2.1,0,4,0,6c-7.2,0-14.4,0-21.6,0c0-5.7,0-11.4,0-17.2C172.9,553,174.6,553,176.4,553z"></path> <path d="M176.5,522.2c-1.9,0-3.6,0-5.3,0c0-6.3,0-12.5,0-18.8c1.7,0,3.4,0,5.3,0c0,2.1,0,4.1,0,6.4c5.5,0,10.9,0,16.3,0 c0,2,0,3.9,0,6c-5.4,0-10.8,0-16.2,0C176.5,518,176.5,520.1,176.5,522.2z"></path> <path d="M171.1,550.2c0-2,0-4,0-6c7.2,0,14.4,0,21.6,0c0,2,0,4,0,6C185.5,550.2,178.3,550.2,171.1,550.2z"></path> </g> </g> <g> <g> <g transform="translate(-2607 -1141)"> <path class="st16" d="M3119.6,2105h120"></path> <path class="st16" d="M3197.3,2124.9h43.1"></path> <linearGradient id="SVGID_00000051352019419500264500000018144965091263882376_" gradientUnits="userSpaceOnUse" x1="2624.7249" y1="1807.0327" x2="2624.7249" y2="1703.0442" gradientTransform="matrix(-1 0 0 -1 5822 3926.1101)"> <stop offset="0" style="stop-color:#FF5451"></stop> <stop offset="5.000000e-02" style="stop-color:#FF5451"></stop> <stop offset="0.59" style="stop-color:#FE895F"></stop> <stop offset="0.99" style="stop-color:#FCB56B"></stop> <stop offset="1" style="stop-color:#FCB56B"></stop> </linearGradient> <path style="fill:none;stroke:url(#SVGID_00000051352019419500264500000018144965091263882376_);stroke-width:11.6722;stroke-linecap:round;stroke-linejoin:round;stroke-miterlimit:10;" d=" M3197.3,2124.9v92.3"></path> <path class="st16" d="M3161.9,2124.9l-43.1,0"></path> <linearGradient id="SVGID_00000172423058063138854890000001735223751031797909_" gradientUnits="userSpaceOnUse" x1="2576.9539" y1="1807.0327" x2="2576.9539" y2="1703.0442" gradientTransform="matrix(-1 0 0 -1 5739 3926.1101)"> <stop offset="0" style="stop-color:#FF5451"></stop> <stop offset="5.000000e-02" style="stop-color:#FF5451"></stop> <stop offset="0.59" style="stop-color:#FE895F"></stop> <stop offset="0.99" style="stop-color:#FCB56B"></stop> <stop offset="1" style="stop-color:#FCB56B"></stop> </linearGradient> <path style="fill:none;stroke:url(#SVGID_00000172423058063138854890000001735223751031797909_);stroke-width:11.6722;stroke-linecap:round;stroke-linejoin:round;stroke-miterlimit:10;" d=" M3162,2124.9l0,92.3"></path> <linearGradient id="SVGID_00000132768060939045301080000012544070151348852407_" gradientUnits="userSpaceOnUse" x1="5786.873" y1="541.9816" x2="5786.873" y2="418.0055" gradientTransform="matrix(1 0 0 -1 -2607 2641.1101)"> <stop offset="0" style="stop-color:#FF5451"></stop> <stop offset="5.000000e-02" style="stop-color:#FF5451"></stop> <stop offset="0.59" style="stop-color:#FE895F"></stop> <stop offset="0.99" style="stop-color:#FCB56B"></stop> <stop offset="1" style="stop-color:#FCB56B"></stop> </linearGradient> <path style="fill:none;stroke:url(#SVGID_00000132768060939045301080000012544070151348852407_);stroke-width:11.6722;stroke-linecap:round;stroke-linejoin:round;stroke-miterlimit:10;" d=" M3179.9,2105v112.3"></path> </g> </g> <g> <g> <path class="st20" d="M694.5,1035.7v-24.8h-7.3c-0.6,0-1.1-0.2-1.5-0.6c-0.4-0.4-0.6-0.9-0.6-1.5v-3c0-0.6,0.2-1.1,0.6-1.5 c0.4-0.4,0.9-0.6,1.5-0.6h7.3v-15.5c0-0.6,0.2-1.1,0.6-1.5c0.4-0.4,0.9-0.6,1.5-0.6h4.1c0.6,0,1.1,0.2,1.5,0.6 c0.4,0.4,0.6,0.9,0.6,1.5v15.5h11.5c0.6,0,1.1,0.2,1.5,0.6c0.4,0.4,0.6,0.9,0.6,1.5v3c0,0.6-0.2,1.1-0.6,1.5 c-0.4,0.4-0.9,0.6-1.5,0.6h-11.5v24.2c0,3.1,0.5,5.5,1.5,7.1c1,1.6,2.8,2.4,5.2,2.4h5.6c0.6,0,1.1,0.2,1.5,0.6 c0.4,0.4,0.6,0.9,0.6,1.5v3.1c0,0.6-0.2,1.1-0.6,1.5c-0.4,0.4-0.9,0.6-1.5,0.6h-6.3C699.2,1051.9,694.5,1046.5,694.5,1035.7z"></path> <path class="st20" d="M734.8,1050.9c-2.6-1.2-4.6-2.9-6.1-5c-1.5-2.1-2.3-4.5-2.3-7.1c0-4.1,1.7-7.4,5-10 c3.3-2.6,7.9-4.3,13.6-5.2l13.9-1.9v-2.7c0-6.4-3.7-9.5-11-9.5c-2.8,0-5.1,0.6-6.9,1.7c-1.7,1.1-3,2.5-3.8,4 c-0.2,0.6-0.5,1-0.8,1.3c-0.3,0.2-0.7,0.3-1.2,0.3h-3.6c-0.6,0-1-0.2-1.4-0.6c-0.4-0.4-0.6-0.9-0.6-1.4c0-1.4,0.7-3.1,2-5 c1.3-1.9,3.4-3.5,6.2-4.9c2.8-1.4,6.2-2.1,10.2-2.1c6.9,0,11.9,1.6,14.9,4.8c3,3.2,4.5,7.2,4.5,12v30.1c0,0.6-0.2,1.1-0.6,1.5 c-0.4,0.4-0.9,0.6-1.5,0.6h-4.1c-0.6,0-1.1-0.2-1.5-0.6c-0.4-0.4-0.6-0.9-0.6-1.5v-4.1c-1.4,2-3.3,3.7-5.9,5.1 c-2.6,1.4-5.9,2-10,2C740.1,1052.8,737.3,1052.2,734.8,1050.9z M755,1042c2.6-2.7,3.9-6.5,3.9-11.6v-2.6l-10.8,1.6 c-4.4,0.6-7.8,1.7-10.1,3.1c-2.3,1.5-3.4,3.3-3.4,5.6c0,2.5,1,4.5,3.1,5.8c2.1,1.4,4.5,2,7.4,2C749.1,1046,752.4,1044.7,755,1042 z"></path> <path class="st20" d="M786,1069.6c-3.1-1.7-5.3-3.7-6.5-5.9c-1.3-2.2-1.9-4.1-1.9-5.7c0-0.6,0.2-1,0.6-1.4 c0.4-0.4,0.9-0.6,1.5-0.6h4.1c0.6,0,1,0.1,1.4,0.4c0.4,0.3,0.7,0.8,0.9,1.5c1.7,4.9,5.6,7.4,11.8,7.4c4.6,0,8.1-1,10.3-3 c2.2-2,3.3-5.5,3.3-10.5v-6.4c-3.6,4.6-8.6,6.9-15,6.9c-6.5,0-11.4-2.1-14.7-6.3c-3.2-4.2-5-9.5-5.1-15.9l-0.1-2.6l0.1-2.5 c0.2-6.4,1.9-11.7,5.1-15.9c3.2-4.2,8.1-6.3,14.7-6.3c6.5,0,11.5,2.4,15.2,7.1v-4c0-0.6,0.2-1.1,0.6-1.6c0.4-0.4,0.9-0.6,1.5-0.6 h4c0.6,0,1.1,0.2,1.5,0.6c0.4,0.4,0.6,1,0.6,1.6v44.9c0,14.3-7.2,21.4-21.6,21.4C793.2,1072.2,789.1,1071.4,786,1069.6z M807.9,1040.9c2.2-2.8,3.4-6.2,3.6-10.1c0.1-0.6,0.1-1.6,0.1-3.2c0-1.5,0-2.6-0.1-3.1c-0.2-4-1.4-7.3-3.6-10.1 c-2.2-2.8-5.4-4.2-9.8-4.2c-4.4,0-7.7,1.4-9.7,4.2c-2,2.8-3.1,6.4-3.3,10.9l-0.1,2.4l0.1,2.5c0.2,4.4,1.3,8.1,3.3,10.9 c2,2.8,5.2,4.2,9.7,4.2C802.5,1045.1,805.7,1043.7,807.9,1040.9z"></path> <path class="st20" d="M838.6,1069.6c-3.1-1.7-5.3-3.7-6.5-5.9c-1.3-2.2-1.9-4.1-1.9-5.7c0-0.6,0.2-1,0.6-1.4 c0.4-0.4,0.9-0.6,1.5-0.6h4.1c0.6,0,1,0.1,1.4,0.4c0.4,0.3,0.7,0.8,0.9,1.5c1.7,4.9,5.6,7.4,11.8,7.4c4.6,0,8.1-1,10.3-3 c2.2-2,3.3-5.5,3.3-10.5v-6.4c-3.6,4.6-8.6,6.9-15,6.9c-6.5,0-11.4-2.1-14.7-6.3c-3.2-4.2-5-9.5-5.1-15.9l-0.1-2.6l0.1-2.5 c0.2-6.4,1.9-11.7,5.1-15.9c3.2-4.2,8.1-6.3,14.7-6.3c6.5,0,11.5,2.4,15.2,7.1v-4c0-0.6,0.2-1.1,0.6-1.6c0.4-0.4,0.9-0.6,1.5-0.6 h4c0.6,0,1.1,0.2,1.5,0.6c0.4,0.4,0.6,1,0.6,1.6v44.9c0,14.3-7.2,21.4-21.6,21.4C845.8,1072.2,841.7,1071.4,838.6,1069.6z M860.5,1040.9c2.2-2.8,3.4-6.2,3.6-10.1c0.1-0.6,0.1-1.6,0.1-3.2c0-1.5,0-2.6-0.1-3.1c-0.2-4-1.4-7.3-3.6-10.1 c-2.2-2.8-5.4-4.2-9.8-4.2c-4.4,0-7.7,1.4-9.7,4.2c-2,2.8-3.1,6.4-3.3,10.9l-0.1,2.4l0.1,2.5c0.2,4.4,1.3,8.1,3.3,10.9 c2,2.8,5.2,4.2,9.7,4.2C855.1,1045.1,858.3,1043.7,860.5,1040.9z"></path> <path class="st20" d="M888.1,1046.9c-3.8-3.9-5.8-9.3-6.2-16.1l-0.1-3.1l0.1-3.1c0.4-6.7,2.4-12,6.2-15.9c3.8-4,8.8-5.9,15.1-5.9 c6.8,0,12.1,2.2,15.8,6.5c3.7,4.3,5.6,10.2,5.6,17.6v1.7c0,0.6-0.2,1.1-0.6,1.5c-0.4,0.4-0.9,0.6-1.5,0.6h-32.1v0.8 c0.2,4,1.4,7.4,3.7,10.3c2.3,2.8,5.3,4.3,9.1,4.3c2.9,0,5.3-0.6,7.1-1.7c1.8-1.1,3.2-2.3,4.1-3.6c0.6-0.7,1-1.2,1.3-1.3 c0.3-0.2,0.8-0.2,1.6-0.2h4.1c0.6,0,1,0.2,1.4,0.5c0.4,0.3,0.6,0.7,0.6,1.2c0,1.4-0.8,3-2.5,4.9c-1.7,1.9-4,3.6-7.1,5 c-3.1,1.4-6.6,2.1-10.5,2.1C896.9,1052.8,891.9,1050.8,888.1,1046.9z M916.1,1024.4v-0.3c0-4.3-1.2-7.8-3.5-10.6 c-2.3-2.7-5.5-4.1-9.4-4.1c-4,0-7.2,1.4-9.4,4.1c-2.3,2.7-3.4,6.2-3.4,10.6v0.3H916.1z"></path> <path class="st20" d="M934.4,1051.3c-0.4-0.4-0.6-0.9-0.6-1.5v-43.8c0-0.6,0.2-1.1,0.6-1.6c0.4-0.4,0.9-0.6,1.5-0.6h3.9 c0.7,0,1.2,0.2,1.6,0.6c0.4,0.4,0.6,0.9,0.6,1.6v4.1c2.5-4.2,6.8-6.3,12.9-6.3h3.6c0.7,0,1.2,0.2,1.6,0.6 c0.4,0.4,0.6,0.9,0.6,1.6v3.4c0,0.6-0.2,1.1-0.6,1.5c-0.4,0.4-0.9,0.6-1.6,0.6h-5.3c-3.4,0-6.1,1-8,3c-1.9,2-2.9,4.7-2.9,8.1 v27.3c0,0.6-0.2,1.1-0.6,1.5c-0.4,0.4-1,0.6-1.6,0.6H936C935.3,1051.9,934.8,1051.7,934.4,1051.3z"></path> </g> </g> </g> <path d="M324.2,1005.9c-5.6,0-20.2,13.3-25.6,19.7c2.6-7,3.7-10.3,3.7-11.8c0-3.1-2.8-5.1-5-5.1c-1.8,0-2.8,1.3-4.5,3.2 c-11.1,11.4-21.6,22.1-26.4,26.2c-3,2.5-3.4,2.1-2.8-1.7c1.8-11.8,6.7-19.1,6.7-21.6c0-1.9-2.8-4.2-5.4-4.2c-1.6,0-2.6,0.7-3.2,1.5 c-2-2.6-4.8-4.5-8.9-4.5c-8.1,0-20.5,7-29.6,15.8c-7.3,7-19.4,17.2-26.5,21.3c-5,2.9-5.4,1.7-4.8-1.9c1.6-7.8,7.7-24.4,8.7-27.3 c1.4-4.2-0.8-9.2-4.5-9.2s-7.9,2.9-20.8,14.2c3-7,4-10.7,1.6-13.6c-1-1.2-2.8-3.1-5.1-3.1c-7.6,0-24.2,14.3-35.3,24.4 c1-2.6,3.2-9.8,3.7-11.7c1.8-5.4-3-8.2-5.6-8.2c-2.9,0-14.7,7.8-41.9,25.3c-22.4-10.7-63.8-12.5-63.8-24.6 c0-13.6,52.6-47.9,78.5-47.9c5,0,7.6,1.2,7.6,5.4c0,7.8-9.3,21.8-21.6,29.4c-1.4,1-1.6,1.3-1.6,1.9c0,2.1,3,4.2,5.6,4.2 c7.6,0,25.7-19.7,25.7-33.9c0-7.5-5.1-14.2-17.5-14.2c-29.7,0-87.4,37.4-87.4,56.3c0,22.1,77.9,18.5,77.9,40.5 c0,12.4-28.2,28.2-45.8,28.2c-5.7,0-6.7-1.9-6.7-3.2c0-4,8.9-11.4,27.9-25.6c3.2-2.3,5.1-4.2,5.1-5.5c0-1.2-1.2-1-7.1,2.6 c-18.8,11.1-33.5,23.7-33.5,30.5c0,4.2,4.8,8.4,14.7,8.4c21.4,0,56.1-18.5,56.1-36.3c0-6.2-4.1-10.9-10.5-14.5 c13.6-7.5,28.7-15.4,34.5-18.2c-5.1,15.8-11.5,29.6-11.5,32.6c0,2.3,3.6,3.8,5.9,3.8c2.8,0,3.4-2.3,5.6-6.1 c6.2-10.5,22.8-24.6,35.9-33.6c1.4-1,2.6-1.7,1.2,1.3c-5.1,11.1-13.3,22.4-13.3,24.8c0,2.1,3.4,4,6.5,4c2,0,3-0.7,6.5-4.8 c5.7-6.5,11.7-12.2,17.8-17.6c3.6-3.1,4-3.2,3-0.4c-3.2,9.9-6.2,20.5-6.2,24.8c0,5.1,5.1,9.2,10.1,9.2c4.8,0,11.3-5,20.8-13.7 c1.6,4.2,6.3,7,11.1,7c9.7,0,24.2-11.7,31.9-20c-1.8,4.5-2.6,8.9-2.6,11.4c0,5.7,4.5,9.4,8.5,9.4c6.2,0,15.8-10.7,26.4-23.1 c-3,8-4.2,12.4-4.2,14.2c0,2.3,3.4,5.9,6.5,5.9c1.6,0,2-2.5,7.1-8.6c6.5-7.8,12.7-13.3,24-22.4c2.6-1.9,4.5-4.2,4.5-6.3 C326.9,1007.8,326.1,1005.9,324.2,1005.9L324.2,1005.9z M255.3,1019.8c-7.7,8.4-24.8,21.2-31.5,21.2c-0.6,0-1-0.4-1-1.2 c0-7.4,23.2-26,30.5-26C255.3,1013.9,255.9,1015.4,255.3,1019.8z M451.6,983.5c-15.7-0.1-32,0.1-48.8,0.4c1-1.2,1.5-2.2,1.5-3 c0-1.5-1.6-3.6-3.7-3.6c-2.5,0-6.4,2.7-10.3,6.9c-10.3,0.2-20.7,0.5-31.2,0.8c7.6-15.6,13.3-24.6,13.3-26c0-2.6-2.8-4.2-5-4.2 c-2.6,0-4.2,1.7-7.3,7.3c-2.3,4.2-6.7,13.1-11.4,23.3c-39.4,1.4-79.2,3.5-115.9,6.5c-2.3,0.2-3.4,1-3.4,1.9c0,1.9,9.7,2.1,17.7,1.7 c28.3-1.3,62.2-2.4,98.5-2.9c-8.4,19.1-16.8,40.3-16.8,46.3c0,5,6.7,7.8,9.3,7.8c4.9,0,24.1-19.4,37.8-35.6 c-0.1,0.5-0.1,1.1-0.1,1.6c0,15.8,19.7,26.5,19.7,33.6c0,3.2-4.4,5.5-9.5,5.5c-4.2,0-6.5-1.5-9.1-3.4c-1.8-1.3-3.6-0.4-2.2,2.6 c2,4.4,7.9,8.4,15,8.4c8.5,0,14.3-5.7,14.3-11.7c0-10.7-19.8-19.1-19.8-33.9c0-8.5,5.8-15.8,11.1-21.6c16.4,0,33.1,0.1,49.7,0.4 C455.2,992.7,458.9,983.5,451.6,983.5z M340.4,1035.1c-1.4,1.2-1.6,0.7-1-1.2c5.2-16.4,10.9-30.4,16.1-41.6 c9.2-0.1,18.6-0.1,28.1-0.2C372.5,1004.4,351.8,1025.4,340.4,1035.1z"></path> <g> <path class="st21" d="M800.7,551.7c-1.4-1.1-2.5-2.1-3.7-3.1c-0.2-0.2-0.5-0.2-0.8-0.3c0,0.3,0,0.7,0.1,0.9 c1.5,2.1,3.1,4.3,4.7,6.4c0.2,0.3,0.4,0.5,0.6,1c-1.4,0.2-2.6,0.4-3.8,0.5c-3.2,0.5-6.4,0.8-9.5,1.6c-4.4,1.2-7.9,3.9-10.6,7.6 c-3,4-4.6,8.4-5.1,13.3c-0.3,2.9,0.1,5.7,0.5,8.5c0.4,3.5,0.9,7,1.3,10.6c0.2,1.8,0.4,3.7,0.3,5.6c-0.1,4.2-0.8,8.4-2.4,12.3 c-1.1,2.5-2.3,5-3.4,7.5c-0.1,0.3-0.3,0.5-0.5,0.8c-0.6-1.2,0.4-2.7-0.8-3.7c-1.1,6.8-3.9,12.6-8.5,17.6l-0.3,0v-8.1l-0.3-0.1 c-0.9,1.4-2,2.7-2.8,4.1c-1.3,2.2-3.1,3.9-5,5.5c-2.7,2.4-6.1,3.9-9.1,5.8c-1.2,0.8-2.6,1.5-3.8,2.3c-1.1,0.7-2.2,0.7-3.3,0.1 c-3.8-2.2-7.6-4.3-11.3-6.7c-3.2-2.1-5.7-4.8-7.3-8.4c-0.5-1-1-1.9-2.1-2.6v6.8c0,0.4-0.2,0.8-0.4,1.4c-4.6-5-6.8-10.9-8.9-16.9 v3.2l-0.2,0.1c-0.3-0.5-0.6-1-0.9-1.5c-1.9-3.7-3.6-7.5-4.6-11.7c-0.8-3.5-1.2-7.1-1-10.7c0.2-3.1,0.7-6.1,1-9.2 c0.5-4.5,1-9,0.7-13.5c-0.2-4.1-1.4-7.9-3.7-11.2c-2.1-3-4.9-5.3-8.2-7c-3.1-1.6-6.3-2.3-9.7-2.7c-2.3-0.3-4.5-0.6-6.8-0.9 c-0.1,0-0.2-0.1-0.5-0.2c0.7-0.9,1.3-1.8,1.9-2.7c1.1-1.5,2.2-3,3.4-4.5c0.1-0.1,0.2-0.2,0.2-0.4c0-0.2,0-0.4-0.1-0.6 c-0.2,0.1-0.4,0.1-0.6,0.2c-1.3,1-2.7,2.1-4,3.1c-0.1,0.1-0.2,0.1-0.6,0.3c0.5-1.4,0.9-2.7,1.4-4c1.1-3.2,2.4-6.4,3.3-9.6 c1.2-4.2,2.3-8.4,3.3-12.7c1-4.3,1.9-8.5,2.8-12.8c0.3-1.6-0.3-2.7-1.9-3.2c-4.8-1.6-9.3-3.7-13.4-6.7c-1.5-1.1-3-2.3-4.4-3.6 c-4.9-4.4-8.8-9.6-12.2-15.3c-2.8-4.7-4.4-9.7-5.2-15c-0.3-2.2-0.4-4.4-0.6-6.6c-0.1-1.3-0.2-2.7-0.2-4.3l2.7,1.5l-1.8-7.1 c1.5,0.9,2.8,1.8,4.2,2.6c2.9,1.7,5.7,3.3,8.6,5c1,0.6,2.1,0.5,3.3,0.2c0.9-0.2,0.9-0.6,0.7-1.3c-0.4-0.8-0.8-1.6-1.3-2.3 c-0.2-0.3-0.5-0.7-0.6-1.2c0.5,0.2,1.1,0.2,1.6,0.4c3.4,1.5,6.7,3.1,9.6,5.5c2.3,1.9,4.3,4.1,6,6.5c2.1,2.9,4.3,5.8,6.6,8.6 c0.2,0.2,0.7,0.3,1,0.2c0.2,0,0.4-0.5,0.4-0.8c-0.3-3.7-0.5-7.4-1.1-11.1c-0.5-3.9-1.4-7.8-2.1-11.7c-0.4-2.3-1.5-4.2-3-6 c-1.6-2-1.9-4.3-0.9-6.6c0.3-0.8,0.8-1.6,0.2-2.4l-2.6,3l-5.9-19.5c0.7,0.2,1.3,0.3,1.9,0.4c3.4,0.9,6.6,2.2,9.2,4.5 c2.2,1.9,4.1,4.1,6.1,6.2c1.4,1.5,2.6,3.2,4,4.8c2.6,3.3,5.2,6.5,7.9,9.8c2.5,3,5.7,5.4,9.1,7.2c1,0.5,2,1.2,3,1.8l-1.2-7.4 c3.6,3.5,7.9,4.8,12.8,4.7c-1.3-0.6-2.6-1.1-3.8-1.7c-0.5-0.2-1-0.4-1.4-0.6c-0.2-0.2-0.4-0.5-0.5-0.7l0.2-0.2 c0.6,0.3,1.3,0.7,1.9,1c2,1.1,4.2,1.6,6.5,1.7c3.9,0.2,7.8,0.5,11.7,0.6c2.2,0.1,4.4-0.2,6.6-0.4c2.6-0.2,5.1-0.6,7.7-0.9 c0.2,0,0.3,0,0.5,0.2l-1.8,1.1c2.4,0.1,4.7-0.2,6.9-1.1c2.2-0.8,4.1-2.1,5.7-3.9l0.2,0.2c-0.3,1.5-0.6,3-1,4.5 c-0.3,1.1-0.6,2.3-0.8,3.4c-0.1,0.3,0.2,0.7,0.3,1c0.3-0.1,0.6-0.2,0.8-0.3c2.5-1.9,5.1-3.7,7.6-5.6c1.5-1.2,2.9-2.6,4.1-4.2 c2.3-3,4.5-6.1,6.8-9.1c3.4-4.4,7-8.7,11.5-12.1c3.1-2.4,6.6-3.9,10.3-4.8c0.1,0,0.2,0,0.4,0c0.1,0,0.1,0,0.3,0.1l-5.9,19.5 l-2.4-3.1h-0.2c0.1,0.7,0.2,1.4,0.3,2.1c0.1,1,0.3,2,0.4,3c0.1,1.2-0.1,2.5-1,3.3c-1.3,1.2-1.4,2.7-1.6,4.2 c-0.6,3.5-1.2,7-1.8,10.6c-0.6,4-1.3,8-1.8,12c-0.1,0.8,0,1.7,0.1,2.5l0.4,0.1c0.6-0.8,1.1-1.7,1.7-2.5c3.6-5.1,7.4-10,12.5-13.6 c2.6-1.9,5.5-3.4,8.6-4.4c0.2-0.1,0.5-0.1,0.6-0.2c-0.8,1.5-1.5,3-2.4,4.6c1.4,0.4,2.6,0.7,3.8,0.1c3.9-2,7.9-3.7,11.3-6.6 c0.5-0.5,1.1-0.8,1.8-1.1l-1.7,7.2l2.4-1.4c0.1,0.6,0.3,1.1,0.3,1.6c-0.3,3.2-0.4,6.3-0.9,9.5c-0.9,5.3-2.6,10.4-5.3,15.2 c-2.1,3.8-4.8,7.3-7.7,10.5c-2.8,3.2-6.1,6-9.5,8.4c-2.4,1.7-5.1,3-7.7,4.4c-1.7,0.8-3.5,1.4-5.3,2c-1.4,0.5-1.9,1.1-1.6,2.7 c0.8,4,1.4,8,2.4,11.9c1.4,5.9,3,11.7,4.7,17.5c0.9,3.1,2,6.2,3,9.2C800.6,551,800.6,551.2,800.7,551.7L800.7,551.7z M690.3,519.8 l-1.7-2.5c0.2-0.2,0.3-0.5,0.6-0.6c1.6-1.1,3.1-2.4,4.8-3.2c4.4-2,9-1.9,13.6-0.2c1.9,0.7,3.6,1.7,5.5,2.4c4,1.6,8.2,2.6,12.4,3 c2,0.2,4,0.6,5.9,1.1c1.3,0.3,2.1,1.1,2.3,2.4c0.2,0.8,0.3,1.7,0.3,2.5c0.2,1.9,1.2,2.7,3.1,2.3c0.3-0.1,0.5-0.1,0.8-0.2 c0.8-0.2,1.2-0.6,1.5-1.4c0.3-0.9,0.8-1.7,1.2-2.6c0.6-1.1,1.5-1.6,2.7-1.5c1.4,0.1,2.9,0.2,4.3,0.4c3.9,0.5,7.9,1,11.8,1.5 c3.3,0.4,6.5,0.9,9.8,1.4c2.9,0.4,5.8,0.9,8.6,1.5c2.4,0.5,3,1.6,3,4.2c0,1.7-0.4,3.5-0.6,5.2c-0.2,1.7-0.4,3.4-0.6,5.2 c0.2-0.1,0.4-0.2,0.5-0.3c3.8-3.4,5.8-7.8,7.2-12.5c0.9-3.2,1-6.5,0.7-9.8c-0.1-1.5-0.3-3-0.8-4.4c-0.9-2.8-2.2-5.4-3.8-7.9 c-1.3-2-2.5-4-3.8-5.9c-0.8-1.2-1.6-1.4-2.9-0.8c-0.7,0.3-1.4,0.6-2.2,1c1.1-2.2,2.2-4.1,3.2-6.1c1.2-2.2,2.2-4.4,2-7 c-0.2-2.7-0.4-5.3-0.8-8c-0.2-1.3-0.7-2.4-1.7-3.4c-1.4-1.4-3.2-1.8-4.9-2.2c-4.2-0.9-7.4-3.2-9.8-6.6c-0.6-0.8-1.1-1.7-1.8-2.5 c-0.2-0.2-0.6-0.2-0.9-0.2c0,0.3-0.2,0.6-0.1,0.8c0.5,1.1,1.1,2.2,1.6,3.4c1.3,2.9,3.3,5.3,6.2,6.7c1,0.5,2,1.1,3,1.7 c-0.1,0.1-0.1,0.2-0.1,0.2c-2.7,0.8-5.3,0.7-7.8-0.5c-2-1-3.5-2.6-4.7-4.3c-1.6-2.4-3-4.8-4.6-7.2c-1.6-2.5-3.7-4.4-6.6-5.5 c-4-1.6-8.1-2.3-12.4-2c-3,0.2-6,0.8-8.8,1.9c-3.3,1.4-6,3.5-7.5,6.6c-1.3,2.7-2.8,5.1-4.7,7.4c-3.5,4.3-7.9,4.6-12.9,3.1 c7.2-0.9,10.2-5.9,11.8-12.3c-0.4,0.1-0.8,0.2-1,0.5c-0.6,0.8-1.2,1.6-1.7,2.4c-1.8,3-4.5,4.8-7.7,6c-1.7,0.6-3.4,1.1-5.1,1.7 c-1.3,0.5-2.3,1.3-2.7,2.7c-0.4,1.3-0.7,2.7-1,4c-0.7,3.7-0.7,7.4,0.8,10.8c1,2.4,2.4,4.6,3.6,6.9c0.5,0.9,1,1.7,1.5,2.5l-0.3,0.2 c-0.8-0.8-1.5-1.6-2.3-2.4c-1.5-1.5-2.7-1.4-4,0.3c-0.1,0.1-0.2,0.3-0.3,0.5c-0.7,1.2-1.4,2.5-2.1,3.7c-1.1,1.9-2.4,3.8-3.3,5.7 c-1.6,3.3-2.4,6.8-2.4,10.5c0,2,0.2,4,0.5,6c0.6,4.1,2,7.8,4.9,11.1l2.7-18.3L690.3,519.8L690.3,519.8z M736.3,614.8l0.3,0.1 c0.1,0.8,0.2,1.5,0.3,2.3c0.4,2.6,1.4,4.9,4.1,6c1.9,0.8,3.8,1,5.8,0.8c1.2-0.1,2.5-0.3,3.6-0.8c2.9-1.2,5-3.5,7.2-5.5 c2.3-2.1,4.3-4.4,6.5-6.6c4.9-5.1,6.1-12.4,3-18.8c-2.3-4.8-4.8-9.5-7.1-14.3c-0.6-1.1-1.1-2.2-1.6-3.4l0.2-0.2 c3.3,2.7,6.1,5.9,9.1,9.1c0.1-0.7,0.1-1.3,0.2-1.8c0.5-2.5,0.6-5,1.7-7.3c0.9-2.1,1.8-4.3,2.6-6.5c1.1-2.9,2.2-5.7,3.4-8.6 c0.9-2.2,2-4.3,2.2-6.9h-1c-1.8-0.1-3.6,0-5.4-0.2c-3.5-0.4-6.9-0.9-10.4-1.3c-4.5-0.5-8.9-1.1-13.4-1.5c-3.6-0.4-7.1-0.8-10.6-1.8 c-0.8-0.2-1.6-0.4-2.4-0.3c-2.3,0.2-4.5,0.6-6.8,0.9c-1.4,0.2-2.7,0.5-4.1,0.7l-0.1-0.2l2.9-2.4c-10.8-1.6-21.5-3.2-32.2-4.8 c0.3,0.7,0.7,1.3,1.2,1.8c1.4,1.7,2.7,3.4,4.1,5c0.3,0.4,0.6,0.9-0.1,1.4c-0.9-1.1-1.8-2.4-3.4-2.3c-1.4,0.1-2.8,0.4-4.2,0.5 c0.1,0.4,0.1,0.6,0.2,0.8c1.1,2.2,2.2,4.3,3.2,6.6c2.1,4.4,4.2,8.9,6.1,13.4c1.8,4.4,2.7,9,3.1,13.8c0,0.3,0.3,0.7,0.5,0.8 c0.2,0.1,0.7-0.1,0.8-0.2c1.8-2,3.5-4.1,5.3-6.1c0.7-0.8,1.5-1.6,2.2-2.4l0.2,0.1c-0.1,0.3-0.2,0.6-0.3,0.9 c-1.3,2.9-2.6,5.7-3.9,8.5c-1.4,3-2.9,6-4.3,9.1c-1.4,3-2.1,6.1-1.3,9.3c0.7,2.9,2,5.5,3.6,8c2.2,3.5,5.1,6.4,8.4,8.8 c2.4,1.8,5,3,7.7,4.1c1.9,0.8,4,1,6,0.2c3-1.1,4.8-3.4,5.8-6.3C735.6,616.5,736,615.7,736.3,614.8L736.3,614.8z M694.3,531.6h0.2 c0,1.3,0,2.5,0,3.8c0.1,2.6,2.5,5,5.1,5.4c2.6,0.3,5.2,0.8,7.8,1.1c2.1,0.3,4.2,0.7,6.3,1c2,0.3,3.9,0.6,5.9,0.8 c2.1,0.2,4.2,0.5,6.4,0.6c2.8,0.1,3.8-1.1,4.3-4c0.8-4.3,1.3-8.7,2-13.1c0.4-2.9-0.7-4.5-3.5-5.1c-1.2-0.2-2.4-0.4-3.6-0.6 c-2.9-0.4-5.7-0.8-8.6-1.1c-3.6-0.5-7.2-0.9-10.8-1.4c-2.6-0.3-5.2-0.6-7.8-0.8c-1.3-0.1-2.4,0.7-2.7,2c-0.2,0.8-0.2,1.7-0.2,2.6 C694.8,525.8,694.5,528.7,694.3,531.6L694.3,531.6z M768.3,550.5c2.8,0.2,4.5-1.2,5.4-3.8c1.5-4.4,3.1-8.7,3.9-13.3 c0.4-2.5,0-3.6-2.5-4c-5.4-1.1-10.9-2-16.4-3c-4-0.7-7.9-1.3-11.9-1.9c-1.9-0.3-3.7-0.1-5.2,1.4c-0.9,0.9-1.1,2.1-1.2,3.3 c-0.6,4.4-1.1,8.8-1.6,13.1c-0.2,2,0.3,3.8,3,4.4c2.5,0.5,5,0.8,7.4,1.2c2,0.3,4,0.6,5.9,0.9c2.4,0.4,4.7,0.7,7.1,1 C764.3,550.1,766.3,550.3,768.3,550.5L768.3,550.5z M797.5,496.7l0.2,0.2l-7.4,8.2c0.2,0.1,0.2,0.2,0.3,0.2 c3.1,1.2,5.8,0.6,8.3-1.5c2.9-2.5,5.8-5,8.7-7.6c2.2-1.9,4.2-3.9,6-6.2c2.2-2.9,4.1-5.9,5.5-9.2c1.8-4.5,3.1-9.1,3.5-13.9 c0.2-1.8,0.6-3.5-0.1-5.3c-6.7,6.1-13.3,12.2-20,18.2c0.3,0.9,0.8,1.1,1.6,0.6s1.6-0.9,2.4-1.3l4.2-2.3l0.2,0.2 c-1.9,2.8-4,5.4-6.8,7.4c-2.8,2.1-5.9,3.4-9.2,4.3c0.4,0.9,0.5,0.9,1.5,0.8c1.1-0.2,2.2-0.2,3.4-0.3c-1.3,2.1-3.1,3.3-5.4,3.8 c-2.1,0.5-4.1,0.7-6.2,1.1c-0.9,0.2-1.8,0.3-2.8,0.5c1.1,1.4,2.2,2.6,3.8,2.8c1.4,0.1,2.9-0.1,4.4-0.2 C794.9,497.2,796.2,496.9,797.5,496.7L797.5,496.7z M676.5,489.5l0.1-0.2c-0.4-0.2-0.8-0.5-1.2-0.7c-1.8-0.9-3.6-1.7-5.3-2.8 c-3.1-2-5.8-4.6-8.1-7.5c-0.2-0.2-0.2-0.5-0.3-0.8c0.3,0,0.7,0,0.9,0.1c2,1,3.9,2,5.9,3c0.8,0.4,1.1,0.2,1.3-0.7l-20.3-18.5 c0,1.1-0.1,1.9,0,2.7c0.3,2.3,0.6,4.5,0.9,6.8c0.6,3.8,1.6,7.4,3.1,10.9c2.8,6.3,7.2,11.2,12.4,15.5c2.7,2.2,5.5,4.4,8.3,6.6 c0.9,0.7,1.8,1.4,2.9,1.8c1.1,0.4,2.4,0.5,3.6,0.6c0.3,0,0.7-0.4,0.9-0.7c0.1-0.3,0.1-0.8-0.1-1c-1.1-1.3-2.2-2.5-3.4-3.8l-3.3-3.7 c0.6-0.1,1.2-0.1,1.7,0c2.1,0.3,4.2,0.7,6.3,0.8s3.2-1,3.5-3.2l-0.4-0.1c-2.6-0.4-5.2-0.7-7.7-1.3c-2.2-0.5-4.1-1.7-5.5-3.7H676.5 L676.5,489.5z M734.7,545.7c2.1,0,2.1,0,2.3-1.8c0.3-2.5,0.7-5.1,1-7.6c0.2-1.7,0.3-3.3,0.4-5c0.1-0.7-0.2-1.2-0.9-1.2 c-0.8-0.1-1.7-0.2-2.5-0.2c-1.2,0-1.9,0.5-2.1,1.7c-0.3,1.5-0.5,3-0.7,4.6c-0.4,2.9-0.8,5.8-1.2,8.7c-0.1,0.5,0,0.6,0.5,0.7 C732.7,545.6,733.9,545.7,734.7,545.7L734.7,545.7z"></path> <path class="st21" d="M776.3,519.3c-6.9-6.2-15-6-23.4-4.2c5.3-5.6,17.5-7,24.6,1l-2.1,0.3l1.1,2.7L776.3,519.3L776.3,519.3z"></path> <path class="st21" d="M750.6,586.2c1.8,1,2.4,4.6,1,6.5c-0.6,0.8-1.4,1.1-2.3,1c-1-0.1-1.6-1.4-1.2-2.4 C748.9,589.5,749.7,587.9,750.6,586.2z"></path> <path class="st21" d="M721,587.5c1.9-0.2,2.2,0,2.9,1.4c0.5,1.1,1,2.1,1.5,3.2c0.2,0.5,0.2,0.8-0.3,1.1c-0.5,0.2-0.9,0.5-1.4,0.7 c-1,0.4-1.8,0.1-2-1C721.3,591.1,721.2,589.3,721,587.5L721,587.5z"></path> </g> <g> <g> <g id="j8lFlN_00000035510679099006437880000010805553176248548786_"> <g> <g> <g> <path class="st59" d="M103.7,815c0-0.5,0-1,0-1.7c-2.1,4.1-3.7,6-7.1,7.6c-1.6,0.7-3.2,1.4-4.9,1.8 c-5.2,1.5-10.5,1.4-15.8,1.6c-4.8,0.2-9.6,0.9-14,3c-2.6,1.3-4.8,3.1-6.1,5.8c-0.3,0.6-0.5,1.3-0.9,2.2 c-0.9-3.3-2.9-5.5-5.6-7.1c-3.6-2.2-7.5-3.2-11.6-3.6c-4.9-0.4-9.8-0.4-14.7-1c-7-0.9-13.4-3.1-16.7-10.3 c0,7.3,0.1,14.6,0,21.9c-0.1,3.9,1.6,6.8,4.7,8.9c1.6,1,3.4,1.9,5.2,2.5c4.8,1.7,9.8,1.9,14.8,1.9c4.8,0,9.6,0.4,14.2,2.1 c4.5,1.6,8.2,4.1,9.7,9.2c1.5-5,5-7.6,9.4-9.1c3-1,6.2-1.6,9.4-1.9c4.1-0.4,8.2-0.3,12.2-0.7c4.9-0.5,9.6-1.7,13.5-4.9 c2.6-2.2,4.2-4.9,4.1-8.5C103.6,828.2,103.7,821.6,103.7,815z"></path> <path class="st59" d="M276.4,808.2c-0.2-6.4-3.5-11.1-9.5-13.6c-5.7-2.4-11.6-2.7-17.6-1.5c-5.4,1-9.9,3.5-13.2,7.9 c-0.2,0.2-0.4,0.4-0.8,0.9c0-9.1,0-17.8,0-26.6c-3.3,0-6.4,0-9.6,0c0,23.2,0,46.3,0,69.4c3.2,0,6.4,0,9.6,0c0-0.7,0-1.2,0-1.8 c0-9.2,0-18.4,0-27.5c0-6.7,3.8-11.6,10.1-13.8c3.5-1.2,7.1-1.3,10.6-0.7c7.9,1.2,10.8,4.7,10.8,12.7c0,9.8,0,19.7,0,29.5 c0,0.5,0,1.1,0,1.6c3.3,0,6.5,0,9.7,0c0-2.8,0-5.5,0-8.2C276.5,827.1,276.7,817.6,276.4,808.2z"></path> <path class="st59" d="M210,794.2c-1.1,0-1.5,0.3-1.8,1.3c-3,8.2-6.1,16.3-9.1,24.4c-1.6,4.2-3.2,8.4-4.9,13.1 c-4.4-13.2-8.6-26-12.9-38.8c-3.1,0-6.2,0-9.3,0c-1,0-1.5,0.3-1.8,1.3c-3.8,11.9-7.7,23.8-11.6,35.7c-0.2,0.5-0.4,1-0.6,1.8 c-1.4-3.9-2.7-7.3-3.9-10.8c-3.2-8.8-6.4-17.7-9.6-26.5c-0.2-0.5-0.6-1.3-1-1.3c-3.3-0.1-6.7-0.1-10.1-0.1 c0,0.4,0,0.5,0.1,0.7c6.3,16.4,12.7,32.7,19,49.1c0.2,0.4,0.8,0.8,1.3,0.8c2.6,0.1,5.1,0,7.7,0.1c1.3,0.1,1.7-0.3,2.1-1.5 c4-12.3,8-24.7,12.2-37.3c4.3,13.2,8.5,26,12.7,38.8c3.6,0,7.1,0,10.6,0c6.6-16.8,13.2-33.6,20-50.6 C215.8,794.2,212.9,794.2,210,794.2z"></path> <path class="st59" d="M10.1,799.5c1.6,1.2,3.4,2.2,5.3,3c4.4,1.7,9,2.1,13.7,2.3c3.9,0.2,7.8,0.3,11.6,0.9 c6.3,1.1,12,3.3,14.4,10.2c1.4-5,5-7.6,9.5-9c3-0.9,6.3-1.5,9.4-1.8c4.1-0.4,8.3-0.3,12.4-0.7c4.5-0.4,8.8-1.5,12.5-4.2 c2.7-1.9,4.7-4.3,4.7-7.8c0.1-7.3,0-14.7,0-22c0-0.2,0-0.3-0.1-0.8c-1.9,5.3-5.9,7.6-10.6,9.2c-4.7,1.5-9.5,1.8-14.4,1.8 c-4.3,0-8.6,0.4-12.7,1.6c-3.2,0.9-6.2,2.2-8.4,4.8c-1.1,1.3-1.8,2.8-2.6,4.2c-0.6-2.9-2.5-5-5.1-6.6 c-3.6-2.3-7.7-3.2-11.9-3.6c-5-0.4-10.1-0.4-15.1-1C16,778.9,9.6,777,6.5,769.5c0,7.7,0,15,0,22.3 C6.4,795,7.6,797.6,10.1,799.5z"></path> <path class="st59" d="M444.4,803c0-2.9,0-5.8,0-8.8c-3.3,0-6.4,0-9.6,0c0,16.8,0,33.6,0,50.5c3.2,0,6.3,0,9.5,0 c0-6.1,0-12.1,0-18c0-3.5-0.1-7,0.3-10.5c0.5-5.6,3.2-10,8.6-12.2c1.9-0.8,4-1.2,6.1-1.3c2.7-0.1,5.4,0.3,8.1,0.5 c0-3.2,0-6.6,0-10.1C457.3,791,449.8,794.5,444.4,803z"></path> <path class="st59" d="M350.9,844.7c3.2,0,6.3,0,9.5,0c0-23.2,0-46.3,0-69.4c-3.2,0-6.4,0-9.5,0 C350.9,798.5,350.9,821.6,350.9,844.7z"></path> </g> <path class="st60" d="M6.5,813.3c3.4,7.1,9.7,9.4,16.7,10.3c4.8,0.6,9.8,0.6,14.7,1c4.1,0.4,8,1.4,11.6,3.6 c2.7,1.6,4.6,3.8,5.6,7.1c0.3-0.9,0.5-1.5,0.9-2.2c1.3-2.7,3.5-4.5,6.1-5.8c4.4-2.2,9.1-2.9,14-3c5.3-0.2,10.6-0.1,15.8-1.6 c1.7-0.5,3.3-1.1,4.9-1.8c3.4-1.6,5-3.4,7.1-7.6c0,0.7,0,1.2,0,1.7c0,6.6-0.1,13.2,0,19.7c0.1,3.6-1.4,6.3-4.1,8.5 c-3.9,3.2-8.6,4.4-13.5,4.9c-4.1,0.4-8.2,0.3-12.2,0.7c-3.2,0.4-6.4,1-9.4,1.9c-4.4,1.4-8,4.1-9.4,9.1 c-1.5-5.2-5.2-7.6-9.7-9.2c-4.6-1.6-9.4-2-14.2-2.1c-5,0-10-0.3-14.8-1.9c-1.8-0.6-3.6-1.5-5.2-2.5c-3.1-2.1-4.8-5-4.7-8.9 C6.5,827.9,6.5,820.6,6.5,813.3z"></path> <path class="st60" d="M6.5,769.5c3.2,7.5,9.5,9.4,16.3,10.3c5,0.6,10.1,0.6,15.1,1c4.2,0.4,8.3,1.3,11.9,3.6 c2.6,1.6,4.5,3.7,5.1,6.6c0.8-1.3,1.5-2.9,2.6-4.2c2.2-2.6,5.2-3.9,8.4-4.8c4.2-1.2,8.4-1.6,12.7-1.6c4.9,0,9.7-0.3,14.4-1.8 c4.7-1.5,8.6-3.9,10.6-9.2c0.1,0.5,0.1,0.7,0.1,0.8c0,7.3,0,14.7,0,22c0,3.5-2.1,5.9-4.7,7.8c-3.7,2.7-8,3.8-12.5,4.2 c-4.1,0.4-8.3,0.3-12.4,0.7c-3.2,0.3-6.4,0.9-9.4,1.8c-4.5,1.4-8.2,4-9.5,9c-2.4-6.9-8.1-9.1-14.4-10.2 c-3.8-0.7-7.7-0.8-11.6-0.9c-4.7-0.2-9.3-0.5-13.7-2.3c-1.9-0.7-3.7-1.8-5.3-3c-2.5-1.9-3.7-4.5-3.7-7.7 C6.5,784.5,6.5,777.2,6.5,769.5z"></path> <path class="st61" d="M194.1,833c1.8-4.7,3.3-8.9,4.9-13.1c3.1-8.1,6.1-16.3,9.1-24.4c0.4-1,0.8-1.3,1.8-1.3 c2.9,0.1,5.8,0,8.9,0c-6.7,17-13.3,33.8-20,50.6c-3.5,0-7,0-10.6,0c-4.2-12.8-8.4-25.6-12.7-38.8c-4.2,12.7-8.2,25-12.2,37.3 c-0.4,1.2-0.9,1.6-2.1,1.5c-2.6-0.1-5.1,0-7.7-0.1c-0.5,0-1.1-0.4-1.3-0.8c-6.4-16.3-12.7-32.7-19-49.1c-0.1-0.1,0-0.3-0.1-0.7 c3.4,0,6.7,0,10.1,0.1c0.3,0,0.8,0.8,1,1.3c3.2,8.8,6.4,17.7,9.6,26.5c1.3,3.5,2.5,7,3.9,10.8c0.3-0.8,0.5-1.3,0.6-1.8 c3.9-11.9,7.8-23.8,11.6-35.7c0.3-1,0.8-1.3,1.8-1.3c3.1,0.1,6.1,0,9.3,0C185.5,807,189.7,819.8,194.1,833z"></path> <path class="st61" d="M428.1,845c-3.1,0.1-6.1,0.4-9.2,0.3c-4.3-0.2-6-2-7-6.7c-0.8,0.7-1.5,1.4-2.2,2 c-4.2,3.3-9.2,4.9-14.4,5.6c-5.4,0.7-10.7,0.5-15.9-1.4c-9.3-3.4-10.9-12-8.8-18.9c0.9-3,3.1-5.1,5.9-6.5 c4.2-2.2,8.7-3,13.4-3.6c5.3-0.7,10.7-1.1,16-1.9c3.4-0.5,5-2,5.4-4.5c0.5-3.1-0.8-6.1-3.7-7.4c-1.8-0.8-3.9-1.4-5.8-1.6 c-4.4-0.5-8.9-0.6-13.2,0.8c-4.3,1.3-7.1,4-7.4,8.8c-3,0-6,0-9,0c-0.2-6.4,4.3-12.8,10.9-15.3c5.9-2.2,12.1-2.6,18.3-1.9 c3.6,0.4,7.2,1.1,10.6,2.3c5.9,2.2,8.5,6.3,8.5,12.6c0,8.4,0.1,16.8,0,25.2c-0.1,5.3,2.3,5.9,6.5,5.5c0.3,0,0.7-0.1,1.2-0.2 C428.1,840.3,428.1,842.4,428.1,845z M411.4,818.9c-1.7,0.6-3.2,1.4-4.8,1.7c-4.5,0.7-9,1.2-13.5,1.9c-3.2,0.5-6.4,1.1-9.5,2.2 c-3.3,1.2-4.6,4.2-3.9,7.6c0.7,3.6,3.4,5.3,6.6,6c7,1.6,13.6,0.5,19.6-3.6c3.1-2.1,5.1-5.1,5.4-9 C411.5,823.4,411.4,821.1,411.4,818.9z"></path> <path class="st61" d="M225.7,775.3c3.2,0,6.3,0,9.6,0c0,8.8,0,17.5,0,26.6c0.4-0.5,0.6-0.7,0.8-0.9c3.3-4.4,7.8-6.9,13.2-7.9 c6-1.1,11.9-0.9,17.6,1.5c6,2.5,9.3,7.2,9.5,13.6c0.3,9.4,0.1,18.9,0.2,28.3c0,2.7,0,5.4,0,8.2c-3.2,0-6.3,0-9.7,0 c0-0.5,0-1.1,0-1.6c0-9.8,0-19.7,0-29.5c0-8-3-11.5-10.8-12.7c-3.6-0.5-7.1-0.4-10.6,0.7c-6.3,2.1-10.1,7.1-10.1,13.8 c-0.1,9.2,0,18.4,0,27.5c0,0.6,0,1.1,0,1.8c-3.2,0-6.3,0-9.6,0C225.7,821.6,225.7,798.5,225.7,775.3z"></path> <path class="st61" d="M444.4,844.7c-3.3,0-6.4,0-9.5,0c0-16.8,0-33.6,0-50.5c3.2,0,6.3,0,9.6,0c0,3,0,5.9,0,8.8 c5.4-8.5,12.9-12,23-10.1c0,3.5,0,6.9,0,10.1c-2.7-0.2-5.4-0.6-8.1-0.5c-2,0.1-4.2,0.5-6.1,1.3c-5.4,2.2-8,6.6-8.6,12.2 c-0.3,3.5-0.2,7-0.3,10.5C444.3,832.7,444.4,838.6,444.4,844.7z"></path> <path class="st61" d="M360.4,844.7c-3.2,0-6.3,0-9.5,0c0-23.1,0-46.2,0-69.4c3.2,0,6.3,0,9.5,0 C360.4,798.4,360.4,821.5,360.4,844.7z"></path> </g> </g> </g> <path class="st61" d="M336.5,832.8c0.2-8.5,0.1-16.9,0-25.4c0-1.4-0.1-2.8-0.5-4.1c-1.3-5-5-7.6-9.6-9c-7.4-2.3-14.9-2.5-22.4-1 c-10,1.9-14.8,7.1-15.9,16.6c3,0,6,0,9,0c0.9-5.3,3.4-7.9,8.7-9.2c4-0.9,8.1-0.9,12.2-0.4c1.8,0.2,3.7,0.7,5.4,1.5 c3,1.3,4.4,4.3,3.9,7.7c-0.4,2.3-2,3.9-5.4,4.3c-5.3,0.7-10.6,1.2-15.8,1.8c-4.4,0.5-8.8,1.3-12.8,3.3c-3,1.5-5.5,3.6-6.5,6.9 c-2.1,6.5-0.7,15.5,8.9,18.9c7.5,2.6,15,2.2,22.4-0.2c3.8-1.2,7.2-3,9.9-6.1c0.1,0.5,0.2,0.7,0.3,0.9c0.8,3.7,2.4,5.4,6.2,5.7 c3.2,0.3,6.5,0,9.8-0.1c0-2.6,0-4.8,0-7c-0.4,0.1-0.8,0.2-1.1,0.2C339.3,838.6,336.4,838.4,336.5,832.8z M327.3,826.5 c-0.3,3.2-2.1,5.8-4.6,7.6c-6.1,4.6-13.1,5.8-20.4,4.1c-4.2-1-6.5-3.8-6.5-7.2c-0.1-3,1.2-5.4,4-6.4c3.1-1,6.3-1.6,9.5-2.2 c4.4-0.7,8.8-1.1,13.2-1.9c1.7-0.3,3.3-1.1,5-1.6C327.3,821.4,327.5,824,327.3,826.5z"></path> </g> <g> <path d="M593.9,835.8c-2.2,1.3-5.1,1.9-8.7,1.9c-5.9,0-10.3-2-13.2-6.1c-2.9-4.1-4.3-10-4.3-17.7c0-8.8,1.3-15.3,3.8-19.3 c2.6-4,6.2-6.1,10.8-6.1c1.1,0,2,0.2,2.7,0.6c0.6,0.4,1.1,1.3,1.4,2.6c0.2,1.2,0.2,2.4,0,3.6c-0.2,1.2-0.2,2.6-0.1,4.3 c0.2,2.6,1,4.7,2.4,6.3c1.4,1.6,3.2,2.4,5.4,2.4c2.1,0,3.7-0.6,5-1.8c1.3-1.2,1.9-2.8,1.9-5c0-2.5-0.8-4.9-2.4-7.3 c-1.6-2.3-3.9-4.2-7-5.7c-3-1.4-6.8-2.2-11.2-2.2c-5.4,0-10.4,1.2-14.9,3.5c-4.5,2.3-8.2,5.7-10.9,10.1c-2.7,4.4-4.1,9.7-4.1,15.8 c0,6.3,1.2,11.5,3.7,15.8c2.5,4.3,5.8,7.6,10.1,9.8s8.9,3.4,14.1,3.4c5.4,0,10.1-1.2,14.1-3.7c4-2.4,6.9-5.9,8.8-10.4l-1.1-0.9 C598.3,832.5,596.1,834.5,593.9,835.8z"></path> <path d="M659.3,838.1c-3.2,0-4.8-1.7-4.8-5.1v-25.3c0-7.5-1.8-12.9-5.5-16.2c-3.7-3.3-8.9-5-15.7-5c-4.2,0-8.1,0.5-11.7,1.6 c-3.6,1.1-6.5,2.7-8.6,4.8c-2.2,2.1-3.3,4.8-3.3,7.9c0,2.1,0.6,3.7,1.9,4.9c1.3,1.2,2.9,1.8,4.9,1.8c2.1,0,3.9-0.8,5.4-2.3 c1.4-1.5,2.2-3.9,2.4-7.2l0.2-1.3c0.3-2.9,1-4.9,2.1-6.1c1.1-1.2,2.5-1.8,4.3-1.8c2.7,0,4.6,1,5.9,3.1c1.3,2.1,1.9,5.7,1.9,10.9v9 c-1.7,0.3-3.3,0.6-4.8,0.9c-1.5,0.3-2.9,0.5-4.1,0.7c-7.9,1.5-13.6,3.8-17.3,6.8c-3.7,3-5.5,6.3-5.5,9.9c0,4.7,1.5,8.3,4.5,10.9 c3,2.5,6.7,3.8,11.1,3.8c3.8,0,6.9-0.9,9.3-2.6c2.4-1.7,4.7-3.8,7-6.2c0.6,2.6,1.9,4.7,3.8,6.2c1.9,1.6,4.6,2.3,7.9,2.3 c3.1,0,5.5-0.5,7.3-1.5c1.7-1,3.3-2.4,4.7-4.2l-1-0.9H659.3z M638.7,833.5c-1.8,1.5-3.4,2.6-4.7,3.4c-1.3,0.7-2.8,1.1-4.3,1.1 c-2.1,0-3.8-0.8-5.3-2.3c-1.4-1.6-2.2-3.9-2.2-7c0-3.7,1-6.6,3.1-8.7c2.1-2.2,4.9-3.7,8.4-4.6c1-0.2,1.9-0.3,2.6-0.5 c0.8-0.2,1.5-0.3,2.3-0.5V833.5z"></path> <path d="M702.5,786.5c-3.3,0-6.5,0.4-9.5,1.3c-3.1,0.8-5.9,2-8.4,3.5l-1-3.5l-1.1-1.1l-19.4,6.6v1.1l1.6,0.3 c1.5,0.3,2.6,0.9,3.1,1.7c0.6,0.8,0.9,2.1,0.9,3.8v62.2c0,2.9-1.4,4.7-4.2,5.5l-1.4,0.5v1.1h27.8v-1.1l-2.2-0.6 c-2.7-0.8-4.1-2.7-4.1-5.7v-19.8c4.1,1.8,9.2,2.6,15.2,2.6c7.7,0,13.7-2.6,17.9-7.9c4.2-5.3,6.3-12.5,6.3-21.6 c0-9.3-1.9-16.4-5.8-21.4C714.3,789,709.1,786.5,702.5,786.5z M703.3,835.7c-2.2,4-5.3,5.9-9.1,5.9c-3.4,0-6.5-0.6-9.4-1.8v-46.1 c3.4-1.8,6.6-2.7,9.4-2.7c4,0,7.1,1.8,9.3,5.5c2.1,3.7,3.2,10.2,3.2,19.4C706.7,825.1,705.5,831.7,703.3,835.7z"></path> <path d="M761.5,838.6c-1.2,0.8-2.6,1.2-4.2,1.2c-1.8,0-3.3-0.7-4.5-2.1c-1.2-1.4-1.8-3.4-1.8-6.1v-41.2h12.9v-2.3h-12.8l0.3-16 h-1.1l-9.4,10.4c-1.7,1.7-3.4,3-5.1,4c-1.7,1-3.8,1.8-6.1,2.3l-2.7,0.5v1.1h7.9v39.1c0,5.3,1.4,9.2,4.1,11.7 c2.7,2.4,6.5,3.7,11.4,3.7c3.8,0,7-0.8,9.7-2.3c2.7-1.5,4.8-3.6,6.3-6.2l-1.1-1.1C764,836.7,762.8,837.8,761.5,838.6z"></path> <path d="M783.6,780.6c2.6,0,4.8-0.8,6.5-2.5c1.8-1.6,2.6-3.7,2.6-6.2c0-2.6-0.9-4.7-2.6-6.3c-1.8-1.6-3.9-2.4-6.5-2.4 c-2.6,0-4.8,0.8-6.6,2.4c-1.8,1.6-2.7,3.7-2.7,6.3c0,2.5,0.9,4.6,2.7,6.2C778.8,779.7,781,780.6,783.6,780.6z"></path> <path d="M792.7,839.7c-0.6-0.9-0.9-2.1-0.9-3.7v-32l0.3-16.2l-1.1-1.1l-20.9,6.7v1.1l1.6,0.3c1.5,0.3,2.6,0.9,3.1,1.7 c0.6,0.8,0.9,2,0.9,3.6v35.8c0,1.5-0.3,2.7-0.9,3.7c-0.6,0.9-1.6,1.6-3.1,2.1l-1.6,0.5v1.1h26.8v-1.1l-1.1-0.3 C794.3,841.3,793.3,840.6,792.7,839.7z"></path> <path d="M858.6,789.4v-1.1H842v1.1l2.9,0.7c1.5,0.5,2.4,1.2,2.7,2.2c0.3,1,0.2,2.2-0.5,3.8L836,827.7l-12-31.9 c-1.1-3.2-0.2-5.2,2.7-5.9l2.1-0.5v-1.1h-29.6v1.1l1.6,0.5c2.6,0.8,4.4,2.6,5.5,5.1l20.2,48.6h6.6l16.8-48.3 c0.5-1.5,1.2-2.7,2-3.4c0.8-0.8,1.9-1.3,3.4-1.7L858.6,789.4z"></path> <path class="st62" d="M918,810.5c-2.1-3.2-5-6-8.3-8.3c1.9-2.1,3.4-4.5,4.6-7.3l-1.3-1c-2,2.5-4,4.4-6.1,5.9c0,0-0.1,0-0.1,0.1 c-0.1,0-0.1,0.1-0.2,0.1c-0.1,0-0.2,0.1-0.4,0.2c0,0,0,0,0,0c-2.2,1.2-4.1,1.7-5.6,1.9c-1.5,0.2-2.4,0-2.4,0 c-17.6,0-18.7-16.7-18.7-16.7c-0.4-6.8,0.6-11.6,2.2-14.9c1.1-2.3,2.4-3.9,3.9-5c4.5-3.6,13.2-3.4,17.1,1c1.3,1.4,0.3,6.9,0.2,8.8 c-0.1,4.6,2.8,8.5,7.6,8.5c2,0,3.6-0.6,4.9-1.7c1.3-1.2,1.9-2.8,1.9-4.8c0-6.5-5.3-11.7-10.7-14.2c-9.8-4.6-23.1-3.4-31.8,2.7 c-2.2,1.5-4.1,3.4-5.6,5.5c-4.2,6-4.7,14.5-2,21.1c2.7,6.7,8.6,11.4,14.9,14.6c-5.2,2.1-9.6,4.8-13.1,8.2 c-3.6,3.4-5.3,7.3-5.3,11.7c0,6.2,2.4,11,7.3,14.6c4.9,3.6,11.9,5.4,21.1,5.4c9,0,16.2-2.1,21.6-6.4 C922.7,833,924.2,819.9,918,810.5z M902.7,839.6c-2.3,2.8-5.6,4.2-9.9,4.2c-4.7,0-8.4-1.7-11.2-5.2c-2.8-3.5-4.2-8-4.2-13.5 c0-2.9,0.2-5.3,0.5-7.2c0.3-2,1-3.7,2-5.3c1-1.6,2.4-3.3,4.3-5.1c0.4,0.3,0.9,0.5,1.3,0.7c5.3,2.3,9.4,4.6,12.4,6.6 c3,2.1,5.1,4.2,6.3,6.4c1.2,2.2,1.8,4.7,1.8,7.5C906.1,833.2,904.9,836.8,902.7,839.6z"></path> </g> </g> </svg> 