<?xml version="1.0" encoding="UTF-8"?> <svg xmlns="http://www.w3.org/2000/svg" xmlns:xlink="http://www.w3.org/1999/xlink" version="1.1" id="Layer_1" x="0px" y="0px" width="1000px" height="1101px" viewBox="0 0 1000 1101" style="enable-background:new 0 0 1000 1101;" xml:space="preserve"> <style type="text/css"> .st0{fill:#EB3F43;} .st1{clip-path:url(#SVGID_00000074428548831286318150000005723706191884509828_);fill:#47423E;} .st2{fill:#47423E;} .st3{clip-path:url(#SVGID_00000054967159400726995290000007643264530008359837_);fill:#47423E;} .st4{clip-path:url(#SVGID_00000082355883283267889390000000549411035055978668_);fill:#47423E;} .st5{clip-path:url(#SVGID_00000145057043384456300730000002057729292582020997_);fill:#47423E;} .st6{clip-path:url(#SVGID_00000111904454625502524930000000249830170909525178_);fill:#47423E;} .st7{clip-path:url(#SVGID_00000165932326944448132850000011535169655825609111_);fill:#47423E;} .st8{clip-path:url(#SVGID_00000165932326944448132850000011535169655825609111_);fill:#096980;} .st9{clip-path:url(#SVGID_00000165932326944448132850000011535169655825609111_);fill:#143C64;} .st10{clip-path:url(#SVGID_00000074432620046742775080000012732703157488243360_);} .st11{clip-path:url(#SVGID_00000127738023339453759460000013712822516671901855_);} .st12{clip-path:url(#SVGID_00000127735250152605996930000006971052449166998202_);} .st13{clip-path:url(#SVGID_00000138542130095523220650000005071993304574433944_);} .st14{fill:#0658BD;} .st15{fill-rule:evenodd;clip-rule:evenodd;fill:#EE3124;} .st16{fill:none;stroke:#FF5451;stroke-width:11.6722;stroke-linecap:round;stroke-linejoin:round;stroke-miterlimit:10;} .st17{fill:none;stroke:url(#SVGID_00000139270193866210836910000014010065390368653745_);stroke-width:11.6722;stroke-linecap:round;stroke-linejoin:round;stroke-miterlimit:10;} .st18{fill:none;stroke:url(#SVGID_00000061441361190153423640000000911114253850092205_);stroke-width:11.6722;stroke-linecap:round;stroke-linejoin:round;stroke-miterlimit:10;} .st19{fill:none;stroke:url(#SVGID_00000154399143547658587990000004146553122818832513_);stroke-width:11.6722;stroke-linecap:round;stroke-linejoin:round;stroke-miterlimit:10;} .st20{fill:#2E2F30;} .st21{fill:#380F47;} .st22{fill:url(#SVGID_00000115512805653838271240000013927539441130015390_);} .st23{fill:url(#SVGID_00000093871500249789459680000009965689071236815525_);} .st24{fill:url(#SVGID_00000041295388762972212540000000515267459590612650_);} .st25{clip-path:url(#SVGID_00000142176296803961484930000011806578665583189120_);} .st26{fill:#7ACBE0;} .st27{fill:#72D1E2;} .st28{fill:#68D7E3;} .st29{fill:#5FDEE5;} .st30{fill:#81C6DF;} .st31{fill:#8ABDDC;} .st32{fill:#92B8DB;} .st33{fill:#9AB2D9;} .st34{fill:#A3ACD8;} .st35{fill:#AAA6D6;} .st36{fill:#B2A0D4;} .st37{fill:#BA9AD2;} .st38{fill:#C295D1;} .st39{fill:#CA8ECF;} .st40{fill:#D289CE;} .st41{fill:#DB81CB;} .st42{fill:#DF7ECB;} .st43{fill:#E778C9;} .st44{fill:#EF72C7;} .st45{fill:#F76DC6;} .st46{fill:#FC68C5;} .st47{fill:#FF66C4;} .st48{fill:#FFFFFF;} .st49{fill:#1D1D1B;} .st50{fill-rule:evenodd;clip-rule:evenodd;} .st51{fill:#A9B4BD;} .st52{fill:#F5333F;} .st53{fill:#FF98D7;} .st54{fill:#FF0006;} .st55{fill:#0057F2;} .st56{fill:#FFCA00;} .st57{clip-path:url(#SVGID_00000027576294012421016450000007319520991133644444_);fill:none;} .st58{clip-path:url(#SVGID_00000045576858817628694410000004228515191643082897_);fill:#FF0006;} .st59{fill:#FDFDFE;} .st60{fill:#01CDCF;} .st61{fill:#101327;} .st62{fill:#1C6E85;} .st63{fill:#051D49;} .st64{fill:url(#XMLID_00000047761311801130092760000008728779238684420030_);} .st65{fill-rule:evenodd;clip-rule:evenodd;fill:#E4002B;} .st66{fill-rule:evenodd;clip-rule:evenodd;fill:#BF2824;} </style> <g> <linearGradient id="SVGID_00000163069248378210388180000003006211430645133451_" gradientUnits="userSpaceOnUse" x1="308.0801" y1="907.7401" x2="377.8514" y2="1003.3724" gradientTransform="matrix(1 0 0 -1 0 1502)"> <stop offset="0" style="stop-color:#EE73C8"></stop> <stop offset="1" style="stop-color:#73CFE1"></stop> </linearGradient> <polygon style="fill:url(#SVGID_00000163069248378210388180000003006211430645133451_);" points="385.4,478 385.4,488.6 274.4,650.7 267.1,650.7 "></polygon> <linearGradient id="SVGID_00000085959414409594711800000018078512243167520414_" gradientUnits="userSpaceOnUse" x1="303.1281" y1="882.8422" x2="117.6392" y2="967.2232" gradientTransform="matrix(1 0 0 -1 28.27 1488.5)"> <stop offset="0.14" style="stop-color:#FF66C4"></stop> <stop offset="0.56" style="stop-color:#C492D0"></stop> <stop offset="1" style="stop-color:#62DCE4"></stop> </linearGradient> <path style="fill:url(#SVGID_00000085959414409594711800000018078512243167520414_);" d="M186.2,595.9c0,0-18.9,2.3-27.5-10.1 c-8.5-12.3,2.1-31.1,18.1-35.1s35.6,0,35.6,0s141.6-27.9,147.1,17.1c0,0-16.6,47.2-77.3,60c-7.1,1.5-14.4,1.7-21.6,0.4 c-11.5-2-29.8-7.4-50.4-21.5C210.2,606.7,195.1,596,186.2,595.9z"></path> <linearGradient id="SVGID_00000061453224087787413100000005193189158420552835_" gradientUnits="userSpaceOnUse" x1="180.9202" y1="1016.6415" x2="316.0092" y2="901.7999" gradientTransform="matrix(1 0 0 -1 28.27 1488.5)"> <stop offset="0.14" style="stop-color:#FF66C4"></stop> <stop offset="0.56" style="stop-color:#C492D0"></stop> <stop offset="1" style="stop-color:#62DCE4"></stop> </linearGradient> <path style="fill:url(#SVGID_00000061453224087787413100000005193189158420552835_);" d="M376.5,543.7c0,0-2.7,27.4-25.8,24.2 s-36-22.7-45.4-13.7s0,34.8-30.9,46.5c0,0-28,9.7-52.6-10c-3.5-2.9-6.8-6.1-9.6-9.6c-18.6-22.7-14.1-59.7,0.8-83 c26.1-40.7,88-40.9,127.2-20.7c9.8,5,18.2,11.9,24.5,20.2C374.5,510.6,379.3,526.5,376.5,543.7z"></path> <g> <defs> <path id="SVGID_00000152967324966287535570000018098681831446588325_" d="M372.5,482.4c0,0-0.3,8.3-7.8,15.5 c-6.3-8.3-14.7-15.2-24.5-20.2c-39.2-20.2-101.2-20-127.2,20.7c-14.9,23.3-19.4,60.3-0.8,83c2.9,3.5,6.1,6.7,9.6,9.6 c0,0-42.5,7.6-56.9-42.8c-14.5-50.5-12.9-73.1,3.1-92.3s52.8-29.3,77.8-15.3s43.8,14.1,75.1,9.8s45.8,8.8,48.1,14.2 C371.4,469.9,372.5,482.4,372.5,482.4z"></path> </defs> <clipPath id="SVGID_00000031193102043483716910000012742041800328105914_"> <use xlink:href="#SVGID_00000152967324966287535570000018098681831446588325_" style="overflow:visible;"></use> </clipPath> <g style="clip-path:url(#SVGID_00000031193102043483716910000012742041800328105914_);"> <rect x="339.3" y="379.1" transform="matrix(0.9846 -0.175 0.175 0.9846 -81.6079 67.4779)" class="st26" width="4.9" height="234.5"></rect> <rect x="349.1" y="379.1" transform="matrix(0.9846 -0.175 0.175 0.9846 -81.457 69.1893)" class="st27" width="4.9" height="234.5"></rect> <rect x="360.1" y="379.1" transform="matrix(0.9846 -0.175 0.175 0.9846 -81.2871 71.1132)" class="st28" width="4.9" height="234.5"></rect> <rect x="370.1" y="379.1" transform="matrix(0.9846 -0.175 0.175 0.9846 -81.1323 72.8665)" class="st29" width="4.9" height="234.5"></rect> <rect x="328.6" y="379.1" transform="matrix(0.9846 -0.175 0.175 0.9846 -81.7725 65.6063)" class="st30" width="4.9" height="234.5"></rect> <rect x="317.9" y="379.1" transform="matrix(0.9846 -0.175 0.175 0.9846 -81.9378 63.7349)" class="st31" width="4.9" height="234.5"></rect> <rect x="307.2" y="379.1" transform="matrix(0.9846 -0.175 0.175 0.9846 -82.103 61.8641)" class="st32" width="4.9" height="234.5"></rect> <rect x="297" y="379.1" transform="matrix(0.9846 -0.175 0.175 0.9846 -82.2616 60.0639)" class="st33" width="4.9" height="234.5"></rect> <rect x="286.7" y="379.1" transform="matrix(0.9846 -0.175 0.175 0.9846 -82.4203 58.2637)" class="st34" width="4.9" height="234.5"></rect> <rect x="276.7" y="379.1" transform="matrix(0.9846 -0.175 0.175 0.9846 -82.574 56.5201)" class="st35" width="4.9" height="234.5"></rect> <rect x="265.9" y="379.1" transform="matrix(0.9846 -0.175 0.175 0.9846 -82.7414 54.6192)" class="st36" width="4.9" height="234.5"></rect> <rect x="255.6" y="379.1" transform="matrix(0.9846 -0.175 0.175 0.9846 -82.8999 52.8275)" class="st37" width="4.9" height="234.5"></rect> <rect x="245.1" y="379.1" transform="matrix(0.9846 -0.175 0.175 0.9846 -83.063 50.9784)" class="st38" width="4.9" height="234.5"></rect> <rect x="234.8" y="379.1" transform="matrix(0.9846 -0.175 0.175 0.9846 -83.2216 49.1782)" class="st39" width="4.9" height="234.5"></rect> <rect x="224.5" y="379.1" transform="matrix(0.9846 -0.175 0.175 0.9846 -83.3802 47.3779)" class="st40" width="4.9" height="234.5"></rect> <rect x="214.1" y="379.1" transform="matrix(0.9846 -0.175 0.175 0.9846 -83.5406 45.5631)" class="st41" width="4.9" height="234.5"></rect> <rect x="203.4" y="379.1" transform="matrix(0.9846 -0.175 0.175 0.9846 -83.705 43.6923)" class="st42" width="4.9" height="234.5"></rect> <rect x="193.6" y="379.1" transform="matrix(0.9846 -0.175 0.175 0.9846 -83.8575 41.9669)" class="st43" width="4.9" height="234.5"></rect> <rect x="183.3" y="379.1" transform="matrix(0.9846 -0.175 0.175 0.9846 -84.0164 40.1632)" class="st44" width="4.9" height="234.5"></rect> <rect x="172.9" y="379.1" transform="matrix(0.9846 -0.175 0.175 0.9846 -84.1765 38.3519)" class="st45" width="4.9" height="234.5"></rect> <rect x="162.6" y="379.1" transform="matrix(0.9846 -0.175 0.175 0.9846 -84.3362 36.5398)" class="st46" width="4.9" height="234.5"></rect> <rect x="152.5" y="379.1" transform="matrix(0.9846 -0.175 0.175 0.9846 -84.491 34.7808)" class="st47" width="4.9" height="234.5"></rect> </g> </g> <polygon class="st48" points="187.9,520.9 187.9,534.3 205.5,534.3 205.5,543.2 187.9,543.2 187.9,563.8 177.1,563.8 177.1,511.8 207,511.8 207,520.9 "></polygon> <path class="st48" d="M239,524.1c-9.9-2.4-20.1,1-22.3,2.7l3.5,7.5c0,0,8.3-4.3,13.4-2.7c5,1.6,4.1,7.5,4.1,7.5s-17.5-1.1-22.2,5.1 c-4.6,6.2-3.2,18.2,5.9,20.2c9.1,2,16.3-3,17.2-5.9l2.3,5.4h7.6v-27.5C248.6,536.3,248.9,526.5,239,524.1z M230.7,556.5 c-5.7,0.8-8-3.6-6-7.2c0.9-1.6,2.4-2.7,4.2-3.1c2.8-0.6,5.7-0.8,8.5-0.7v2.9C237.5,548.4,237.8,555.4,230.7,556.5z"></path> <path class="st48" d="M253.3,524.5h11.9l7.5,22c0.2,0.7,0.5,1.4,0.6,2.2c0.4,1.6,0.7,3.3,0.8,4.9c0,0,1-4.8,1.5-6.1 c0.4-1.3,7.5-23,7.5-23h11.8l-16.2,43.3c0,0-5,18.1-22.9,13.3v-8.6c0,0,11,3.9,13.3-8.7L253.3,524.5z"></path> <path class="st48" d="M299.8,524.2h8.3l1.7,6.5h0.5c0,0,4.7-9.3,15.6-7.1l-0.8,10.3c0,0-7.4-1.8-11.7,2.6c0,0-2.5,2-2.5,8.8v18.5 h-11L299.8,524.2z"></path> <rect x="332.1" y="508.4" class="st48" width="11" height="55.3"></rect> <rect x="353.7" y="523.9" class="st48" width="11" height="39.8"></rect> <path class="st48" d="M358.2,508.4h1.6c2.6,0,4.7,2.1,4.7,4.7v1.3c0,2.6-2.1,4.7-4.7,4.7h-1.6c-2.6,0-4.7-2.1-4.7-4.7v-1.3 C353.5,510.5,355.6,508.4,358.2,508.4z"></path> <path class="st47" d="M242.2,647.5c-0.3,0-0.6-0.3-0.6-0.6v-13.1c0-0.3,0.3-0.6,0.6-0.6s0.6,0.3,0.6,0.6v13.1 C242.8,647.2,242.5,647.5,242.2,647.5z"></path> <path class="st47" d="M248.7,641h-13.1c-0.3,0-0.6-0.3-0.6-0.6c0-0.3,0.3-0.6,0.6-0.6h13.1c0.3,0,0.6,0.3,0.6,0.6 C249.3,640.7,249,641,248.7,641L248.7,641z"></path> </g> <g> <path class="st49" d="M78.5,122.8V68.9c0-5.7-2.9-7-8-6.5v-4.5l18.8-3.2c4-0.6,6,1.1,6,4.3v1.1c0,2,1.5,2.5,2.9,1 c2.4-2.6,8.2-6.7,16.5-6.7c13,0,24.8,9.9,24.8,28.1c0,19.4-13.8,29.8-27.5,29.8c-8,0-12.2-3.5-14.4-3.5c-1.9,0-2.4,1.7-2.4,6v8 c0,5.8,2.1,7.7,8.6,8.1v4.3H70.6v-4.3C76.4,130.5,78.5,128.6,78.5,122.8z M109.9,107.2c8.2,0,11.8-7.7,11.8-18.9 c0-13.4-5.2-24.5-14.5-24.5c-5.6,0-11.8,3.5-11.8,17.3v8.3C95.3,103.6,104.1,107.2,109.9,107.2z"></path> <path class="st49" d="M142.7,83.8c0-19.9,15.9-29.3,31.4-29.3c13,0,23.1,6.7,23.1,17.1c0,10.6-9.9,11.7-22.2,12.7l-10.1,0.6 c-2.1,0.1-3.2,1.2-3.2,4c0,9.2,9.8,14.4,19.1,14.4c4.6,0,10.6-1.4,14.9-6.5l3.4,3c-2.4,4.7-11.7,12.5-26,12.5 C157.6,112.3,142.7,103,142.7,83.8z M165,80.4l5.5-0.5c9.2-0.6,11.3-2.9,11.3-8.2c0-6.1-2.7-12-9.6-12c-8.8,0-11.3,9.2-11.3,15.7 C160.9,79,161.9,80.5,165,80.4z"></path> <path class="st49" d="M208.3,122.8V68.9c0-5.7-2.9-7-8-6.5v-4.5l18.8-3.2c4-0.6,6,1.1,6,4.3v1.1c0,2,1.5,2.5,2.9,1 c2.4-2.6,8.2-6.7,16.5-6.7c13,0,24.8,9.9,24.8,28.1c0,19.4-13.8,29.8-27.5,29.8c-8,0-12.2-3.5-14.4-3.5c-1.9,0-2.4,1.7-2.4,6v8 c0,5.8,2.1,7.7,8.6,8.1v4.3h-33.3v-4.3C206.1,130.5,208.3,128.6,208.3,122.8z M239.6,107.2c8.2,0,11.8-7.7,11.8-18.9 c0-13.4-5.2-24.5-14.5-24.5c-5.6,0-11.8,3.5-11.8,17.3v8.3C225,103.6,233.8,107.2,239.6,107.2z"></path> <path class="st49" d="M277.8,122.8V68.9c0-5.7-2.9-7-8-6.5v-4.5l18.8-3.2c4-0.6,6,1.1,6,4.3v1.1c0,2,1.5,2.5,2.9,1 c2.4-2.6,8.2-6.7,16.5-6.7c13,0,24.8,9.9,24.8,28.1c0,19.4-13.8,29.8-27.5,29.8c-8,0-12.2-3.5-14.4-3.5c-1.9,0-2.4,1.7-2.4,6v8 c0,5.8,2.1,7.7,8.6,8.1v4.3h-33.3v-4.3C275.7,130.5,277.8,128.6,277.8,122.8z M309.1,107.2c8.2,0,11.8-7.7,11.8-18.9 c0-13.4-5.2-24.5-14.5-24.5c-5.6,0-11.8,3.5-11.8,17.3v8.3C294.6,103.6,303.4,107.2,309.1,107.2z"></path> <path class="st49" d="M341.9,83.8c0-19.9,15.9-29.3,31.4-29.3c13,0,23.1,6.7,23.1,17.1c0,10.6-9.9,11.7-22.2,12.7l-10.1,0.6 c-2.1,0.1-3.2,1.2-3.2,4c0,9.2,9.8,14.4,19.1,14.4c4.6,0,10.6-1.4,14.9-6.5l3.4,3c-2.4,4.7-11.7,12.5-26,12.5 C356.8,112.3,341.9,103,341.9,83.8z M364.3,80.4l5.5-0.5c9.2-0.6,11.3-2.9,11.3-8.2c0-6.1-2.7-12-9.6-12c-8.8,0-11.3,9.2-11.3,15.7 C360.2,79,361.2,80.5,364.3,80.4z"></path> <path class="st49" d="M407.5,98.8V68.8c0-5.7-2.9-7-8-6.5v-4.5l18.8-3.2c4-0.6,6,1.1,6,3.9v2.4c0,2.5,1.9,2.9,3.6,0.7 c3.1-3.6,7.5-7.6,14.5-7.6c7.9,0,13.5,5.1,13.5,11.9c0,5.6-3.7,9.9-10.1,9.9c-11.4,0-3.6-13.2-11.4-13.2c-5.5,0-10.2,6.6-10.2,22.6 v13.4c0,6.2,2.1,8.1,8.5,8.4v4.3h-33.2v-4.3C405.4,106.9,407.5,105,407.5,98.8z"></path> <path class="st49" d="M451.6,103.1c0-5.1,4.1-9.2,9.1-9.2c5,0,9.1,4.1,9.1,9.2c0,5.1-4.1,9.2-9.1,9.2 C455.7,112.3,451.6,108.2,451.6,103.1z"></path> </g> <g> <path class="st50" d="M613.9,45.2c-1.1,0-2.1,0.2-3.1,0.6c-1,0.4-1.9,1-2.6,1.8c-0.8,0.8-1.3,1.7-1.7,2.6c-0.4,1-0.6,2.1-0.6,3.1 c0.2,2,1.1,3.9,2.6,5.3c1.5,1.4,3.5,2.2,5.5,2.2c2,0,4-0.8,5.5-2.2c1.5-1.4,2.4-3.3,2.6-5.3c0-1.1-0.2-2.1-0.6-3.1 c-0.4-1-1-1.9-1.8-2.7c-0.8-0.8-1.7-1.4-2.6-1.8C616,45.4,614.9,45.2,613.9,45.2z"></path> <path d="M619.8,72.7H608v57.7h11.9V72.7z"></path> <path class="st50" d="M675.7,81.5c4.3-6.3,11.5-9.8,20.3-9.8c14.4,0,24.1,9.4,24,23.3v35.4h-12V98c0-9.4-5-14.8-13.7-14.8 s-14.8,6.2-14.8,15v32.1h-12.1V98c0-9.4-5-14.8-13.7-14.8c-8.7,0-14.8,6.2-14.8,15v32.1h-12V72.8h12.1v5c5.5-5.3,12.6-6.1,16.6-6.1 C664.2,71.6,671.5,75.2,675.7,81.5z"></path> <path class="st50" d="M757.1,71.6c-7.2,0-13.3,2.3-18.1,6.4v-5.3h-12V153h12v-28.4c4.7,4.3,10.9,6.5,18.1,6.5 c16.4,0,28.7-12.8,28.7-29.7C785.8,84.5,773.4,71.6,757.1,71.6z M756,119.8c-10.2,0-17.5-7.8-17.5-18.3c0-10.5,7.3-18.3,17.5-18.3 s17.5,7.7,17.5,18.3C773.5,112.1,766.2,119.8,756,119.8z"></path> <path class="st50" d="M950.5,119.9c3.4,0,7.2-1.3,10.4-3.5l1.1-0.7l5.9,9.3l-1,0.7c-5,3.7-11,5.7-17.2,5.7 c-13,0-20.2-7.7-20.2-21.9V84h-11.7V72.7h11.7V55.5h12.1v17.2h22.9V84h-22.9v25.5C941.5,116.2,944.8,119.9,950.5,119.9z"></path> <path class="st50" d="M862.5,161c-0.7,0-1.5,0.2-2.1,0.6c-0.6,0.4-1.1,1-1.4,1.7c-0.3,0.7-0.4,1.4-0.2,2.2c0.1,0.7,0.5,1.4,1,1.9 c0.5,0.5,1.2,0.9,1.9,1c0.7,0.1,1.5,0.1,2.2-0.2c0.7-0.3,1.3-0.8,1.7-1.4c0.4-0.6,0.6-1.3,0.6-2.1c0-1-0.4-1.9-1.1-2.6 S863.5,161,862.5,161z"></path> <path class="st50" d="M882.9,144c3.6,0,6.6,1.3,8.7,3.7l0.2,0.3l-3,3.2l-0.3-0.3c-0.7-0.8-1.6-1.4-2.6-1.9c-1-0.4-2-0.6-3.1-0.6 c-4.2,0-7.3,3.3-7.3,7.7c0,4.4,3.1,7.8,7.3,7.8c2.2,0,4.2-0.9,5.7-2.5l0.3-0.3l2.9,3.3l-0.2,0.2c-2.2,2.4-5.2,3.6-8.7,3.6 c-7,0-12.1-5-12.1-12.1C870.9,149,875.9,144,882.9,144z"></path> <path class="st50" d="M910.8,144c-7.1,0-12.4,5.2-12.4,12.1c0,6.9,5.3,12.1,12.4,12.1c7.1,0,12.4-5.2,12.4-12.1 C923.2,149.2,917.8,144,910.8,144z M910.8,163.9c-4.4,0-7.5-3.2-7.5-7.8c0-4.5,3.2-7.7,7.5-7.7s7.5,3.3,7.5,7.7 C918.3,160.5,915.2,163.9,910.8,163.9z"></path> <path class="st50" d="M963.4,154.5c0-3.9-2.1-6.2-5.8-6.2c-3.7,0-6.2,2.6-6.5,6.3v13.6h-4.7v-13.8c0-3.9-2.1-6.2-5.8-6.2 c-3,0-6.2,2-6.2,6.3v13.6h-4.7v-23.9h4.7v2l1.3-0.9c1.7-1.1,3.7-1.6,5.8-1.6c3.2,0,6,1.2,7.7,3.3l0.6,0.7l0.6-0.7 c1.7-2.1,4.5-3.3,7.7-3.3c5.8,0,9.8,3.8,9.8,9.4v15h-4.7V154.5z"></path> <path class="st50" d="M839.4,72.8v5.4c-4.7-4.3-10.8-6.5-18-6.5c-16.3,0-28.7,12.9-28.7,29.9c0,17,12.3,29.9,28.7,29.9 c7.2,0,13.3-2.3,18-6.6v5.5h12.1V72.8H839.4z M822.6,120c-10.1,0-17.6-7.8-17.6-18.4c0-10.6,7.3-18.5,17.6-18.5 c10.2,0,17.5,7.7,17.5,18.5C840,112.3,832.7,120,822.6,120z"></path> <path class="st50" d="M888.2,83.1c5.2,0,9.7,2,13.7,5.8l1,1l7.9-8.2l-0.8-0.9c-5.1-5.9-12.8-9.1-21.5-9.1c-17.4,0-30,12.6-30,29.9 c0,17.3,12.6,29.9,30,29.9c8.6,0,16.3-3.2,21.5-9l0.8-0.9l-7.6-8.4l-1,1c-4,3.9-8.9,6-13.9,6c-10,0-17.4-7.8-17.4-18.4 C870.9,91,878.1,83.1,888.2,83.1z"></path> <path d="M619.8,72.7H608v57.7h11.9V72.7z"></path> <path class="st50" d="M675.7,81.5c4.3-6.3,11.5-9.8,20.3-9.8c14.4,0,24.1,9.4,24,23.3v35.4h-12V98c0-9.4-5-14.8-13.7-14.8 s-14.8,6.2-14.8,15v32.1h-12.1V98c0-9.4-5-14.8-13.7-14.8c-8.7,0-14.8,6.2-14.8,15v32.1h-12V72.8h12.1v5c5.5-5.3,12.6-6.1,16.6-6.1 C664.2,71.6,671.5,75.2,675.7,81.5z"></path> <path class="st50" d="M757.1,71.6c-7.2,0-13.3,2.3-18.1,6.4v-5.3h-12V153h12v-28.4c4.7,4.3,10.9,6.5,18.1,6.5 c16.4,0,28.7-12.8,28.7-29.7C785.8,84.5,773.4,71.6,757.1,71.6z M756,119.8c-10.2,0-17.5-7.8-17.5-18.3c0-10.5,7.3-18.3,17.5-18.3 s17.5,7.7,17.5,18.3C773.5,112.1,766.2,119.8,756,119.8z"></path> <path class="st50" d="M950.5,119.9c3.4,0,7.2-1.3,10.4-3.5l1.1-0.7l5.9,9.3l-1,0.7c-5,3.7-11,5.7-17.2,5.7 c-13,0-20.2-7.7-20.2-21.9V84h-11.7V72.7h11.7V55.5h12.1v17.2h22.9V84h-22.9v25.5C941.5,116.2,944.8,119.9,950.5,119.9z"></path> <path class="st50" d="M839.4,72.8v5.4c-4.7-4.3-10.8-6.5-18-6.5c-16.3,0-28.7,12.9-28.7,29.9c0,17,12.3,29.9,28.7,29.9 c7.2,0,13.3-2.3,18-6.6v5.5h12.1V72.8H839.4z M822.6,120c-10.1,0-17.6-7.8-17.6-18.4c0-10.6,7.3-18.5,17.6-18.5 c10.2,0,17.5,7.7,17.5,18.5C840,112.3,832.7,120,822.6,120z"></path> <path class="st50" d="M888.2,83.1c5.2,0,9.7,2,13.7,5.8l1,1l7.9-8.2l-0.8-0.9c-5.1-5.9-12.8-9.1-21.5-9.1c-17.4,0-30,12.6-30,29.9 c0,17.3,12.6,29.9,30,29.9c8.6,0,16.3-3.2,21.5-9l0.8-0.9l-7.6-8.4l-1,1c-4,3.9-8.9,6-13.9,6c-10,0-17.4-7.8-17.4-18.4 C870.9,91,878.1,83.1,888.2,83.1z"></path> <path class="st51" d="M560.7,86.5c3.5,0,6.9,0.8,10.1,2.2c3.2,1.5,6,3.6,8.2,6.2c1.2-2.7,1.8-5.5,1.8-8.4c0-2.6-0.5-5.2-1.5-7.7 c-1-2.4-2.5-4.6-4.4-6.5c-1.9-1.9-4.1-3.3-6.5-4.3c-2.4-1-5.1-1.5-7.7-1.5c-2.7,0-5.3,0.5-7.7,1.5c-2.4,1-4.7,2.5-6.5,4.3 c-1.9,1.9-3.4,4.1-4.4,6.5c-1,2.4-1.5,5-1.5,7.7c0,2.9,0.7,5.8,1.8,8.4c2.2-2.7,5-4.8,8.2-6.3C553.7,87.2,557.2,86.4,560.7,86.5z"></path> <path d="M580.9,110.4c0-4-1.2-7.8-3.4-11.1c-2.2-3.3-5.4-5.9-9.1-7.4c-3.7-1.5-7.7-1.9-11.7-1.1c-3.9,0.8-7.5,2.7-10.3,5.5 c-2.8,2.8-4.7,6.4-5.5,10.2c-0.8,3.9-0.4,7.9,1.1,11.6c1.5,3.7,4.1,6.8,7.4,9c3.3,2.2,7.2,3.4,11.2,3.4c5.3,0,10.5-2.2,14.2-5.9 C578.7,120.7,580.8,115.7,580.9,110.4z"></path> <path class="st52" d="M580.9,40.8c0-4-1.2-7.8-3.4-11.1c-2.2-3.3-5.4-5.9-9.1-7.4c-3.7-1.5-7.7-1.9-11.7-1.1 c-3.9,0.8-7.5,2.7-10.3,5.5c-2.8,2.8-4.7,6.4-5.5,10.2c-0.8,3.9-0.4,7.9,1.1,11.6c1.5,3.7,4.1,6.8,7.4,9c3.3,2.2,7.2,3.4,11.2,3.4 c5.4,0,10.5-2.1,14.3-5.9C578.7,51.2,580.9,46.1,580.9,40.8z"></path> </g> <g> <path d="M563.5,1051.6V988h36c12.7,0,18.6,8.2,18.6,16.2c0,8-4.9,13.3-10.9,14.6c6.8,1,12.1,7.5,12.1,15.5 c0,9.3-6.2,17.3-18.7,17.3L563.5,1051.6L563.5,1051.6z M601.5,1007.3c0-3.1-2.3-5-5.6-5h-15.9v9.9h15.9 C599.2,1012.2,601.5,1010.4,601.5,1007.3z M602.7,1031.9c0-3.2-2.3-5.3-6.3-5.3h-16.5v10.8h16.5 C600.3,1037.3,602.7,1035.3,602.7,1031.9z"></path> <path d="M630.6,1051.6V988h46.6v14.3H647v9.9h29.6v14.3H647v10.8h30.2v14.3H630.6z"></path> <path d="M733.9,1051.6l-26.9-36.8v36.8h-16.4V988h16.9l25.7,35v-35h16.5v63.6H733.9z"></path> <path d="M789.7,1015c1.9-3.6,4.8-6.6,8.3-8.7c3.6-2.1,7.6-3.1,11.8-3.1c4.3,0,8,0.9,11.1,2.7c3.2,1.8,5.5,4.1,7,6.9v-8.8h8.2v48.3 H828v-9c-1.6,2.8-4,5.1-7.2,7c-3.2,1.9-6.9,2.8-11.1,2.8c-4.1,0-8.2-1-11.7-3.2c-3.5-2.2-6.4-5.2-8.3-8.9c-2-3.8-3-8.2-3-13 C786.7,1023.1,787.7,1018.7,789.7,1015L789.7,1015z M825.7,1018.6c-1.4-2.6-3.5-4.7-6-6.2c-2.5-1.4-5.4-2.2-8.3-2.2 c-2.9,0-5.8,0.7-8.3,2.1c-2.5,1.4-4.6,3.6-6,6.2c-1.5,2.7-2.2,5.9-2.2,9.5c0,3.6,0.7,6.9,2.2,9.6c1.4,2.6,3.4,4.8,6,6.3 c2.5,1.4,5.4,2.2,8.3,2.2c2.9,0,5.8-0.7,8.3-2.2c2.6-1.5,4.7-3.7,6-6.3c1.5-2.7,2.2-5.9,2.2-9.6S827.2,1021.2,825.7,1018.6 L825.7,1018.6z"></path> <path d="M865.3,1006c3.2-1.8,6.9-2.7,10.9-2.7c4.4,0,8.3,1,11.8,3.1c3.5,2.1,6.4,5.1,8.3,8.7c2,3.7,3,8.1,3,13c0,4.9-1,9.2-3,13 c-1.9,3.7-4.8,6.8-8.3,8.9c-3.6,2.1-7.7,3.2-11.8,3.2c-4.2,0-7.9-0.9-11.1-2.7c-3.2-1.8-5.6-4.1-7.2-7v8.9h-8.1v-65.2h8.1v25.9 C859.6,1010.1,862.1,1007.8,865.3,1006L865.3,1006z M888.9,1018.5c-1.4-2.6-3.4-4.7-6-6.2c-2.5-1.4-5.4-2.1-8.3-2.1 c-2.9,0-5.7,0.7-8.2,2.1c-2.6,1.5-4.7,3.7-6.1,6.3c-1.5,2.7-2.3,5.9-2.3,9.5c0,3.6,0.8,6.8,2.3,9.6c1.4,2.6,3.5,4.8,6.1,6.3 c2.5,1.4,5.4,2.2,8.3,2.2s5.7-0.7,8.3-2.2c2.6-1.5,4.7-3.7,6-6.3c1.5-2.7,2.2-6,2.2-9.6C891.1,1024.4,890.3,1021.2,888.9,1018.5 L888.9,1018.5z"></path> <path d="M917.2,1051.2c-3-1.3-5.3-3-7-5.3c-1.7-2.3-2.7-5-2.8-7.8h8.4c0.2,2.4,1.4,4.4,3.4,5.9c2,1.5,4.7,2.3,8,2.3 c3.1,0,5.5-0.7,7.3-2c1.8-1.4,2.7-3.1,2.7-5.1c0-2.1-1-3.7-2.8-4.7c-1.9-1-4.8-2-8.8-3c-3-0.7-6-1.7-8.9-2.9 c-2.3-1-4.3-2.4-5.9-4.3c-1.6-1.9-2.4-4.4-2.4-7.5c0-2.4,0.8-4.8,2.2-6.8c1.5-2.1,3.6-3.7,6.3-4.9c2.7-1.2,5.8-1.8,9.3-1.8 c5.4,0,9.8,1.4,13.1,4.1c3.3,2.7,5.1,6.4,5.3,11.1h-8.1c-0.2-2.5-1.2-4.6-3.1-6.1c-1.9-1.5-4.4-2.3-7.5-2.3c-2.9,0-5.2,0.6-7,1.8 c-1.7,1.2-2.6,2.8-2.6,4.8c0,0.7,0.1,1.4,0.4,2.1c0.3,0.7,0.7,1.3,1.2,1.8c1.1,1.1,2.5,1.9,3.9,2.5c2.1,0.8,4.3,1.5,6.5,2.1 c2.9,0.7,5.8,1.7,8.5,2.8c2.2,0.9,4.1,2.3,5.6,4.1c1.6,1.8,2.4,4.2,2.4,7.1c0,2.5-0.7,5-2.2,7.1c-1.5,2.1-3.6,3.8-6.3,5 c-2.7,1.2-5.8,1.8-9.3,1.8C923.5,1053.1,920.2,1052.4,917.2,1051.2L917.2,1051.2z"></path> <path d="M779.6,1044.4h-5.1c-0.6,0-1.3-0.3-1.7-0.7c-0.5-0.5-0.7-1.1-0.7-1.7v-54.9H764v57.2c0,2.1,0.9,4.2,2.4,5.7 c1.5,1.5,3.6,2.3,5.7,2.3h7.5V1044.4z"></path> </g> <g> <path d="M377.1,294.8c0.1-0.5,0.2-1,0.3-1.6h0l0.3-1.3l10.6,0.5v0.4c-0.4,8.6-5,15.8-12.6,19.8c-3.9,2.1-8.2,3.1-12.6,3.1 c-4.8,0-9.7-1.2-14.2-3.8c-9.7-5.4-14.6-16.3-12.8-28.4c1.6-10.6,9.5-18.8,20.1-20.9c9-1.8,17.3-0.3,23.3,4.3 c5.4,4.1,8.4,10.4,8.7,17.7v0.4h-10.7l-0.1-0.7c-0.1-0.3-0.2-0.8-0.3-1.2c-1.9-7.5-6.7-11.4-14.2-11.4h-0.1 c-7.5,0-12.9,4.4-14.2,11.4c-0.7,3.8-0.6,8.1,0.3,12c1.6,6.6,6.9,10.5,14.4,10.4C370.5,305.6,375.2,301.8,377.1,294.8z"></path> <path d="M72.4,294.9c0.1-0.5,0.2-1,0.3-1.6l0.1,0l0.3-1.3l10.6,0.5v0.4c-0.4,8.6-5,15.8-12.6,19.8c-3.9,2.1-8.2,3.1-12.6,3.1 c-4.8,0-9.7-1.2-14.2-3.8c-9.7-5.4-14.6-16.3-12.7-28.4c1.6-10.6,9.5-18.8,20.1-20.9c9-1.8,17.3-0.3,23.2,4.3 c5.4,4.1,8.4,10.4,8.7,17.7v0.4H73l-0.1-0.7c-0.1-0.3-0.2-0.8-0.3-1.2c-1.9-7.5-6.7-11.4-14.2-11.4h-0.1c-7.5,0-12.9,4.4-14.2,11.4 c-0.7,3.8-0.6,8.1,0.3,12c1.6,6.6,6.9,10.5,14.4,10.4C65.8,305.7,70.5,301.9,72.4,294.9z"></path> <path class="st50" d="M122.6,262.1L122.6,262.1c7.8,0,14.8,2.7,19.8,7.7c5,4.9,7.6,11.8,7.5,19.2c-0.1,15.6-11.4,26.5-27.4,26.5 h-0.1c-15.9,0-27-11-27-26.6c0-7.6,2.7-14.4,7.7-19.3C108,264.8,114.9,262.1,122.6,262.1z M122.8,305.8c4.2,0,7.9-1.5,10.6-4.2l0,0 c3.1-3.1,4.8-7.7,4.7-12.9c-0.1-5-1.6-9.3-4.5-12.3c-2.8-2.9-6.6-4.5-11.1-4.5h-0.3c-9.2,0.1-15.3,6.9-15.2,17 c0.1,10.1,6.3,16.8,15.5,16.8H122.8z"></path> <path d="M196.3,295.2L173,263.3h-12.2v52h9.8v-39.1l27.6,39.1h8v-52h-9.9V295.2z"></path> <path d="M420.5,263.3h11.6v19.3h18.6v11.1h-18.5v20.7h-11.6v-20.6h-18.5v-11.1h18.4V263.3z"></path> <path d="M259.2,295.2l-23.4-31.9h-12.2v52h9.8v-39.1l27.6,39.1h8v-52h-9.9V295.2z"></path> <path d="M487.2,284.5l5,1c12,2.5,16.9,6.8,16.9,14.9c0,9.9-8.1,16.1-21.1,16.1c-13.8,0-22.8-7.1-23.4-18.7v-0.5l8.9,0.3v0.3 c0.7,5.1,6.1,10.2,15,10.2c5.2,0,10.5-2.2,10.5-7.1c0-3.8-2.7-5.5-11.6-7.5l-5.4-1.1c-6.7-1.4-15.6-4.5-15.6-14.7 c0-9.3,7.5-15.3,20-15.3c12.5,0,20.4,7,21.4,18.9v0.5l-10-0.2v-0.3c-0.7-5.1-5.5-10.6-11.6-10.6c-6.1,0-9.8,2.6-9.8,6.7 C476.5,281.4,480,282.9,487.2,284.5z"></path> <path d="M297.4,293h21.8v-9.2h-21.8v-11.3h27.7v-9.1h-39v51h40v-9.3h-28.8V293z"></path> </g> <g> <rect x="646.6" y="427.6" class="st53" width="107.7" height="107.7"></rect> <rect x="646.6" y="535.3" class="st54" width="107.7" height="107.7"></rect> <rect x="754.3" y="535.3" class="st55" width="107.7" height="107.7"></rect> <path class="st55" d="M754.3,535.3h-53.9c-29.7,0-53.9-24.1-53.9-53.9s24.1-53.9,53.9-53.9s53.9,24.1,53.9,53.9h-53.9 C730.2,481.4,754.3,505.6,754.3,535.3z"></path> <path class="st53" d="M862,589.2c0,29.7-24.1,53.9-53.9,53.9h-53.9V535.3h53.9C837.9,535.3,862,559.4,862,589.2z"></path> <rect x="754.3" y="427.6" class="st56" width="107.7" height="107.7"></rect> <g> <circle class="st56" cx="700.4" cy="589.2" r="53.9"></circle> </g> <g> <g> <g> <defs> <circle id="SVGID_00000065050195594187050330000018070463825590789780_" cx="808.2" cy="481.4" r="53.9"></circle> </defs> <clipPath id="SVGID_00000093897080317310490420000008181466241065746875_"> <use xlink:href="#SVGID_00000065050195594187050330000018070463825590789780_" style="overflow:visible;"></use> </clipPath> <rect x="754.3" y="427.6" style="clip-path:url(#SVGID_00000093897080317310490420000008181466241065746875_);fill:none;" width="107.7" height="107.7"></rect> </g> </g> <g> <g> <defs> <circle id="SVGID_00000037690891020612904350000014844941443225210008_" cx="808.2" cy="481.4" r="53.9"></circle> </defs> <clipPath id="SVGID_00000181774486699829260870000010617544834763943576_"> <use xlink:href="#SVGID_00000037690891020612904350000014844941443225210008_" style="overflow:visible;"></use> </clipPath> <circle style="clip-path:url(#SVGID_00000181774486699829260870000010617544834763943576_);fill:#FF0006;" cx="808.2" cy="481.4" r="53.9"></circle> </g> </g> </g> </g> <g> <g> <path d="M43.8,789.4c7.6,0,13.7,2.2,18.2,6.7s6.7,10.6,6.7,18.5s-2.3,14.1-6.8,18.6c-4.5,4.5-10.6,6.7-18.1,6.7H24.9v-50.6H43.8z M43.5,830c4.5,0,8-1.4,10.3-4.2c2.4-2.8,3.5-6.7,3.5-11.5c0-4.7-1.2-8.3-3.5-11c-2.4-2.6-5.8-4-10.3-4h-7.4v30.7L43.5,830 L43.5,830z"></path> <path d="M84.5,789.3V840H73.3v-50.6H84.5z"></path> <path d="M115.1,811.8h23.7v28.1h-8.9l-1-4.2h-0.6c-3.6,3.3-8.5,5-14.7,5c-7.4,0-13.2-2.4-17.6-7c-4.4-4.7-6.6-10.8-6.6-18.2 c0-7.8,2.4-14.3,7.3-19.3c4.9-5,11.1-7.5,18.8-7.5c6.6,0,11.9,1.6,15.9,4.8c4,3.2,6.3,7.2,6.9,12.1h-12.2 c-1.5-4.4-5.1-6.6-10.6-6.6c-4.4,0-8,1.5-10.7,4.7c-2.7,3.1-4,7-4,11.9c0,4.7,1.2,8.3,3.8,11.1c2.5,2.8,6,4.2,10.6,4.2 c3.7,0,6.8-0.8,9.1-2.2c2.3-1.5,3.5-3.6,3.5-6.5v-1.6h-12.6L115.1,811.8L115.1,811.8z"></path> <path d="M157.5,789.3V840h-11.2v-50.6H157.5z"></path> <path d="M200.5,789.3v10h-14.2V840h-11.1v-40.6H161v-10H200.5z"></path> <path d="M232.9,840l-3.8-11.3h-18.4l-3.8,11.3h-11.9l18.3-50.6h13.4l18.2,50.6H232.9z M213.7,819.5H226l-5.8-17.4h-0.6 L213.7,819.5z"></path> <path d="M259,830h24.8v10H248v-50.6h10.9L259,830L259,830z"></path> <path d="M330.9,789.3h4.2L316.9,840h-5l-18.1-50.6h4.2l16.2,45.7h0.4L330.9,789.3z"></path> <path d="M358.9,840.7c-6.9,0-12.6-2.4-17.1-7.4c-4.5-4.9-6.8-11.1-6.8-18.7c0-7.6,2.3-13.7,6.8-18.7c4.6-4.9,10.2-7.4,17-7.4 c6.8,0,12.5,2.4,17,7.4c4.6,4.9,6.8,11.1,6.8,18.7c0,7.6-2.3,13.7-6.8,18.7C371.4,838.2,365.7,840.7,358.9,840.7z M344.6,830.6 c3.8,4.2,8.5,6.4,14.2,6.4c5.7,0,10.4-2.2,14.2-6.4c3.8-4.2,5.7-9.6,5.7-16c0-6.4-1.9-11.7-5.7-16c-3.8-4.2-8.5-6.4-14.2-6.4 c-5.6,0-10.3,2.2-14.2,6.4s-5.7,9.6-5.7,16C338.9,821,340.8,826.4,344.6,830.6z"></path> <path d="M393.7,789.3V840h-3.9v-50.6H393.7z"></path> <path d="M444.1,825.3c-1,4.6-3.3,8.3-7.1,11.1c-3.7,2.8-8.2,4.2-13.4,4.2c-6.7,0-12.3-2.4-16.5-7.2c-4.2-4.8-6.4-11-6.4-18.6 c0-7.6,2.1-14,6.3-18.9c4.2-4.9,9.7-7.4,16.5-7.4c5.1,0,9.4,1.4,13.1,4.2c3.6,2.8,5.8,6.7,6.7,11.6h-4c-0.9-3.7-2.7-6.7-5.5-9 c-2.7-2.2-6.1-3.3-10.1-3.3c-5.8,0-10.4,2.2-13.9,6.5c-3.5,4.4-5.2,9.7-5.2,16.2c0,6.4,1.7,11.7,5.3,15.9 c3.5,4.2,8.1,6.2,13.7,6.2c4.1,0,7.6-1,10.5-3.2c2.8-2.2,4.9-5,6-8.6L444.1,825.3L444.1,825.3z"></path> <path d="M453.9,836.4h26.7v3.5H450v-50.6h29.9v3.5h-26v19.7h23.5v3.5h-23.5L453.9,836.4L453.9,836.4z"></path> <path d="M515.1,827.3c0,4.3-1.5,7.6-4.3,9.9c-2.8,2.3-6.6,3.4-11.1,3.4c-4.8,0-8.6-1.2-11.5-3.7c-2.9-2.4-4.6-6-5.1-10.6h3.9 c1.1,7.2,5.3,10.7,12.6,10.7c3.4,0,6.1-0.8,8.3-2.4c2.2-1.6,3.2-4,3.2-7.3c0-1.8-0.3-3.3-1-4.7c-0.6-1.3-1.6-2.4-2.8-3.3 c-1.3-0.9-2.4-1.6-3.5-2.1c-1-0.5-2.4-1-3.9-1.5l-2.6-0.8c-1.1-0.4-2-0.7-2.6-1c-0.6-0.2-1.5-0.6-2.7-1.2 c-1.2-0.6-2.1-1.1-2.8-1.7c-0.7-0.6-1.5-1.4-2.2-2.2c-0.8-0.8-1.3-1.9-1.7-3.1c-0.3-1.2-0.6-2.5-0.6-4c0-4,1.5-7.2,4.3-9.7 c2.8-2.5,6.5-3.5,11-3.5c4.4,0,8.1,1.2,10.9,3.8c2.8,2.6,4.4,5.9,4.6,10h-3.9c-0.3-3-1.4-5.4-3.4-7.4c-1.9-1.9-4.7-2.9-8.1-2.9 c-3.4,0-6.1,0.9-8.3,2.8c-2.2,1.8-3.2,4.2-3.2,7c0,1.3,0.3,2.5,0.8,3.5c0.6,1,1.1,1.9,1.7,2.5c0.6,0.6,1.5,1.2,2.8,1.9 c1.2,0.6,2.2,1,2.8,1.2c0.6,0.2,1.6,0.6,3,1l2.2,0.7c1.2,0.4,2.3,0.8,3.1,1.1c0.8,0.3,1.9,0.8,3.3,1.7c1.5,0.8,2.6,1.7,3.5,2.6 c0.8,1,1.6,2.2,2.3,3.8C514.8,823.7,515.1,825.4,515.1,827.3z"></path> </g> <g id="XMLID_1_"> <path id="XMLID_3_" class="st63" d="M648.4,708.7c13.5-0.9,27.6,0.7,40,6.3c11.1,5,20.7,13.6,26.2,24.6 c5.5,10.6,6.8,23.1,4.5,34.8c-2.2,11.3-8.2,21.8-16.9,29.4c-9.7,8.5-22.1,13.3-34.6,15.5c-11.3,2.1-22.8,2.4-34.3,2.2 c-8.7-0.1-17.5-0.2-26.2-0.7c-0.9-0.1-2.1-0.1-2.7-0.9c-0.8-1,0-2.4,1-2.8c5.3-3,9.5-7.6,12.7-12.8c3.5-5.6,5.9-11.8,8.4-18 c4.2-10.5,8-21.1,12.1-31.7c3.1-7.8,6.4-15.6,11.7-22.2c5-6.2,12.4-10.6,20.4-11.7c1-0.1,2.2-0.3,3.1,0.3c0.9,1.1-0.7,2-1.4,2.7 c-7.5,5.7-11.9,14.5-15.4,22.9c-6.6,16.3-11.6,33.4-19.2,49.4c-3,6.1-6.6,12.1-11.6,16.8c-0.9,0.9-1.9,1.5-2.5,2.6 c-0.3,1.1,0.9,1.6,1.9,1.5c6.8,0.4,13.6,0.5,20.5,0.3c11.4-0.4,22.9-2.5,33.1-7.8c10.1-5.1,18.1-13.9,22.2-24.5 c4.4-11,5.1-23.2,2.9-34.7c-1.9-9.8-6.7-19.3-14.4-25.8c-9.4-8.1-22.2-11.3-34.3-11.6c-10.6-0.1-21.5,1.6-31,6.7 c-9.1,4.7-16.3,13-19.3,22.8c-1.6,5.9-1.9,12.3-0.2,18.2c0.5,1.5-1.9,1.7-2.5,0.7c-3.5-4.7-4.7-10.8-4.5-16.6 c0.3-7.2,4-13.8,8.9-18.9c8.1-8.5,19.3-13.3,30.7-15.5C641.2,709.4,644.8,708.9,648.4,708.7L648.4,708.7z"></path> <path id="XMLID_6_" class="st63" d="M760.4,748.6c6.9-0.9,14.5-0.4,20.5,3.6c5.1,3.5,8,9.5,8.8,15.6c1,8.1-0.6,16.5-3.9,24 c-3.9,9-10.4,16.9-18.5,22.4c-7.8,5.2-17.4,8-26.8,6.8c-5.3-0.5-10.6-2.8-14.1-6.9c-4.7-5.3-6.1-12.8-5.6-19.6 c0.8-12,6.2-23.5,14.4-32.3C741.7,755.2,750.7,750,760.4,748.6 M762.9,752.3c-4.1,0.9-7.8,3.3-10.9,6.2c-4.9,4.4-8.6,10-11.6,15.9 c-4.7,9.8-7.1,21.1-5.6,31.9c0.7,4.1,2.4,8.7,6.5,10.4c4.6,2,9.9,0.2,13.9-2.5c6.7-4.5,11.4-11.4,14.9-18.6 c4.5-9.6,7.3-20.2,6.2-30.8c-0.5-3.9-1.5-8-4.4-10.7C769.7,752,766.1,751.5,762.9,752.3L762.9,752.3z"></path> <path id="XMLID_9_" class="st63" d="M881.4,749c4.7-0.9,9.6-1,14.3,0c3.3,0.8,6.6,2.4,8.4,5.4c2.4,3.8,2.1,8.7,0.1,12.6 c-3,5.8-8.4,10-14,13.1c-9.8,5.2-21,7.6-31.9,8.6c-1.4,4.4-1.7,9.2-1.6,13.8c0.1,3.6,1,7.4,3.5,10.1c2.1,2.3,5.3,3.4,8.4,3.3 c6.2,0.1,12.1-2.4,16.9-6.1c3.9-3,7.3-6.7,10.3-10.6c1.2-1.4,3.7,0.3,2.6,1.9c-6.2,11-17.8,19.3-30.6,20.3 c-6.2,0.4-12.8-0.4-17.8-4.4c-4.3-3.3-6.4-8.7-6.8-14c-0.8-8.2,1.2-16.4,4.5-23.9c3.2-6.8,7.5-13.2,13-18.4 C866.2,755.1,873.4,750.7,881.4,749 M882.6,753c-4.9,2.1-8.8,5.9-12.2,9.9c-5.1,6.6-8.8,14.2-11.2,22.2c5.6-0.6,11.3-2,16.6-4.2 c5.6-2.4,10.8-5.7,14.6-10.4c2.7-3.3,4.6-7.7,4.2-12.2c-0.2-2.2-1.2-4.7-3.3-5.6C888.5,751.3,885.2,751.9,882.6,753z"></path> <path id="XMLID_10_" class="st63" d="M842.1,750.4c1.5-1.4,3.9-2.2,5.8-1.4c1.7,0.7,2.3,2.7,2.1,4.4c-0.6,6.3-2.9,12.3-5.3,18.1 c-6.1,14.2-15.2,26.9-25.8,38c-3.4,3.4-7,6.8-11.1,9.3c-2,1.2-4.2,2.3-6.6,2.4c-1.4,0-2.8-0.5-3.4-1.8c-1-2.2-0.8-4.8-0.8-7.2 c0.9-15.1,2.8-30.3,1-45.4c-0.6-4.4-1.5-9.2-4-12.9c-0.7-1-1.7-1.7-2.5-2.6c-0.2-0.8,0.8-1,1.4-1.2c4.6-0.9,9.8,0.2,13.2,3.5 c3.2,2.9,4.5,7.3,5,11.5c1.6,12.6,0.7,25.4-0.3,38c-0.1,1.9-0.6,3.9,0.4,5.6c2.2,0,3.9-1.7,5.5-3.2c9.9-10.3,17.5-22.8,22.3-36.2 c1.7-4.8,3-9.8,3.5-14.8C842.5,753,842.4,751.6,842.1,750.4L842.1,750.4z"></path> <path id="XMLID_13_" class="st63" d="M902.8,809.5c3.3-0.9,7,1.4,7.5,4.8c0.8,3.4-2.1,7.1-5.6,7.1c-3.5,0.3-6.7-2.9-6.4-6.3 C898.3,812.5,900.2,810.1,902.8,809.5 M903.2,810.3c-2.1,0.4-3.7,2.2-4,4.3c-0.5,2.9,2.1,5.9,5,5.9c2.9,0.2,5.5-2.6,5.2-5.5 C909.3,812.1,906.1,809.6,903.2,810.3z"></path> <path id="XMLID_16_" class="st63" d="M901.9,811.6c1.5,0.1,3.7-0.5,4.7,1c0.7,1.3-0.3,2.7-1.5,3.1c0.7,1,1.4,2.1,2.1,3.2 c-2.4,0.6-2-3.3-4.2-3.3c0,1,0,2.1,0,3.2c-0.3,0-0.8,0-1,0C901.9,816.5,901.9,814,901.9,811.6 M902.9,812.4c0,0.9,0,1.7,0,2.6 c1,0.1,3,0.1,2.8-1.5C905.7,812.1,903.9,812.5,902.9,812.4L902.9,812.4z"></path> <linearGradient id="XMLID_00000170280147139455859330000010737903084752640897_" gradientUnits="userSpaceOnUse" x1="-1479.9227" y1="1293.9691" x2="-1478.8719" y2="1293.9691" gradientTransform="matrix(120.3713 0 0 120.3713 178827.5781 -154866.2188)"> <stop offset="0" style="stop-color:#B18935"></stop> <stop offset="0.4494" style="stop-color:#FAEBB6"></stop> <stop offset="1" style="stop-color:#B18935"></stop> </linearGradient> <path id="XMLID_17_" style="fill:url(#XMLID_00000170280147139455859330000010737903084752640897_);" d="M813.8,872.6 c0,0-4.7-1.3-5.6-2.7c-0.9-1.4-5.4-5.7-11.4-2.2c-6,3.5-16.4,14.9-17.2,15.7c-1.9,2.1-2.7,0-0.3-4.3c2-3.3,2.3-6.2,1.5-9.4 c-0.8-3.3-9-12.7-20.7-8.3c-9.7,3.6-17.5,10.8-27,14.9c-8.7,3.7-18.7,3.2-28,4.4c-2.5,0.3,3.3,7.4,15,8.6 c11.6,1.2,26.5,2.7,28,2.3c1.4-0.3,1.7,2.7-3.7,3.9c-5.4,1.2-35.3,2.2-49.7-2.3c-10.9-3.4-7.7-1.3-3.9,2.6 c10.6,10.6,32.5,18.8,40.8,21.1c11.7,3.1,25.5,6.1,37.5,2.6c17-5,27.2-21.7,32.3-32.6C805.7,877.4,810.8,872.6,813.8,872.6z"></path> </g> </g> <g> <path class="st65" d="M897.7,269.8c-0.1,0.5-0.4,1-0.8,1.4c-0.4,0.3-1,0.5-1.5,0.5H888c-0.3,0-0.7-0.1-1-0.2 c-0.3-0.1-0.6-0.3-0.8-0.6c-0.2-0.2-0.4-0.5-0.5-0.8c-0.1-0.3-0.2-0.6-0.1-1c0-0.3,0-0.4,0-0.4c0.4-7.5-4.4-13.1-15.2-13.1 c-18,0-31,14.6-32.7,33.9c-1.8,19.9,12.2,31.4,31.5,31.4c7.5,0,15-1.1,22.2-3.3c0.4-0.1,0.8-0.1,1.2-0.1c0.4,0.1,0.8,0.3,1.1,0.6 c0.3,0.3,0.5,0.6,0.7,1c0.1,0.4,0.2,0.8,0.1,1.2l-2.3,11.9c-0.1,0.5-0.3,1-0.7,1.3c-0.3,0.4-0.8,0.7-1.3,0.8 c-4,1.3-15.1,4.2-32.1,4.2c-40.5,0-56.9-23.1-54.4-46.7c2.3-21,16.3-51.9,71.4-51.9c8.7,0,17.3,1.2,25.7,3.5 c0.7,0.2,1.3,0.6,1.7,1.3c0.4,0.6,0.5,1.4,0.3,2.1L897.7,269.8z M671.4,249.5c-0.1,0.6,0,1.3,0.3,1.9c0.3,0.6,0.9,1,1.5,1.2 c2.3,0.9,2.9,3.1,0.8,4.8l-33.9,28L646,259c1-4,4.2-5.7,6.3-6.4l0.3-0.1c0.4-0.1,0.8-0.4,1.2-0.7c0.3-0.3,0.5-0.8,0.6-1.2l1.4-6.2 c0.1-0.3,0.1-0.7,0-1.1c-0.1-0.3-0.2-0.7-0.5-0.9c-0.2-0.3-0.5-0.5-0.8-0.7c-0.3-0.2-0.7-0.2-1-0.2h-43.7c-0.6,0-1.2,0.2-1.6,0.6 s-0.8,0.9-0.9,1.5l-1.4,6.3c-0.1,0.6,0,1.3,0.3,1.8c0.3,0.6,0.8,1,1.4,1.2l0.4,0.1c2.7,1.1,5.9,3.5,4.6,9.8l-10.4,47.3 c-2.7,12.9-7.1,15.6-11.3,16.1h-0.1c-0.5,0.1-1.1,0.3-1.5,0.7c-0.4,0.4-0.7,0.9-0.8,1.4l-1.4,6.1c-0.1,0.4-0.1,0.7,0,1.1 c0.1,0.4,0.3,0.7,0.5,1c0.2,0.3,0.5,0.5,0.9,0.7s0.7,0.2,1.1,0.2h45.9c0.5,0,1.1-0.2,1.5-0.5c0.4-0.3,0.7-0.8,0.8-1.3l1.6-7.1 c0.1-0.6,0-1.1-0.2-1.7c-0.3-0.5-0.7-0.9-1.3-1.1l-0.3-0.1c-2.3-0.9-5.5-2.9-4.7-6.7l5.3-24.2c18.3,33.2,24.3,42.7,46.3,42.7h19.8 c0.5,0,1.1-0.2,1.5-0.5c0.4-0.3,0.7-0.8,0.8-1.3l1.4-6.1c0.1-0.4,0.1-0.8,0-1.1c-0.1-0.4-0.2-0.7-0.5-1c-0.2-0.3-0.5-0.5-0.9-0.7 c-0.3-0.2-0.7-0.3-1.1-0.3c-5-0.1-7.4-1.2-12.3-7.5l-25.4-34.2l33.1-27.3c4.4-3.4,9.8-4.4,12.8-4.8l0.3,0c0.5,0,1-0.3,1.4-0.6 c0.4-0.3,0.7-0.8,0.8-1.3l1.4-6.1c0.1-0.4,0.1-0.7,0-1.1c-0.1-0.4-0.2-0.7-0.5-1c-0.2-0.3-0.5-0.5-0.8-0.7 c-0.3-0.2-0.7-0.2-1.1-0.2h-39.8c-0.6,0-1.2,0.2-1.6,0.6s-0.8,0.9-0.9,1.5L671.4,249.5z M802.7,269.8c0.5,0,1.1-0.2,1.5-0.5 c0.4-0.3,0.7-0.8,0.8-1.3l5.3-23.5c0.1-0.3,0.1-0.7,0-1.1s-0.2-0.7-0.5-1c-0.2-0.3-0.5-0.5-0.8-0.7c-0.3-0.2-0.7-0.2-1-0.2h-81.3 c-0.6,0-1.2,0.2-1.6,0.6c-0.5,0.4-0.8,0.9-0.9,1.5l-1.4,6.3c-0.1,0.6,0,1.2,0.3,1.8c0.3,0.5,0.8,0.9,1.4,1.1l0.3,0.1 c2.7,1,6.4,3.6,4.8,9.9l-15.9,71.7c-0.1,0.3-0.1,0.7,0,1.1s0.2,0.7,0.5,1c0.2,0.3,0.5,0.5,0.8,0.7c0.3,0.2,0.7,0.2,1,0.2h36.6 c0.5,0,1.1-0.2,1.5-0.5c0.4-0.3,0.7-0.8,0.8-1.3l1.6-7.2c0.1-0.5,0-1-0.2-1.5c-0.2-0.5-0.6-0.8-1.1-1.1l-0.4-0.2 c-2.3-1.1-5.8-3.7-4.6-8.8c0.1-0.7,3.6-16.2,3.6-16.2h31.1c0.6,0,1.1-0.2,1.5-0.5c0.4-0.3,0.7-0.8,0.8-1.4l2.9-13.1 c0.1-0.4,0.1-0.7,0-1.1c-0.1-0.4-0.2-0.7-0.5-1c-0.2-0.3-0.5-0.5-0.8-0.7c-0.3-0.2-0.7-0.2-1-0.2h-30l5.6-25.4l21,0 c6.8,0,8.8,3.5,8.5,9.5c0,0,0,0.1,0,0.3c0,0.3,0,0.7,0.1,1c0.1,0.3,0.3,0.6,0.5,0.9c0.2,0.3,0.5,0.5,0.8,0.6c0.3,0.1,0.6,0.2,1,0.2 H802.7z"></path> <path class="st65" d="M919.4,259.6c-1.5,1.4-3.4,2.2-5.5,2.2s-4-0.8-5.5-2.2c-1.5-1.4-2.3-3.3-2.3-5.4c0-2,0.9-4,2.3-5.4 c1.5-1.4,3.4-2.2,5.5-2.2s4,0.8,5.5,2.2c1.5,1.4,2.3,3.3,2.3,5.4C921.6,256.3,920.8,258.2,919.4,259.6z M920.1,251.6 c-0.3-0.8-0.8-1.6-1.4-2.2c-0.6-0.6-1.4-1.1-2.2-1.5c-0.8-0.3-1.7-0.5-2.6-0.5c-0.9,0-1.8,0.2-2.6,0.5c-0.8,0.3-1.6,0.8-2.2,1.5 c-0.6,0.6-1.1,1.4-1.4,2.2c-0.3,0.8-0.5,1.7-0.5,2.6c0,0.9,0.1,1.8,0.5,2.6c0.3,0.8,0.8,1.6,1.4,2.2c0.6,0.6,1.4,1.1,2.2,1.5 c0.8,0.3,1.7,0.5,2.6,0.5c0.9,0,1.8-0.2,2.6-0.5c0.8-0.3,1.6-0.8,2.2-1.5c0.6-0.6,1.1-1.4,1.4-2.2c0.3-0.8,0.5-1.7,0.5-2.6 C920.6,253.3,920.4,252.5,920.1,251.6z M915.6,257.2l-0.3-1.2c-0.2-0.8-0.7-1.1-1.5-1.1h-1.6v3.1h-1.3v-7.7h3.4 c1.8,0,2.7,0.8,2.7,2.2c0,0.5-0.2,1-0.5,1.3c-0.3,0.4-0.8,0.6-1.3,0.6c0.3,0,0.7,0.2,0.9,0.4c0.3,0.2,0.4,0.5,0.5,0.9l0.3,1.4 c0.1,0.3,0.2,0.7,0.5,0.9H916C915.8,257.7,915.6,257.5,915.6,257.2z M912.2,251.3v2.6h1.9c1,0,1.5-0.5,1.5-1.3 c0-0.9-0.5-1.3-1.5-1.3H912.2z"></path> </g> <g> <path class="st66" d="M230.2,1062.2c-12.8-8.3-30.3-9.7-58.3-1.9c-29.9,7-39.9,11.5-53,2.5c-5-4.4-6.8-11.6-5.5-21.9 c3.1-16.8,11.6-33,26.6-51c8.4-9.3,16.2-17.4,26.4-20.6c7.9-2,7.1,4.2,6.2,5c-1,0-2.7,0.2-4,1c-1.1,0.8-4,3.5-4.1,7 c-0.2,5.5,5.4,4.3,7.9,1.3c2.6-3.4,6.5-9.8,3.5-15.9c-1.3-2.1-3.5-3.6-6.2-4.1c-9.4-0.5-18.2,3.9-26.2,8.9 c-17.7,12.3-31.8,29.3-39.8,47.9c-4.6,11.2-8.8,27.3-2.5,40.4c4.8,9.1,14.9,13.9,26.9,12.9c8.4-0.9,18.6-3.6,25.4-5.2 c6.8-1.6,41.8-13.7,53.3,7.3c0,0,3.8-7.4,13.4-7.6c7.9-0.7,19.2,2.3,27.4,8.3C244.5,1072.5,236.7,1066.4,230.2,1062.2L230.2,1062.2 z"></path> <path class="st66" d="M175.4,992c-6.5-4.3-19.7,3.9-30.2,18c-9.6,12.6-13.8,27.3-9.3,34.1c6.7,8,19.2-3.6,24.5-9.8l0.7-0.7 c3.6-3.9,6.4-8.6,9.1-13c0,0,2.5-4.1,2.6-4.3c1.5-0.3,3.4-0.7,5.5-1.3c0,0.1-8,13.4-7.2,20.1c0.3,2,0.1,9.4,7.3,11.6 c9.6,1.6,17.3-5.8,24.1-12.5c0,0,1.2-1.1,1.8-1.7c-0.2,0.7-0.4,1.5-0.4,1.5c-2.8,9.8,1,11.8,3.4,12.6c7.2,2.1,15.7-8.3,15.8-8.3 c-0.2,3.3-0.9,6,2.6,8.2c3.3,1.2,6.6-0.6,9.1-2.2c9-6.4,16.3-16.4,22.2-24.9h-3.8c0,0.1-9.3,13.3-15.2,16.2c0,0-1.1,0.5-1.7,0.1 c-0.8-0.7-0.5-2.1,0-3.1c0-0.1,23.1-40.2,23.1-40.2h-10.9c0,0-1.2,2-1.3,2.1c-0.1-0.1-0.2-0.3-0.4-0.5c-6.8-9.3-22,5-33.6,21.7 c-4.4,6.4-10.1,13.6-15.9,18.8c0,0-8.7,8-12.4,2.2c-1.4-2.4-0.9-5.9-0.2-8.2c4.3-12.3,11.7-23.4,20.2-30.1c2.4-1.9,5-2.4,6.3-1.6 c1.2,0.7,1.4,2.5,0.6,3.8c-2-0.1-3.5,0.5-4.8,1.9c-2.5,2.7-3.4,5.2-2.6,7.6c3.9,5.6,11.7-5.4,11.3-12.1c-0.1-2.4-1.4-4.7-3.3-5.8 c-2.8-1.7-7.2-1.3-10,0.1c-3.8,1.4-9.7,6.4-13.2,10.2c-4.4,4.8-11.9,10.2-14.2,9.6C175.7,1009.8,182.1,996.8,175.4,992L175.4,992z M227.9,1011.1c2.1-2.9,8.3-10.8,9.8-12.1c5.1-4.5,7.1-2.5,7.3-1.1c-4.7,8.5-10.3,18.1-15.5,26.9c0,0-1.6,2.5-1.6,2.5 c-2.3,3.5-4.6,6.6-8.4,8.7c-0.5,0.2-1.4,0.2-2-0.2c-0.7-0.5-1-1.3-0.9-2.1C216.6,1030.9,219.4,1022.6,227.9,1011.1L227.9,1011.1z M168.6,1016.2c0,0-0.1,0.3-0.1,0.4c0,0-4.8,7.7-4.8,7.7c-2.9,3.8-6.4,8.6-10.9,10.9c-1.3,0.4-3.2,0.7-4.1-0.4 c-2-2.4-1-5.6-0.1-8.3l0.3-0.9c2.4-6.4,6.1-12.1,9.8-17.4c0,0,0.1-0.1,0.2-0.1c0,0,0,0,0,0.1c2.3,4.4,6.6,6.5,9.8,7.4 c0,0,0,0,0,0.1C168.8,1015.8,168.8,1015.9,168.6,1016.2L168.6,1016.2z M173.1,1007.1c0,0.1-2.1,4.9-2.1,4.9c-0.3,0.3-0.8,0.1-1.3,0 l-0.9-0.2c-2.9-0.9-5.2-2.9-5.9-5.2c-0.9-4.5,2.9-8.1,4.6-9.4c1.6-1.1,4.2-1.7,5.7-0.6c0.9,1.1,1.3,2.5,1.3,4 C174.5,1002.7,173.9,1005,173.1,1007.1L173.1,1007.1z"></path> <path class="st66" d="M310.9,1021.7c-1.1-2.3-3.5-3.7-6.2-3.6c-8.6,0.8-17.1,7.9-21.5,18.1c-2.3,5.2-3.6,9.6-4.4,16.4 c2.7-3.1,8.2-8.2,14.4-10.9c0,0,0.8-6.6,5.2-12.5c1.6-2.4,4.9-6.3,8.6-5.3c3.2,1.1,2.1,9.9-2.2,18.5c-3.1,6.3-8,12.6-12.8,17 c-4.3,3.7-10.7,8.1-16.3,4.7c-3.5-2.1-5.3-6.4-4.9-12.1c1.7-15.9,8.9-29.5,19.3-45c10.7-14.4,22.5-29.1,38.4-37 c3.2-1.6,6.2-2,8.8-1c0,0-14.9,8.2-22,23.4c-1.8,3.9-4.3,9.1-1.8,13.7c1.3,2.4,3.7,2.6,5.6,2.5c8.7-2,14.4-10.2,19-17.6 c2.7-5.6,5-11.3,5-17.5c0-0.8,0-1.8-0.1-2.5c4.2-2.2,12.7,1.7,12.7,1.7c6.7,2.2,20.9,13.1,25.7,15.2c2.3-2.7,6.2-6.8,8.3-8.9 l-3.1-1.9c-5-3.1-10.3-6-15.5-8.8c-11.8-6.5-21.5-4.2-26.4-2.4c-1.9,0.7-3.7,1.3-3.7,1.3c-3.6-4-9.6-3.6-14-2.5 c-15.8,4.5-30.5,15.6-46.3,34.8c-11.6,15.1-18.8,28.1-22.6,40.9c-3,8.6-3.8,21.4,3.4,28.9c6.1,6.4,14.3,5,20,2.7 c12.4-6.1,23.6-19.3,29.2-34.5C311.7,1033,313.2,1026.6,310.9,1021.7L310.9,1021.7z M339.5,974.2c-1.6,18.9-16.3,29.9-19.9,30.8 c-2.2,0.4-6-0.5-2.6-8.5c4.9-10.7,13.4-19.7,22.4-24.4C339.6,973,339.6,973.5,339.5,974.2L339.5,974.2z"></path> <path class="st66" d="M426.5,976.6c-7.9,4.5-16.1,7.4-26,6.4c-2.7,3.1-5.4,6.3-7.9,9.6c13.9,3.5,28.6-4.3,36.8-11.8 c8.7-7.5,13.2-17,13.2-17S436.1,971.1,426.5,976.6L426.5,976.6z"></path> <polygon class="st66" points="277.4,992.1 267,992.1 261.2,1002 271.6,1002 277.4,992.1 "></polygon> <path class="st66" d="M400.5,1063.1c-1.1,0.8-2.7,0.1-2.1-1.6c1.5-4.4,7.2-13.5,7.2-13.5l16.1-28.7h-11c-0.5,0.9-1.6,2.9-1.6,2.9 c-0.5-0.9-2-2.7-2.7-3.1c-2.7-1.7-6.7-0.9-9.4,0.7c-11.9,6.9-20.5,20.7-27.4,31.4c0,0-7.2,11.9-11.2,12.8c-3.1,0.3-2.8-3.9-2.7-4.9 c1.2-7.1,4-13.8,6.8-19.9c5.7-4,12.3-9.2,18.2-14.9c12.9-12.3,23.8-26.3,25.4-29.4c0,0-1.7,0.3-3.8,0.4c-9.9,13.9-30.3,34-36.4,37 c2.7-6.6,20.4-37.9,35.4-52.9l2.4-2.3c3.7-3.6,7.4-7.2,10.4-7.8c0.3,0,0.7,0,1.1,0.7c0.1,2.8-0.9,4.8-2.1,7.2l-1.7,3.4 c0,0,2.4-0.4,3.9-0.9c1.8-3.4,3.8-7.2,3-11.7c-0.2-1.5-1.3-2.6-2.7-2.8c-4.5-0.9-9.4,2.5-13.3,5.1l-0.2,0.1 c-20.2,15.8-37.2,38.6-52.1,69.7c-1.1,0.8-5.3,1.8-6,1.3c1.5-3,3.3-7.1,4.3-11.5c0.2-1.3,0.3-2.6,0.3-3.8c0-2.7-0.7-5.3-3.1-7 c-2.9-1.4-6.4-0.8-8.8,0.3c-10.6,4.4-18.6,15.3-24.4,24.3c-3.1,5.7-6.2,11.8-7,18.8c-0.6,5.5,0.6,9,3.7,10.8 c3.2,1.6,7.3-0.1,8.8-0.9c10.8-5.7,18.3-17.1,24.3-27.5c0.2,0,3.5-0.1,5.9-0.8c0,0,0,0,0.1,0c-0.1,0.5-1.4,4.3-1.4,4.3 c-3.8,11-5.5,18.6-2,23c5.1,6.3,13.5-0.2,20.3-8.8c-1.5,10.3,3.9,11.9,7.9,11.1c4.7-1.3,9.9-6.2,12.3-8.8c-0.8,3-0.6,8.4,3.7,8.9 c2.9,0.5,5.1-0.9,7.6-2.3c9-4.9,19.9-21.4,22.7-26H416C412,1051.4,406.9,1059.4,400.5,1063.1L400.5,1063.1z M319.3,1062 c-0.6-0.9-0.8-1.8-0.8-2.8c-0.1-6.2,6.5-17.2,11.2-23.4c0,0,0,0,0,0c2,4.6,6.4,7.1,9.1,8.3C335.6,1051.5,324.1,1067.5,319.3,1062 L319.3,1062z M340.8,1040.8c-0.3,0.2-5.9-1.7-7-6.9c-0.9-4.5,2.2-8,5.2-9.8c1.3-1,3.2-1.4,4.6-0.9c1.3,0.9,1.7,2.5,1.7,4.2 c0,1-0.1,2.1-0.3,3.1c0,0,0,0.2,0,0.2C344,1034.3,342.6,1037.7,340.8,1040.8L340.8,1040.8z M385.9,1060c0,0-1.1,0.9-1.1,0.9 c-1.5,1.4-3.1,2.8-5,2.1c-0.5-0.2-0.9-0.9-1-1.4c-0.1-3.9,1.7-7.5,3.4-11l0.4-0.9c4.9-8.1,10.5-17.7,18.9-24.4 c1.4-1,2.9-1.9,4.5-1.2c0.4,0.3,0.8,0.9,0.8,1.5c0,0.2-0.2,0.7-0.3,0.9c-2.3,3.8-4.5,7.7-6.7,11.5 C395.7,1045.4,391.4,1053.2,385.9,1060L385.9,1060z"></path> </g> </svg> 